<?xml version="1.0" encoding="UTF-8"?>
<svg id="Layer_1" data-name="Layer 1" xmlns="http://www.w3.org/2000/svg" xmlns:xlink="http://www.w3.org/1999/xlink" viewBox="0 0 1920 1080">
  <defs>
    <style>
      .cls-1 {
        fill: #fff;
      }

      .cls-2 {
        font-family: Widy-Thin, Widy;
        font-size: 22.38px;
        font-weight: 200;
      }

      .cls-3 {
        letter-spacing: .05em;
      }

      .cls-4 {
        fill: blue;
      }

      .cls-5 {
        letter-spacing: .02em;
      }

      .cls-6 {
        fill: #0a2b5b;
      }

      .cls-7 {
        fill: #ecf0f8;
      }

      .cls-8 {
        letter-spacing: .03em;
      }

      .cls-9 {
        letter-spacing: 0em;
      }

      .cls-10 {
        letter-spacing: .04em;
      }

      .cls-11 {
        font-family: MyriadPro-Regular, 'Myriad Pro';
        font-size: 12.13px;
      }

      .cls-12 {
        letter-spacing: -.02em;
      }

      .cls-13 {
        letter-spacing: -.02em;
      }

      .cls-14 {
        fill: #63b0f6;
      }

      .cls-15 {
        letter-spacing: .02em;
      }

      .cls-16 {
        letter-spacing: .02em;
      }
    </style>
  </defs>
  <g>
    <path class="cls-14" d="m500.88,737.55l-.63-25.56c1.75-.04,3.53-.11,5.28-.21l1.41,25.53c-2.01.11-4.05.19-6.07.24Zm-25.75-1.04c-2-.21-4.03-.45-6.02-.73l3.44-25.33c1.74.24,3.51.45,5.25.63l-2.67,25.43Zm57.41-2.3l-4.7-25.13c1.72-.32,3.46-.68,5.18-1.05l5.46,24.98c-1.97.43-3.97.84-5.95,1.21Zm-88.69-3.55c-1.94-.53-3.9-1.09-5.83-1.68l7.44-24.46c1.68.51,3.39,1,5.08,1.46l-6.69,24.68Zm-29.96-10.77c-1.83-.83-3.68-1.7-5.49-2.59l11.27-22.95c1.57.77,3.18,1.53,4.77,2.25l-10.56,23.29Zm-27.84-15.45c-1.68-1.12-3.36-2.28-5-3.44l14.82-20.83c1.42,1.01,2.88,2.02,4.34,2.99l-14.17,21.28Zm-24.98-19.71c-1.47-1.36-2.94-2.77-4.38-4.19l17.94-18.21c1.25,1.23,2.54,2.47,3.82,3.66l-17.39,18.74Zm-21.54-23.42c-1.24-1.58-2.48-3.21-3.67-4.84l20.61-15.14c1.04,1.42,2.12,2.84,3.2,4.22l-20.14,15.76Zm-17.55-26.59c-.97-1.76-1.92-3.57-2.85-5.37l22.78-11.62c.8,1.57,1.63,3.14,2.48,4.68l-22.41,12.32Zm-13.04-29.07c-.67-1.89-1.32-3.83-1.94-5.76l24.35-7.8c.54,1.68,1.11,3.37,1.69,5.01l-24.1,8.54Zm-8.19-30.77c-.36-1.97-.69-3.99-.99-5.99l25.28-3.8c.26,1.74.55,3.5.87,5.22l-25.16,4.58Zm-3.17-31.67c-.03-1.33-.04-2.66-.04-3.98,0-.7,0-1.39.01-2.09l25.57.27c0,.61,0,1.21,0,1.82,0,1.16.01,2.31.03,3.47l-25.56.51Zm27.22-28.21l-25.32-3.56c.28-1.99.59-4,.94-6l25.2,4.33c-.3,1.74-.57,3.49-.82,5.22Zm6.05-27.06l-24.42-7.57c.6-1.93,1.23-3.87,1.88-5.77l24.18,8.31c-.57,1.65-1.12,3.34-1.64,5.02Zm10.31-25.73l-22.89-11.39c.89-1.8,1.83-3.61,2.79-5.39l22.53,12.09c-.83,1.55-1.65,3.13-2.42,4.69Zm14.31-23.72l-20.76-14.93c1.18-1.63,2.39-3.27,3.62-4.87l20.29,15.56c-1.06,1.39-2.12,2.81-3.14,4.23Zm17.94-21.14l-18.11-18.05.34-.34c1.31-1.31,2.65-2.61,3.99-3.89l17.58,18.57c-1.18,1.11-2.35,2.26-3.49,3.39l-.31.32Zm21.08-18.07l-15.03-20.69c1.63-1.19,3.31-2.36,4.97-3.5l14.38,21.14c-1.45.99-2.91,2.01-4.33,3.05Zm23.68-14.43l-11.5-22.84c1.8-.91,3.64-1.8,5.47-2.65l10.79,23.18c-1.59.74-3.19,1.52-4.76,2.31Zm25.7-10.43l-7.68-24.39c1.93-.61,3.88-1.19,5.82-1.73l6.92,24.61c-1.69.47-3.39.98-5.07,1.51Zm27.05-6.18l-3.69-25.3c2-.29,4.02-.55,6.02-.78l2.91,25.4c-1.74.2-3.51.43-5.25.68Zm32.47-1.66c-1.62-.07-3.23-.12-4.79-.14l.4-25.56c1.8.03,3.64.08,5.49.16l-1.1,25.54Z"/>
    <path class="cls-14" d="m496.51,714.56c-46.61,0-90.44-18.15-123.4-51.11-32.96-32.96-51.11-76.78-51.11-123.4s18.15-90.44,51.11-123.4c32.96-32.96,76.79-51.11,123.4-51.11s90.44,18.15,123.4,51.11c32.96,32.96,51.11,76.78,51.11,123.4s-18.15,90.44-51.11,123.4c-32.96,32.96-76.79,51.11-123.4,51.11Zm0-346.18c-94.66,0-171.67,77.01-171.67,171.67s77.01,171.67,171.67,171.67,171.67-77.01,171.67-171.67-77.01-171.67-171.67-171.67Z"/>
    <path class="cls-14" d="m496.03,739.12c-53.17,0-103.16-20.71-140.76-58.31-37.6-37.6-58.31-87.59-58.31-140.76s20.71-103.16,58.31-140.76c37.6-37.6,87.59-58.31,140.76-58.31s103.16,20.71,140.76,58.31c37.6,37.6,58.31,87.59,58.31,140.76s-20.71,103.16-58.31,140.76c-37.6,37.6-87.59,58.31-140.76,58.31Zm0-397.46c-109.39,0-198.39,89-198.39,198.39s89,198.39,198.39,198.39,198.39-89,198.39-198.39-89-198.39-198.39-198.39Z"/>
    <path class="cls-1" d="m529.87,613.86h0s-5.8,2.66-5.8,2.66h0l-3.62-3.15-1.16-.6,1.04,5.03-1.04-5.03-2.51,1.46-7.57-4.68.52,12.91h1.24c1.21,0,2.4-.04,3.55-.11h0c5.84-.34,10.93-1.53,15.29-3.57h0c.51-.23,1.02-.49,1.51-.75.79-.43,1.55-.87,2.29-1.36-1.24-.94-2.47-1.88-3.71-2.83Zm-30.12,5.04h-2.14l-1.3,1.45-7.21-12.18-10.46-8.98-2.48,1.67-6.5,7.16-4.47,2.28-4.65,6.4-3.54-6.59-2.56-2.95-2.69-5.67-6.41-4.64-3.17-4.25-3.8,5.69-2.06,3.09-2.92,4.38-4.2,6.29c.34.32.68.63,1.03.94h0c.8.71,1.59,1.38,2.39,2.02,4.23,3.37,8.53,5.72,12.91,7.04,2.53.77,5.13,1.36,7.79,1.77,3.17.5,6.43.75,9.77.75,1.22,0,2.43-.06,3.61-.18,2.93-.28,5.73-.92,8.41-1.91h34.6l-.53-12.91-9.44,9.34Z"/>
    <path class="cls-6" d="m545.89,565.58c-1.57-4-3.71-7.38-6.43-10.17-2.73-2.78-5.82-4.92-9.3-6.43,2.9-1.62,5.33-3.53,7.31-5.73,1.97-2.2,3.47-4.84,4.52-7.91,1.04-3.07,1.56-6.69,1.56-10.86,0-6.49-1.39-12.02-4.17-16.6-2.78-4.57-6.69-8.08-11.73-10.51-5.04-2.43-10.93-3.65-17.64-3.65h-70.03v27.81h21.03l-25.03,46.05h17.73c2.44,0,4.81.33,7.12.96,2.32.64,4.26,1.71,5.82,3.22,1.57,1.51,2.35,3.59,2.35,6.25,0,1.97-.43,3.77-1.31,5.39-.87,1.63-2.14,2.93-3.82,3.91-1.68.98-3.68,1.48-6,1.48s-4.78-.44-7.38-1.31c-2.61-.87-4.84-2.34-6.69-4.43l-1.63,2.45,3.17,4.25,6.41,4.64,2.69,5.67,2.56,2.95,3.54,6.59,4.65-6.4,4.47-2.28,6.5-7.16,2.48-1.67,10.46,8.98,7.21,12.18,1.3-1.45h2.14l9.44-9.34h0l7.57,4.68,2.51-1.46h0s1.16.59,1.16.59l3.62,3.15h0l5.8-2.65h0c1.24.94,2.47,1.88,3.71,2.82,4.39-2.83,7.83-6.55,10.31-11.16,2.9-5.39,4.34-11.67,4.34-18.86,0-5.32-.78-9.99-2.34-13.99Zm-41.97-40.43h3.48c1.39,0,2.52.43,3.39,1.31.87.87,1.51,2.14,1.91,3.82.4,1.68.61,3.8.61,6.35,0,2.31-.21,4.32-.61,5.99-.4,1.68-1.07,2.95-1.99,3.83-.93.87-2.2,1.3-3.83,1.3h-2.95v-22.59Zm9.47,68.13c-.64,1.85-1.42,3.15-2.34,3.9-.93.76-1.85,1.13-2.78,1.13h-4.35v-26.24h3.83c1.16,0,2.23.38,3.22,1.13.98.76,1.79,2.09,2.43,4,.64,1.92.96,4.61.96,8.09s-.32,6.14-.96,7.99Z"/>
    <g>
      <g>
        <path class="cls-6" d="m834.02,587.27h-21.07l-34.26-38.93h-23.81v38.93h-18.02v-112.76c17.53,0,34.91.16,52.44.16,26.06,0,39.73,17.85,39.73,36.84,0,16.09-8.36,31.85-30.56,35.07l33.62,37.48,1.93,3.22Zm-79.14-96.19v40.86h34.26c14.96,0,21.55-9.49,21.55-20.11s-6.59-20.75-21.39-20.75h-34.42Z"/>
        <path class="cls-6" d="m936,587.27h-83.16v-112.6h82.68v17.53h-64.66v30.4h62.09v16.73h-62.09v30.24h65.15v17.69Z"/>
        <path class="cls-6" d="m1026.4,499.61c-5.31-7.72-16.09-12.39-27.83-12.55-15.12,0-26.06,6.27-26.06,17.05s12.55,13.99,27.35,16.09c23.16,3.22,45.2,9.65,45.2,34.91-.16,25.25-23.16,34.74-46.65,34.74-21.55,0-38.12-6.6-48.42-25.58l13.51-9.01c8.04,13.67,22.04,18.5,35.07,18.5s28.47-4.5,28.47-18.66c0-12.22-13.03-16.41-28.79-18.5-22.36-3.06-43.59-8.69-43.59-32.81-.16-23.32,23.16-32.33,43.43-32.33,16.25,0,32.49,3.86,41.98,18.98l-13.67,9.17Z"/>
        <path class="cls-6" d="m1148.48,587.27h-83.16v-112.6h82.68v17.53h-64.66v30.4h62.09v16.73h-62.09v30.24h65.15v17.69Z"/>
        <path class="cls-6" d="m1249.65,563.63h-60.96l-10.62,23.65h-19.14l50.51-112.6h19.62l50.51,112.6h-19.14l-10.78-23.65Zm-30.4-69.97l-23.81,53.56h47.61l-23.81-53.56Z"/>
        <path class="cls-6" d="m1392.32,587.27h-21.07l-34.26-38.93h-23.81v38.93h-18.02v-112.76c17.53,0,34.91.16,52.44.16,26.06,0,39.73,17.85,39.73,36.84,0,16.09-8.36,31.85-30.56,35.07l33.62,37.48,1.93,3.22Zm-79.14-96.19v40.86h34.26c14.96,0,21.55-9.49,21.55-20.11s-6.59-20.75-21.39-20.75h-34.42Z"/>
        <path class="cls-6" d="m1505.88,572.8c-11.58,11.42-26.54,16.73-42.3,16.73-40.86,0-59.19-28.15-59.36-57.75-.16-29.6,19.14-59.03,59.36-59.03,15.12,0,29.76,5.63,41.18,17.05l-12.06,11.58c-8.04-7.88-18.66-11.58-29.11-11.58-28.63,0-41.66,21.07-41.5,41.82.16,20.59,12.39,41.02,41.5,41.02,10.46,0,22.04-4.34,29.92-12.22l12.39,12.39Z"/>
        <path class="cls-6" d="m1601.74,587.27v-46.81h-59.52v46.81h-18.02v-112.6h18.02v49.06h59.52v-49.06h17.85v112.6h-17.85Z"/>
      </g>
      <g>
        <path class="cls-6" d="m738.61,636.65h10.43v2.42h-12.81v-20.93h2.38v18.51Z"/>
        <path class="cls-6" d="m765.5,636.71c-1.37,1.76-3.72,2.63-5.83,2.63-4.19,0-7.12-3.02-7.12-7.72s2.93-7.66,7.01-7.66,7.28,2.78,6.76,8.67h-11.5c.25,2.72,2.3,4.43,4.9,4.43,1.53,0,3.4-.66,4.3-1.85l1.51,1.5h-.03Zm-1.31-6.1c-.11-2.87-1.92-4.43-4.57-4.43-2.35,0-4.41,1.55-4.79,4.4h9.36v.03Z"/>
        <path class="cls-6" d="m780.57,624.35h2.14l.11,2.84c1.07-1.97,3.07-3.11,5.2-3.11,3.89.09,6.74,3.08,6.74,7.63s-2.82,7.69-6.87,7.69c-1.92,0-4.05-.9-5.12-2.99v9.63h-2.19v-21.68Zm11.94,7.42c0-3.32-2-5.29-4.76-5.29s-4.74,2.27-4.74,5.29,2,5.29,4.74,5.32c2.71,0,4.76-2,4.76-5.32Z"/>
        <path class="cls-6" d="m811.18,639.13l-.06-2.69c-1.07,2.03-3.12,2.99-4.98,2.99-3.89,0-6.93-2.93-6.93-7.75s3.09-7.66,6.95-7.63c2.03,0,4.02,1.02,5.01,2.93l.03-2.69h2.19v14.77h-2.16l-.05.06Zm-4.93-12.74c-2.68,0-4.85,2.09-4.85,5.38s2.16,5.41,4.85,5.41c6.52,0,6.52-10.83.03-10.83l-.03.03Z"/>
        <path class="cls-6" d="m821.68,624.26l.16,2.21c.93-1.91,2.6-2.45,4.16-2.45,1.18-.03,2.33.42,3.15,1.11l-1.01,2.09c-.71-.54-1.42-.81-2.35-.81-2.16.03-3.97,1.7-3.97,4.43v8.22h-2.25v-14.77h2.08l.03-.03Z"/>
        <path class="cls-6" d="m837.15,624.32h4.19v2.09h-4.22v7.81c0,1.73.52,2.84,2.14,2.84.6,0,1.29-.21,1.89-.54l.66,2.03c-.9.45-1.72.69-2.63.72-2.9.06-4.27-1.79-4.27-5.05v-7.81h-2.71v-2.09h2.71v-4.07l2.25-.27v4.34Z"/>
        <path class="cls-6" d="m858.37,636.71c-1.37,1.76-3.72,2.63-5.83,2.63-4.19,0-7.12-3.02-7.12-7.72s2.93-7.66,7.01-7.66,7.28,2.78,6.76,8.67h-11.5c.25,2.72,2.3,4.43,4.9,4.43,1.53,0,3.4-.66,4.3-1.85l1.51,1.5h-.03Zm-1.31-6.1c-.11-2.87-1.92-4.43-4.57-4.43-2.36,0-4.41,1.55-4.79,4.4h9.36v.03Z"/>
        <path class="cls-6" d="m864.37,624.26h2.05l.11,2.36c1.18-1.76,2.82-2.57,4.63-2.57,3.42,0,5.94,2.51,5.94,6.85v8.16h-2.25v-8.13c0-2.84-1.53-4.61-4.11-4.61-2.46.03-4.16,2.15-4.16,4.82v7.93h-2.22v-14.8Z"/>
        <path class="cls-6" d="m894.2,639.13l-.06-2.69c-1.07,2.03-3.12,2.99-4.98,2.99-3.89,0-6.93-2.93-6.93-7.75s3.09-7.66,6.95-7.63c2.03,0,4.02,1.02,5.01,2.93l.03-2.69h2.19v14.77h-2.16l-.05.06Zm-4.93-12.74c-2.68,0-4.85,2.09-4.85,5.38s2.16,5.41,4.85,5.41c6.52,0,6.52-10.83.03-10.83l-.03.03Z"/>
        <path class="cls-6" d="m905.21,619.81c0,2.12-2.96,2.12-2.96-.03s2.96-2.12,2.96.03Zm-2.63,19.26h2.25v-14.83h-2.25v14.83Z"/>
        <path class="cls-6" d="m913.1,624.26l.16,2.21c.93-1.91,2.6-2.45,4.16-2.45,1.18-.03,2.33.42,3.15,1.11l-1.01,2.09c-.71-.54-1.42-.81-2.35-.81-2.16.03-3.97,1.7-3.97,4.43v8.22h-2.25v-14.77h2.08l.03-.03Z"/>
        <path class="cls-6" d="m936.43,636.71c-1.37,1.76-3.72,2.63-5.83,2.63-4.19,0-7.12-3.02-7.12-7.72s2.93-7.66,7.01-7.66,7.28,2.78,6.76,8.67h-11.5c.25,2.72,2.3,4.43,4.9,4.43,1.53,0,3.4-.66,4.3-1.85l1.51,1.5h-.03Zm-1.31-6.1c-.11-2.87-1.92-4.43-4.57-4.43-2.35,0-4.41,1.55-4.79,4.4h9.36v.03Z"/>
        <path class="cls-6" d="m964.8,618.1v20.93h-2.11l-.11-2.69c-1.1,2.03-3.07,2.99-5.07,2.99-3.86,0-6.85-2.78-6.85-7.66s2.98-7.66,6.82-7.66c1.92,0,4.11.96,5.07,2.96v-8.85h2.22l.03-.03Zm-7.12,8.19c-2.63,0-4.76,1.88-4.76,5.35s2.14,5.35,4.76,5.35,4.79-2.15,4.79-5.38-2.14-5.32-4.82-5.32h.03Z"/>
        <path class="cls-6" d="m983.07,636.71c-1.37,1.76-3.72,2.63-5.83,2.63-4.19,0-7.12-3.02-7.12-7.72s2.93-7.66,7.01-7.66,7.28,2.78,6.76,8.67h-11.5c.25,2.72,2.3,4.43,4.9,4.43,1.53,0,3.4-.66,4.3-1.85l1.51,1.5h-.03Zm-1.31-6.1c-.11-2.87-1.92-4.43-4.57-4.43-2.35,0-4.41,1.55-4.79,4.4h9.36v.03Z"/>
        <path class="cls-6" d="m1000.55,639.07h-2.25v-20.93h2.25v20.93Z"/>
        <path class="cls-6" d="m1017.99,639.13l-.06-2.69c-1.07,2.03-3.12,2.99-4.98,2.99-3.89,0-6.93-2.93-6.93-7.75s3.09-7.66,6.95-7.63c2.03,0,4.02,1.02,5.01,2.93l.03-2.69h2.19v14.77h-2.16l-.05.06Zm-4.93-12.74c-2.68,0-4.85,2.09-4.85,5.38s2.16,5.41,4.85,5.41c6.52,0,6.52-10.83.03-10.83l-.03.03Z"/>
        <path class="cls-6" d="m1042.97,631.53h-4.66v7.54h-2.38v-20.93h8.71c4.33,0,6.49,3.29,6.49,6.7.03,3.17-1.56,6.13-5.5,6.49l6.33,7.75h-3.01l-5.97-7.54Zm5.78-6.64c.03-2.09-1.34-4.43-4.11-4.43h-6.33v8.73h6.22c2.88,0,4.22-1.94,4.22-4.31Z"/>
        <path class="cls-6" d="m1068.44,636.71c-1.37,1.76-3.72,2.63-5.83,2.63-4.19,0-7.12-3.02-7.12-7.72s2.93-7.66,7.01-7.66,7.28,2.78,6.76,8.67h-11.5c.25,2.72,2.3,4.43,4.9,4.43,1.53,0,3.4-.66,4.3-1.85l1.51,1.5h-.03Zm-1.31-6.1c-.11-2.87-1.92-4.43-4.57-4.43-2.35,0-4.41,1.55-4.79,4.4h9.36v.03Z"/>
        <path class="cls-6" d="m1085.69,637.06c-1.45,1.58-3.18,2.27-5.04,2.27-3.86,0-7.06-2.72-7.06-7.66s3.15-7.66,7.06-7.66c1.83,0,3.48.69,4.9,2.21l-1.42,1.61c-.96-1.02-2.22-1.5-3.42-1.5-2.68,0-4.85,2-4.85,5.32s2.19,5.32,4.82,5.32c1.29,0,2.57-.48,3.53-1.56l1.51,1.64-.03-.03Z"/>
        <path class="cls-6" d="m1092.84,618.16v8.58c1.15-1.94,2.96-2.6,4.68-2.63,3.81,0,5.67,2.75,5.67,6.82v8.13h-2.22v-8.1c0-2.9-1.37-4.55-3.83-4.55s-4.27,2.12-4.27,4.82v7.84h-2.25v-20.93h2.22v.03Z"/>
        <path class="cls-6" d="m1121.27,636.71c-1.37,1.76-3.72,2.63-5.83,2.63-4.19,0-7.12-3.02-7.12-7.72s2.93-7.66,7.01-7.66,7.28,2.78,6.76,8.67h-11.5c.25,2.72,2.3,4.43,4.9,4.43,1.53,0,3.4-.66,4.3-1.85l1.51,1.5h-.03Zm-1.31-6.1c-.11-2.87-1.92-4.43-4.57-4.43-2.36,0-4.41,1.55-4.79,4.4h9.36v.03Z"/>
        <path class="cls-6" d="m1129.38,624.26l.16,2.21c.93-1.91,2.6-2.45,4.16-2.45,1.18-.03,2.33.42,3.15,1.11l-1.01,2.09c-.71-.54-1.42-.81-2.35-.81-2.16.03-3.97,1.7-3.97,4.43v8.22h-2.25v-14.77h2.08l.03-.03Z"/>
        <path class="cls-6" d="m1151.86,637.06c-1.45,1.58-3.18,2.27-5.04,2.27-3.86,0-7.06-2.72-7.06-7.66s3.15-7.66,7.06-7.66c1.83,0,3.48.69,4.9,2.21l-1.42,1.61c-.96-1.02-2.22-1.5-3.42-1.5-2.68,0-4.85,2-4.85,5.32s2.19,5.32,4.82,5.32c1.29,0,2.57-.48,3.53-1.56l1.51,1.64-.03-.03Z"/>
        <path class="cls-6" d="m1159.01,618.16v8.58c1.15-1.94,2.96-2.6,4.68-2.63,3.81,0,5.67,2.75,5.67,6.82v8.13h-2.22v-8.1c0-2.9-1.37-4.55-3.83-4.55s-4.27,2.12-4.27,4.82v7.84h-2.25v-20.93h2.22v.03Z"/>
        <path class="cls-6" d="m1187.44,636.71c-1.37,1.76-3.72,2.63-5.83,2.63-4.19,0-7.12-3.02-7.12-7.72s2.93-7.66,7.01-7.66,7.28,2.78,6.76,8.67h-11.5c.25,2.72,2.3,4.43,4.9,4.43,1.53,0,3.4-.66,4.3-1.85l1.51,1.5h-.03Zm-1.31-6.1c-.11-2.87-1.92-4.43-4.57-4.43-2.36,0-4.41,1.55-4.79,4.4h9.36v.03Z"/>
        <path class="cls-6" d="m1212.8,632.49h-.49l-6.95-10.65v17.23h-2.36v-20.93h2.85l6.74,10.77,6.68-10.77h2.85v20.93h-2.35v-17.17l-6.95,10.59Z"/>
        <path class="cls-6" d="m1241.34,632.64h-11.45c.25,2.75,2.25,4.46,4.85,4.46,1.53,0,3.39-.66,4.3-1.85l1.51,1.5c-1.37,1.76-3.72,2.63-5.83,2.63-4.19,0-7.12-3.02-7.12-7.72s2.93-7.66,6.98-7.66,7.28,2.78,6.76,8.7v-.06Zm-11.42-2h9.31c-.11-2.87-1.92-4.43-4.57-4.43-2.35,0-4.35,1.56-4.74,4.4v.03Zm3.26-8.91v.15h2.05l2.74-3.89v-.06h-2.77l-2.03,3.8Z"/>
        <path class="cls-6" d="m1259.82,618.1v20.93h-2.11l-.11-2.69c-1.1,2.03-3.07,2.99-5.07,2.99-3.86,0-6.85-2.78-6.85-7.66s2.98-7.66,6.82-7.66c1.92,0,4.11.96,5.07,2.96v-8.85h2.22l.03-.03Zm-7.12,8.19c-2.63,0-4.76,1.88-4.76,5.35s2.14,5.35,4.76,5.35,4.79-2.15,4.79-5.38-2.14-5.32-4.82-5.32h.03Z"/>
        <path class="cls-6" d="m1268.62,619.81c0,2.12-2.96,2.12-2.96-.03s2.96-2.12,2.96.03Zm-2.63,19.26h2.25v-14.83h-2.25v14.83Z"/>
        <path class="cls-6" d="m1285.65,637.06c-1.45,1.58-3.18,2.27-5.04,2.27-3.86,0-7.06-2.72-7.06-7.66s3.15-7.66,7.06-7.66c1.83,0,3.48.69,4.9,2.21l-1.42,1.61c-.96-1.02-2.22-1.5-3.42-1.5-2.68,0-4.85,2-4.85,5.32s2.19,5.32,4.82,5.32c1.29,0,2.57-.48,3.53-1.56l1.51,1.64-.03-.03Z"/>
        <path class="cls-6" d="m1301.4,639.13l-.06-2.69c-1.07,2.03-3.12,2.99-4.98,2.99-3.89,0-6.93-2.93-6.93-7.75s3.09-7.66,6.95-7.63c2.03,0,4.02,1.02,5.01,2.93l.03-2.69h2.19v14.77h-2.16l-.05.06Zm-4.93-12.74c-2.68,0-4.85,2.09-4.85,5.38s2.16,5.41,4.85,5.41c6.52,0,6.52-10.83.03-10.83l-.03.03Z"/>
        <path class="cls-6" d="m1312.19,639.07h-2.25v-20.93h2.25v20.93Z"/>
        <path class="cls-6" d="m1330.62,636.71c-1.37,1.76-3.72,2.63-5.83,2.63-4.19,0-7.12-3.02-7.12-7.72s2.93-7.66,7.01-7.66,7.28,2.78,6.76,8.67h-11.5c.25,2.72,2.3,4.43,4.9,4.43,1.53,0,3.4-.66,4.3-1.85l1.51,1.5h-.03Zm-1.31-6.1c-.11-2.87-1.92-4.43-4.57-4.43-2.35,0-4.41,1.55-4.79,4.4h9.36v.03Z"/>
        <path class="cls-6" d="m1359,618.1v20.93h-2.11l-.11-2.69c-1.1,2.03-3.07,2.99-5.07,2.99-3.86,0-6.85-2.78-6.85-7.66s2.98-7.66,6.82-7.66c1.92,0,4.11.96,5.07,2.96v-8.85h2.22l.03-.03Zm-7.12,8.19c-2.63,0-4.76,1.88-4.76,5.35s2.14,5.35,4.76,5.35,4.79-2.15,4.79-5.38-2.14-5.32-4.82-5.32h.03Z"/>
        <path class="cls-6" d="m1376.28,639.13l-.06-2.69c-1.07,2.03-3.12,2.99-4.98,2.99-3.89,0-6.93-2.93-6.93-7.75s3.09-7.66,6.95-7.63c2.03,0,4.02,1.02,5.01,2.93l.03-2.69h2.19v14.77h-2.16l-.05.06Zm-4.93-12.74c-2.68,0-4.85,2.09-4.85,5.38s2.16,5.41,4.85,5.41c6.52,0,6.52-10.83.03-10.83l-.03.03Z"/>
        <path class="cls-6" d="m1384.66,624.26h2.05l.11,2.36c1.18-1.76,2.82-2.57,4.63-2.57,3.42,0,5.94,2.51,5.94,6.85v8.16h-2.25v-8.13c0-2.84-1.53-4.61-4.11-4.61-2.46.03-4.16,2.15-4.16,4.82v7.93h-2.22v-14.8Z"/>
        <path class="cls-6" d="m1412.05,627.58c-1.18-1.17-2.41-1.44-3.81-1.44-1.86-.03-3.37.69-3.34,2.15.03,1.53,1.67,1.97,3.37,2.18,2.46.33,5.75.87,5.7,4.52-.05,2.96-2.63,4.43-5.67,4.43-2.27,0-4.52-.69-6.05-2.78l1.29-1.7c1.2,1.61,3.15,2.27,4.82,2.27,1.48,0,3.37-.51,3.42-2.3.03-1.61-1.56-2.09-3.64-2.36-2.6-.36-5.39-1.11-5.39-4.25-.03-3.14,2.88-4.37,5.48-4.34,2.03,0,3.7.54,5.15,1.97l-1.29,1.61-.03.03Z"/>
        <path class="cls-6" d="m1430.56,639.07h-2.25v-20.93h2.25v20.93Z"/>
        <path class="cls-6" d="m1448.99,636.71c-1.37,1.76-3.72,2.63-5.83,2.63-4.19,0-7.12-3.02-7.12-7.72s2.93-7.66,7.01-7.66,7.28,2.78,6.76,8.67h-11.5c.25,2.72,2.3,4.43,4.9,4.43,1.53,0,3.4-.66,4.3-1.85l1.51,1.5h-.03Zm-1.31-6.1c-.11-2.87-1.92-4.43-4.57-4.43-2.35,0-4.41,1.55-4.79,4.4h9.36v.03Z"/>
        <path class="cls-6" d="m1471.18,620.02c-2.44,0-5.04,1.05-5.04,3.59,0,2.27,2.38,2.93,5.2,3.44,3.83.66,7.61,1.5,7.61,6.22-.03,4.7-4.13,6.22-7.8,6.22-3.4,0-6.63-1.35-8.11-4.85l1.97-1.26c1.23,2.48,3.81,3.68,6.16,3.68s5.42-.81,5.42-3.89c.03-2.6-2.66-3.35-5.53-3.83-3.7-.63-7.28-1.56-7.28-5.8-.06-4.37,4.02-5.86,7.34-5.86,2.85,0,5.56.63,7.26,3.8l-1.81,1.23c-1.04-1.82-3.26-2.66-5.39-2.69Z"/>
        <path class="cls-6" d="m1494.62,639.07l-.11-2.36c-1.2,1.79-2.82,2.57-4.71,2.6-3.45,0-5.89-2.54-5.89-6.85v-8.16h2.25v8.13c0,2.84,1.53,4.61,4.11,4.61,2.46-.03,4.16-2.15,4.16-4.81v-7.93h2.25v14.77h-2.08.03Z"/>
        <path class="cls-6" d="m1516.15,618.1v20.93h-2.11l-.11-2.69c-1.1,2.03-3.07,2.99-5.07,2.99-3.86,0-6.85-2.78-6.85-7.66s2.98-7.66,6.82-7.66c1.92,0,4.11.96,5.07,2.96v-8.85h2.22l.03-.03Zm-7.12,8.19c-2.63,0-4.76,1.88-4.76,5.35s2.14,5.35,4.76,5.35,4.79-2.15,4.79-5.38-2.14-5.32-4.82-5.32h.03Z"/>
        <path class="cls-6" d="m1531.95,629.32v2.33h-9.8v-2.33h9.8Z"/>
        <path class="cls-6" d="m1556.71,628.66c-.03,5.47-3.15,10.83-9.72,10.83s-9.75-5.32-9.75-10.83c0-6.07,3.72-10.89,9.77-10.89,6.49.03,9.72,5.35,9.69,10.89Zm-9.69-8.49c-4.87,0-7.39,3.92-7.39,8.49,0,4.25,2.36,8.37,7.39,8.37s7.31-4.25,7.31-8.37c.03-4.25-2.3-8.43-7.31-8.49Z"/>
        <path class="cls-6" d="m1572.54,639.07l-.11-2.36c-1.2,1.79-2.82,2.57-4.71,2.6-3.45,0-5.89-2.54-5.89-6.85v-8.16h2.25v8.13c0,2.84,1.53,4.61,4.11,4.61,2.46-.03,4.16-2.15,4.16-4.81v-7.93h2.25v14.77h-2.08.03Z"/>
        <path class="cls-6" d="m1592.86,636.71c-1.37,1.76-3.72,2.63-5.83,2.63-4.19,0-7.12-3.02-7.12-7.72s2.93-7.66,7.01-7.66,7.28,2.78,6.76,8.67h-11.5c.25,2.72,2.3,4.43,4.9,4.43,1.53,0,3.4-.66,4.3-1.85l1.51,1.5h-.03Zm-1.31-6.1c-.11-2.87-1.92-4.43-4.57-4.43-2.35,0-4.41,1.55-4.79,4.4h9.36v.03Z"/>
        <path class="cls-6" d="m1607.54,627.58c-1.18-1.17-2.41-1.44-3.81-1.44-1.86-.03-3.37.69-3.34,2.15.03,1.53,1.67,1.97,3.37,2.18,2.46.33,5.75.87,5.7,4.52-.05,2.96-2.63,4.43-5.67,4.43-2.27,0-4.52-.69-6.05-2.78l1.29-1.7c1.2,1.61,3.15,2.27,4.82,2.27,1.48,0,3.37-.51,3.42-2.3.03-1.61-1.56-2.09-3.64-2.36-2.6-.36-5.39-1.11-5.39-4.25-.03-3.14,2.88-4.37,5.48-4.34,2.03,0,3.7.54,5.15,1.97l-1.29,1.61-.03.03Z"/>
        <path class="cls-6" d="m1618.39,624.32h4.19v2.09h-4.22v7.81c0,1.73.52,2.84,2.14,2.84.6,0,1.29-.21,1.89-.54l.66,2.03c-.9.45-1.72.69-2.63.72-2.9.06-4.27-1.79-4.27-5.05v-7.81h-2.71v-2.09h2.71v-4.07l2.25-.27v4.34Z"/>
      </g>
    </g>
    <g>
      <rect class="cls-14" x="423.6" y="580.03" width="6.1" height="5.48"/>
      <polygon class="cls-14" points="426.06 580.72 426.56 553.71 427.06 580.72 426.06 580.72 426.06 580.72"/>
      <g>
        <g>
          <polygon class="cls-1" points="556.04 638.65 556.04 638.64 556.05 638.65 556.04 638.65"/>
          <path class="cls-1" d="m565.93,637.2l2.26,3.95-.02-.02-8.66-7.55-1.92-.5-3.58.26h0s2.02,5.3,2.02,5.3l-6.89-4.99-3.58-3.71-7.46-7.51h0s.39,2.84.39,2.84l3.78,9.89h-.01s-3.87-3.45-3.87-3.45h0s2.68,5.01,2.68,5.01l1.6,1.46h0s.23,4.97.23,4.97l-6.32-4.44,1.38-4.77v-.07s-.01,0-.01,0l-.92-5.27-7.25-8.86v-.92h0c0-.4,0-.89,0-1.41.01-1.6.04-3.44.07-3.51h0c1.24.94,2.47,1.88,3.71,2.82.16.13.33.25.5.38l14.53,10.64,7.21,3.84,4.1-.09,14.18,10.97-8.17-5.25v.02Z"/>
          <g>
            <path class="cls-6" d="m608.86,658.16c-2.78,2.62-5.62,5.13-8.54,7.53h-71.25l-26.05-1.19-12.79-4.48-4.98-2.3-4.31,1.32-3.86-2.24-5.78,1.67-3.84-2.02-4.3.92s-6.75-.67-6.75-.78c1.49-.65,3-1.28,4.51-1.87l1.3-2.79,8.12-5.34,3-4.74,1.65-2.61,2.73-3.22,4.76-5.61,3.71.05,2.31-1.43,5.35-5.96h0s.52-.58.52-.58l1.9-2.12,1.3-1.45h2.14l9.44-9.34.53,12.91.1,2.53,3.15,11.88h0l6.46,5.3h0s-1.37-10.05-1.37-10.05l-3.15-2.83-4.03-6.82-.09-.14.16.14,6.02,5.16-2.47-5.27-1.81-3.86h.02s3.5,3.29,3.5,3.29l-1.64-4.04-2.39-3.64h.01s1.65,1.11,1.65,1.11l1.04-.6.72.3,1.16-.67,2.51-1.46,1.04,5.03,1.44,1.35,2.31-2.63h0l5.8-2.65c-.04.08-.06,1.92-.07,3.51,0,.52,0,1.01,0,1.41h0c0,.56,0,.93,0,.93l7.25,8.85.92,5.27h0s.01.08.01.08l-1.38,4.77h0s6.32,4.44,6.32,4.44l-.23-4.96-1.6-1.47h0l-2.68-5.01h.01s3.86,3.44,3.86,3.44l-3.77-9.88-.39-2.84h0s7.46,7.5,7.46,7.5l3.58,3.71,6.89,5h0s-2.03-5.3-2.03-5.3h0l3.57-.26,1.92.5,8.68,7.58v-.03s-2.27-3.95-2.27-3.95h.01s8.16,5.24,8.16,5.24l4.73,3.66,1.33-.53,1.03.94,2.98,1.07,2.67,1.53.1.06,21.92,9Z"/>
            <polygon class="cls-1" points="519.41 642.17 519.41 642.17 512.95 636.88 509.8 625 509.7 622.47 509.18 609.56 516.75 614.24 515.59 614.91 514.88 614.61 513.83 615.22 512.19 614.12 514.57 617.75 516.21 621.79 512.69 618.5 512.7 618.52 514.5 622.37 516.96 627.63 510.94 622.47 510.78 622.33 510.87 622.47 514.89 629.3 518.04 632.13 519.42 642.17 519.41 642.17"/>
          </g>
          <polygon class="cls-1" points="524.06 616.52 521.75 619.15 520.31 617.8 519.27 612.77 520.44 613.36 524.06 616.52 524.06 616.52"/>
        </g>
        <path class="cls-14" d="m557.04,665.69l-23.02-16.17-15.78-5.41h0l-1.9-.02-5.23-6.34-1.62.13-4.93-3.1-2.52.11h-.11s-6.74-6.3-6.74-6.3l1.12-2.7-2.43-2.83-.5-.58-.5-.58-3.31-.5-.24-1.15-1.64-.52h0l-2.8-5.67-1.97-5.3h0s-.61-3.25-.61-3.25l-3.55-1.75h0s-2.6-2.91-2.6-2.91l-6.5,7.16-4.47,2.28-4.65,6.4,2.71,5.03,3.44,2.65,5.35,4.12.74,1.67,2.33,1.3,2.04,4.22.59.32,3.07,1.63,4.66,5.09-7.05-3.68.33,1.12,1.03,2.44-2.36-1.86-2.36-.57,3.56,6.72-5.28-5.05-.55-.53-2.75-4.37-1.82-1.41-.09,1.48-8.48-9.29-2.74-.67-3.07-2.34-.53-.9-2.41-4.12-3.19-3.39-1.81.15-4.11-3.03,2.06,3.96-3.83-2.66.68,2.26-5.56-2.97.32-2.34-.89-2.09-.62.23.87-2.89-.99.99-.2-2.07-.26-.09-1.14-.4,1.11-.34-.12-4.04-4.66-3.23-.38,2.63-1.41,1.82.49-4.13.99-1.68-1.04-.79-1.06,1.23-2.75-3.95,2.1-6.02-.84.43.06-1.78.05-1.38-1.14,1.03-.06.11-1.71,3.37-5.36,7.12-4.27,3-2.78,5.98-.4.87-4.39,7.21-6.41,5.15-2.9,3.91-5.79,13.43c11.49,12.5,25.03,22.73,39.86,30.39h127.64l-.03-.02Zm-132.05-57.05l-1.44-1.5-.65,1.07.3,2.77h0s-2.54-2.21-2.54-2.21h0s0,0,0,0l-1.16,2.56-.53,1.16-.16-1.44,1.38-3.06.02-1.82-2.18-3.13h0s.05-.38.05-.38l.32-2.39h0s2.11-4.05,2.11-4.05l2.94,2.95.12,1.75,1.5,1.81h0s.35,3.13.35,3.13l1.55,2.58-.58,2.74-1.39-2.56Zm14.94,17.56l-3.73-1.97-1.81-1.24-1.41.29-2.34-2.06-1.58-.59h0s-.15-.97-.15-.97l-.71-.98,2.04-3.99v-1.71s-.02-1.63-.02-1.63h0s1.95-2.04,1.95-2.04l-1.02,2.63.75,1.24.73,1.82.79,1.97,1.02.4,3.31,3.67.23,1.33,2.74,2.84h0s3.64,3.7,3.64,3.7l-4.41-2.72Zm62.53,25.38h0s4.69,2.73,4.69,2.73l3.16,3.87-4.37-2.36-2.51-1.62,2.41.87-3.39-3.49h0Zm-4.97-1.21h0s-3.68-3.24-3.68-3.24l-1.06-.62-1.24-2.19-1.96-.37h0l.66,2-1.3-.53-1.77.92,1.38-1.7-.27-1.51,3.69-1.41,5.54,8.65Zm-3.05-24.89l-1.46,3.15h0s0,.01,0,.01v-1.65l1.46-1.51Zm-14.13-5.03l1.03-1.43,1.36.28-2.76,3.18-.62.71.26-.71.73-2.03Z"/>
        <path class="cls-1" d="m479.78,642.61l-1.03-2.44-.33-1.12,7.05,3.68-4.66-5.09-3.07-1.63-.59-.32-2.04-4.22-2.33-1.3-.74-1.67-5.35-4.12-3.44-2.65-2.71-5.03-3.54-6.59-2.56-2.95-2.69-5.67-6.41-4.64-3.17-4.25-.39-.53-3.1-4.91-7.6-5.19h0s0,0,0,0l-.13,2.14,2.68,1.6.23,3.21.31,1.32.92,1.43-1.42-.11h0s-.35-1.3-.35-1.3l-4.25-4.59-.62-.17-1.14-.31h-.01s-.75-.21-.75-.21l-1.74-.85-.05,1.38-.06,1.78.84-.43-2.1,6.02,2.75,3.95,1.06-1.23,1.04.79-.99,1.68-.49,4.13,1.41-1.82.38-2.63,4.66,3.23.12,4.04-1.11.34,1.14.4.26.09.2,2.07.99-.99-.87,2.89.62-.23.89,2.09-.32,2.34,5.56,2.97-.68-2.26,3.83,2.66-2.06-3.96,4.11,3.03,1.81-.15,3.19,3.39,2.41,4.12.53.9,3.07,2.34,2.74.67,8.48,9.29.09-1.48,1.82,1.41,2.75,4.37.55.53,5.28,5.05-3.56-6.72,2.36.57,2.36,1.86Zm-32.91-28.97h0s-7.47-7.14-7.47-7.14l-1.61-3.76-1.48-1.38-1.64-1.52h0s-1.87-3.67-1.87-3.67l3.14,2.23-1.08-2.75h0l3.5,2.63.37.28,3.05,4.03,5.1,4.39v6.66Z"/>
        <polygon class="cls-1" points="518.24 644.11 518.24 644.11 516.34 644.08 511.1 637.74 511.1 637.74 509.48 637.87 504.55 634.77 502.03 634.88 501.93 634.89 495.18 628.59 496.31 625.89 493.88 623.05 493.38 622.47 493.37 622.47 492.88 621.9 492.88 621.9 489.57 621.4 489.33 620.24 487.69 619.73 484.88 614.06 482.91 608.77 482.91 608.76 482.3 605.52 478.75 603.76 476.15 600.85 478.63 599.19 489.09 608.17 496.3 620.35 496.69 621.01 499.34 621.23 500.14 622.47 504.85 629.79 508.93 633.11 511.51 635.47 518.24 644.11"/>
        <polygon class="cls-14" points="435.07 591.68 433.65 591.57 433.3 590.28 429.06 585.68 427.3 585.2 431.07 581.97 430.93 584.12 433.61 585.72 433.84 588.93 434.16 590.26 435.07 591.68"/>
        <polygon class="cls-7" points="426.96 608.45 426.39 611.2 424.99 608.64 423.55 607.13 422.9 608.21 423.2 610.99 420.65 608.76 418.95 612.48 418.8 611.04 420.18 607.98 420.2 606.16 418.02 603.03 418.39 600.27 420.5 596.22 423.45 599.17 423.56 600.93 425.06 602.74 425.41 605.87 426.96 608.45"/>
        <polygon class="cls-7" points="444.36 628.93 439.93 626.2 436.2 624.23 434.38 622.99 432.97 623.28 430.63 621.22 429.05 620.63 428.91 619.67 428.19 618.69 430.24 614.7 430.22 611.35 432.17 609.31 431.15 611.95 431.89 613.19 433.41 616.97 434.42 617.38 437.74 621.04 437.97 622.38 440.7 625.22 444.36 628.93"/>
        <polygon class="cls-14" points="446.89 606.98 446.88 613.65 439.4 606.5 437.79 602.75 434.67 599.85 432.8 596.18 435.94 598.41 434.86 595.65 438.74 598.56 441.78 602.59 446.89 606.98"/>
        <polygon class="cls-1" points="497.49 650.38 493.81 647.12 492.75 646.5 491.52 644.31 489.55 643.94 490.21 645.94 488.91 645.41 487.14 646.33 488.52 644.64 488.25 643.13 491.94 641.72 497.49 650.38"/>
        <polygon class="cls-1" points="510.31 658.18 505.94 655.81 503.43 654.19 505.85 655.07 502.45 651.58 507.16 654.31 510.31 658.18"/>
        <polygon class="cls-1" points="494.44 625.46 492.97 628.63 492.97 626.99 494.44 625.46"/>
        <polygon class="cls-1" points="482.7 619.29 479.32 623.18 480.3 620.45 481.33 619.01 482.7 619.29"/>
      </g>
    </g>
    <g>
      <polygon class="cls-14" points="534.79 436.32 567.48 462.79 551.55 483.54 542.41 476.05 535.48 482.65 523.7 473.11 528.76 464.88 519.47 457.27 534.79 436.32"/>
      <polygon class="cls-14" points="570.57 458.77 537.78 432.23 599.58 347.68 632.59 371.1 570.57 458.77"/>
    </g>
    <g>
      <path class="cls-14" d="m600.32,665.69c-29.47,24.25-66.11,37.44-104.78,37.44-23.56,0-46.33-4.86-67.65-14.43-13.43-6.03-25.85-13.73-37.11-22.99-3.56-2.92-7.01-6.01-10.34-9.24l9.13-21.16c11.49,12.5,25.03,22.73,39.86,30.39h127.64l-.03-.02h43.28Z"/>
      <path class="cls-14" d="m660.8,537.88c0,44.14-17.19,85.64-48.41,116.85-1.16,1.16-2.34,2.31-3.53,3.42-2.78,2.62-5.62,5.13-8.54,7.53h-38.58c8.95-4.66,17.36-10.22,25.1-16.59,32.13-26.42,52.66-66.46,52.66-111.22,0-49.31-24.82-94.65-66.39-121.29l11.49-17.93c47.71,30.58,76.19,82.63,76.19,139.22Z"/>
    </g>
  </g>
  <text class="cls-2" transform="translate(1647.52 45.32)"><tspan class="cls-12" x="0" y="0">v</tspan><tspan class="cls-15" x="17.03" y="0">e</tspan><tspan class="cls-9" x="35.07" y="0">r</tspan><tspan class="cls-10" x="46.69" y="0">t</tspan><tspan class="cls-9" x="57.5" y="0">i</tspan><tspan class="cls-15" x="63" y="0">c</tspan><tspan class="cls-8" x="81.09" y="0">a</tspan><tspan x="98.21" y="0">l </tspan><tspan class="cls-13" x="111.51" y="0">v</tspan><tspan class="cls-16" x="128.54" y="0">e</tspan><tspan class="cls-8" x="146.58" y="0">r</tspan><tspan class="cls-3" x="158.64" y="0">s</tspan><tspan class="cls-9" x="174.49" y="0">io</tspan><tspan x="198.37" y="0">n</tspan><tspan class="cls-8" x="0" y="26.86">a</tspan><tspan class="cls-9" x="17.12" y="26.86">l</tspan><tspan x="24.04" y="26.86">p</tspan><tspan class="cls-5" x="41.32" y="26.86">h</tspan><tspan x="59.22" y="26.86">a</tspan></text>
  <g>
    <g>
      <rect class="cls-1" x="1869.3" y="541.3" width="34.52" height="201.4"/>
      <g>
        <g>
          <g>
            <polygon class="cls-4" points="1882.11 722.59 1882.12 722.61 1882.09 722.61 1882.09 733.91 1884.72 733.91 1884.72 725.21 1893.44 733.93 1895.3 732.06 1883.97 720.73 1882.11 722.59"/>
            <rect class="cls-4" x="1889.22" y="723.35" width="6.06" height="2.63"/>
          </g>
          <g>
            <polygon points="1879.8 710.17 1877.93 712.03 1889.27 723.36 1891.13 721.5 1891.11 721.49 1891.14 721.49 1891.14 710.18 1888.51 710.18 1888.51 718.88 1879.8 710.17"/>
            <rect x="1877.95" y="718.11" width="6.06" height="2.63"/>
          </g>
        </g>
        <g>
          <path d="m1879.19,693v-.56h6.73v2.81h-2.24v8.98h2.24v2.81h-6.73v-.56h-.56v-1.12h-.56v-11.22h.56v-1.12h.56Zm3.37,2.24h-2.81v.56h-.56v7.86h.56v.56h2.81v-8.98Z"/>
          <path d="m1880.31,680.65v-.56h5.61v2.81h-5.05v.56h-.56v3.93h.56v.56h.56v.56h4.49v2.81h-6.73v-2.81h1.12v-.56h-.56v-1.12h-.56v-5.05h.56v-1.12h.56Z"/>
          <path d="m1881.43,667.75v6.17h2.81v-.56h.56v-2.81h-.56v-.56h-.56v-2.24h1.12v.56h.56v1.12h.56v5.61h-.56v1.12h-.56v.56h-3.37v2.24h-1.12v-2.24h-1.12v-.56h-.56v-1.12h-.56v-1.12h2.24v-6.17h1.12Z"/>
          <path d="m1880.31,655.96v-.56h1.12v2.81h-.56v.56h-.56v4.49h.56v.56h.56v-.56h.56v-6.17h.56v-1.12h.56v-.56h1.68v.56h.56v1.12h.56v7.86h-.56v1.12h-.56v.56h-1.12v-2.81h.56v-.56h.56v-4.49h-.56v-.56h-.56v.56h-.56v6.17h-.56v1.12h-.56v.56h-1.68v-.56h-.56v-1.12h-.56v-7.86h.56v-1.12h.56Z"/>
          <path d="m1885.92,643.06v2.24h-.56v.56h-.56v.56h.56v1.12h.56v5.05h-.56v1.12h-.56v.56h-4.49v-.56h-.56v-1.12h-.56v-5.05h.56v-1.12h.56v-.56h-1.12v-2.81h6.73Zm-1.68,3.93v-.56h-.56v-.56h-2.24v.56h-.56v.56h-.56v3.93h.56v.56h3.37v-.56h.56v-3.93h-.56Z"/>
          <path d="m1888.49,693v-.56h2.24v.56h.56v1.12h.56v1.12h.56v-.56h.56v-.56h.56v-.56h.56v-.56h.56v-.56h.56v2.81h-.56v.56h-.56v.56h-.56v.56h-.56v.56h-.56v.56h-.56v6.17h3.37v2.81h-7.86v-12.91h.56v-1.12h.56Zm1.68,2.81v-.56h-1.12v.56h-.56v8.42h2.24v-8.42h-.56Z"/>
          <path d="m1895.23,680.09v2.24h-.56v.56h-.56v.56h.56v1.12h.56v5.05h-.56v1.12h-.56v.56h-4.49v-.56h-.56v-1.12h-.56v-5.05h.56v-1.12h.56v-.56h-1.12v-2.81h6.73Zm-1.68,3.93v-.56h-.56v-.56h-2.24v.56h-.56v.56h-.56v3.93h.56v.56h3.37v-.56h.56v-3.93h-.56Z"/>
          <path d="m1890.18,666.63v.56h.56v.56h.56v.56h.56v.56h.56v.56h.56v.56h.56v.56h.56v.56h.56v.56h.56v2.24h-.56v.56h-.56v.56h-.56v.56h-.56v.56h-.56v.56h-.56v.56h-.56v.56h-.56v.56h-.56v.56h-1.68v-1.68h.56v-.56h.56v-.56h.56v-.56h.56v-.56h.56v-.56h.56v-.56h.56v-.56h.56v-1.12h-.56v-.56h-.56v-.56h-.56v-.56h-.56v-.56h-.56v-.56h-.56v-.56h-.56v-.56h-.56v-1.68h1.68Z"/>
          <path d="m1889.61,654.84v-.56h4.49v.56h.56v1.12h.56v7.86h-.56v1.12h-.56v.56h-4.49v-.56h-.56v-1.12h-.56v-7.86h.56v-1.12h.56Zm3.93,7.29h.56v-4.49h-.56v-.56h-3.37v.56h-.56v4.49h.56v.56h3.37v-.56Z"/>
          <path d="m1895.23,641.93v2.24h-.56v.56h-.56v.56h.56v1.12h.56v5.05h-.56v1.12h-.56v.56h-4.49v-.56h-.56v-1.12h-.56v-5.05h.56v-1.12h.56v-.56h-1.12v-2.81h6.73Zm-1.68,3.93v-.56h-.56v-.56h-2.24v.56h-.56v.56h-.56v3.93h.56v.56h3.37v-.56h.56v-3.93h-.56Z"/>
          <path d="m1895.23,636.32v.56h1.12v.56h.56v1.12h.56v2.24h-1.12v-1.12h-.56v-.56h-6.73v-2.81h6.17Zm-8.42.56v-.56h1.12v.56h.56v1.68h-.56v.56h-1.12v-.56h-.56v-1.68h.56Z"/>
          <path d="m1895.23,623.98v2.24h-.56v.56h-.56v.56h.56v1.12h.56v5.05h-.56v1.12h-.56v.56h-4.49v-.56h-.56v-1.12h-.56v-5.05h.56v-1.12h.56v-.56h-1.12v-2.81h6.73Zm-1.68,3.93v-.56h-.56v-.56h-2.24v.56h-.56v.56h-.56v3.93h.56v.56h3.37v-.56h.56v-3.93h-.56Z"/>
          <path d="m1889.61,612.19v-.56h5.61v2.81h-5.05v.56h-.56v3.93h.56v.56h.56v.56h4.49v2.81h-6.73v-2.81h1.12v-.56h-.56v-1.12h-.56v-5.05h.56v-1.12h.56Z"/>
          <path d="m1895.23,599.29v2.24h-.56v.56h-.56v.56h.56v1.12h.56v5.05h-.56v1.12h-.56v.56h-4.49v-.56h-.56v-1.12h-.56v-5.05h.56v-1.12h.56v-.56h-1.12v-2.81h6.73Zm-1.68,3.93v-.56h-.56v-.56h-2.24v.56h-.56v.56h-.56v3.93h.56v.56h3.37v-.56h.56v-3.93h-.56Z"/>
          <path d="m1889.61,587.5v-.56h5.61v2.81h-5.05v.56h-.56v3.93h.56v.56h.56v.56h4.49v2.81h-8.98v-2.81h3.37v-.56h-.56v-1.12h-.56v-5.05h.56v-1.12h.56Z"/>
          <path d="m1895.23,574.6v2.24h-.56v.56h-.56v.56h.56v1.12h.56v5.05h-.56v1.12h-.56v.56h-4.49v-.56h-.56v-1.12h-.56v-5.05h.56v-1.12h.56v-.56h-1.12v-2.81h6.73Zm-1.68,3.93v-.56h-.56v-.56h-2.24v.56h-.56v.56h-.56v3.93h.56v.56h3.37v-.56h.56v-3.93h-.56Z"/>
          <path d="m1889.61,562.81v-.56h2.24v2.81h-1.68v.56h-.56v3.37h.56v1.12h.56v.56h4.49v2.81h-6.73v-2.81h1.12v-.56h-.56v-1.12h-.56v-5.05h.56v-1.12h.56Z"/>
          <path d="m1895.23,549.91v.56h1.12v.56h.56v1.12h.56v7.29h-.56v1.12h-.56v.56h-1.12v-2.81h.56v-.56h.56v-4.49h-.56v-.56h-2.24v.56h.56v.56h.56v6.17h-.56v.56h-.56v.56h-5.05v-2.81h4.49v-.56h.56v-3.93h-.56v-.56h-.56v-.56h-3.93v-2.81h6.73Z"/>
        </g>
      </g>
    </g>
    <text class="cls-11" transform="translate(1890.12 502.56) rotate(-90)"><tspan x="0" y="0">X</tspan></text>
    <image width="3072" height="1536" transform="translate(1856.88 463.52) rotate(-90) scale(.04)" xlink:href="../../04-DOCUMENTS/CONTRAT-CORTEX/CORTEX LOGO COULEUR.png"/>
  </g>
</svg>