<?xml version="1.0" encoding="UTF-8"?>
<svg xmlns="http://www.w3.org/2000/svg" xmlns:xlink="http://www.w3.org/1999/xlink" viewBox="0 0 1920 1080">
  <defs>
    <style>
      .cls-1, .cls-2, .cls-3 {
        fill: #fff;
      }

      .cls-4 {
        letter-spacing: .05em;
      }

      .cls-5 {
        fill: blue;
      }

      .cls-2 {
        font-family: Widy-Thin, Widy;
        font-size: 22.38px;
        font-weight: 200;
      }

      .cls-6 {
        letter-spacing: 0em;
      }

      .cls-7 {
        letter-spacing: .03em;
      }

      .cls-8 {
        letter-spacing: 0em;
      }

      .cls-9 {
        letter-spacing: 0em;
      }

      .cls-10 {
        letter-spacing: .04em;
      }

      .cls-11 {
        letter-spacing: -.02em;
      }

      .cls-3 {
        font-family: MyriadPro-Regular, 'Myriad Pro';
        font-size: 12.13px;
      }

      .cls-12 {
        letter-spacing: .02em;
      }
    </style>
  </defs>
  <g id="Layer_2" data-name="Layer 2">
    <rect x="-11.78" y="-2.39" width="1940.87" height="1086.26"/>
  </g>
  <g id="Layer_1" data-name="Layer 1">
    <g>
      <g>
        <path class="cls-1" d="m1023.87,681.97h0s-10.89,4.99-10.89,4.99h-.01l-6.8-5.92-2.19-1.12,1.95,9.45-1.96-9.44-4.72,2.75-14.21-8.79.97,24.25h2.33c2.28,0,4.51-.07,6.67-.2h.01c10.97-.64,20.53-2.88,28.7-6.71h0c.96-.44,1.91-.92,2.83-1.41,1.48-.8,2.92-1.64,4.29-2.55-2.33-1.76-4.64-3.53-6.97-5.31Zm-56.57,9.47h-4.03l-2.44,2.72-13.53-22.88-19.64-16.86-4.67,3.13-12.2,13.45-8.39,4.28-8.73,12.03-6.65-12.37-4.81-5.53-5.05-10.65-12.04-8.72-5.95-7.99-7.13,10.68-3.87,5.8-5.48,8.23-7.88,11.81c.64.6,1.28,1.19,1.93,1.77h.01c1.49,1.33,2.99,2.6,4.49,3.79,7.95,6.33,16.03,10.73,24.24,13.21,4.76,1.44,9.64,2.55,14.62,3.32,5.95.95,12.07,1.41,18.34,1.41,2.29,0,4.56-.11,6.77-.33,5.51-.53,10.76-1.72,15.79-3.59h64.98l-.99-24.25-17.72,17.54Z"/>
        <path class="cls-1" d="m1053.96,591.31c-2.95-7.51-6.97-13.87-12.08-19.09-5.12-5.23-10.93-9.24-17.47-12.08,5.44-3.04,10.01-6.63,13.72-10.76,3.69-4.13,6.52-9.09,8.48-14.85,1.96-5.76,2.93-12.57,2.93-20.4,0-12.19-2.61-22.57-7.83-31.17-5.23-8.59-12.57-15.17-22.02-19.74-9.47-4.56-20.52-6.85-33.13-6.85h-131.51v52.22h39.49l-47,86.47h33.29c4.57,0,9.03.61,13.37,1.8,4.36,1.2,8,3.21,10.93,6.04,2.95,2.83,4.41,6.75,4.41,11.75,0,3.71-.81,7.08-2.45,10.12-1.63,3.05-4.03,5.49-7.17,7.35-3.16,1.84-6.91,2.77-11.27,2.77s-8.97-.83-13.87-2.45c-4.89-1.63-9.09-4.4-12.56-8.32l-3.07,4.6,5.95,7.99,12.04,8.72,5.05,10.65,4.81,5.53,6.65,12.37,8.73-12.03,8.39-4.28,12.2-13.45,4.67-3.13,19.64,16.86,13.53,22.88,2.44-2.72h4.03l17.72-17.54h.01l14.21,8.79,4.72-2.75h.01s2.19,1.11,2.19,1.11l6.8,5.92h.01l10.89-4.97h0c2.33,1.76,4.64,3.53,6.97,5.29,8.24-5.31,14.71-12.29,19.36-20.96,5.44-10.12,8.16-21.92,8.16-35.41,0-10-1.47-18.76-4.4-26.26Zm-78.82-75.93h6.53c2.61,0,4.73.81,6.36,2.45,1.64,1.63,2.83,4.03,3.59,7.17.76,3.16,1.15,7.13,1.15,11.92,0,4.35-.39,8.11-1.15,11.25-.76,3.16-2.01,5.55-3.75,7.19-1.75,1.63-4.13,2.44-7.19,2.44h-5.55v-42.42Zm17.78,127.93c-1.2,3.48-2.67,5.92-4.4,7.33-1.75,1.43-3.48,2.12-5.23,2.12h-8.16v-49.27h7.19c2.17,0,4.19.71,6.04,2.12,1.84,1.43,3.36,3.92,4.56,7.51,1.2,3.6,1.8,8.65,1.8,15.19s-.6,11.53-1.8,15.01Z"/>
        <g>
          <rect class="cls-1" x="824.33" y="618.44" width="11.46" height="10.29"/>
          <polygon class="cls-1" points="828.93 619.73 829.87 569.02 830.81 619.73 828.93 619.73 828.93 619.73"/>
          <g>
            <g>
              <polygon class="cls-1" points="1073.02 728.51 1073.02 728.49 1073.04 728.51 1073.02 728.51"/>
              <path d="m1091.6,725.79l4.25,7.43-.04-.04-16.27-14.19-3.6-.95-6.72.49h0s3.8,9.96,3.8,9.96l-12.95-9.37-6.72-6.97-14.01-14.11v.03l.73,5.31,7.09,18.57h-.03s-7.27-6.48-7.27-6.48v.03s5.04,9.37,5.04,9.37l3,2.75h0s.43,9.33.43,9.33l-11.87-8.35,2.6-8.96-.03-.13h0s-1.72-9.92-1.72-9.92l-13.61-16.64v-1.72h0c0-.76.01-1.68.01-2.65.03-3,.07-6.45.13-6.6h0c2.33,1.76,4.64,3.53,6.97,5.29.31.24.63.47.93.71l27.28,19.98,13.55,7.21,7.71-.17,26.62,20.6-15.35-9.85v.04Z"/>
              <g>
                <path class="cls-1" d="m1172.21,765.14c-5.21,4.92-10.56,9.64-16.04,14.15h-133.8l-48.92-2.24-24.01-8.41-9.35-4.32-8.09,2.48-7.25-4.2-10.85,3.13-7.21-3.79-8.07,1.72s-12.68-1.27-12.68-1.47c2.8-1.23,5.63-2.4,8.47-3.52l2.44-5.24,15.25-10.03,5.64-8.91,3.11-4.91,5.13-6.05,8.93-10.53,6.97.09,4.35-2.68,10.04-11.2h.01s.97-1.09.97-1.09l3.57-3.99,2.44-2.72h4.03l17.72-17.54.99,24.25.19,4.75,5.91,22.3h.01l12.13,9.95h0s-2.57-18.86-2.57-18.86l-5.92-5.32-7.56-12.81-.16-.27.31.27,11.31,9.69-4.64-9.89-3.4-7.25.04.03,6.57,6.15-3.08-7.59-4.49-6.84h.03s3.09,2.08,3.09,2.08l1.96-1.13,1.35.56,2.17-1.27,4.72-2.75,1.96,9.44,2.71,2.53,4.33-4.95h.01l10.89-4.97c-.07.15-.11,3.6-.13,6.6,0,.97-.01,1.89-.01,2.64h0c-.01,1.05-.01,1.75-.01,1.75l13.61,16.62,1.73,9.91h0s.03.15.03.15l-2.6,8.96h0s11.87,8.35,11.87,8.35l-.43-9.32-3-2.76h-.01l-5.04-9.4h.01v.03s7.27,6.44,7.27,6.44l-7.08-18.54-.73-5.33h.01s14.01,14.09,14.01,14.09l6.72,6.97,12.95,9.39h0s-3.81-9.96-3.81-9.96h.01l6.71-.49,3.61.95,16.29,14.23-.03-.05-4.24-7.41.03.03,15.33,9.81,8.88,6.87,2.51-1,1.93,1.77,5.6,2.01,5.01,2.88.19.11,41.17,16.9Z"/>
                <polygon points="1004.24 735.13 1004.24 735.12 992.11 725.19 986.19 702.88 986.01 698.14 985.03 673.89 999.24 682.67 997.07 683.94 995.72 683.38 993.77 684.51 990.67 682.45 995.14 689.27 998.22 696.86 991.62 690.67 991.65 690.71 995.02 697.94 999.64 707.83 988.34 698.14 988.03 697.87 988.19 698.14 995.75 710.95 1001.67 716.27 1004.26 735.13 1004.24 735.13"/>
              </g>
              <polygon points="1012.98 686.95 1008.63 691.9 1005.92 689.37 1003.98 679.91 1006.16 681.03 1012.96 686.95 1012.98 686.95"/>
            </g>
            <path class="cls-1" d="m1074.9,779.29l-43.22-30.37-29.64-10.16h-.01l-3.57-.04-9.83-11.91-3.04.24-9.25-5.81-4.73.2h-.2s-12.67-11.83-12.67-11.83l2.11-5.07-4.57-5.32-.93-1.09-.93-1.08-6.21-.93-.45-2.16-3.08-.97h-.01l-5.27-10.64-3.69-9.95h0s-1.15-6.11-1.15-6.11l-6.67-3.29h0s-4.88-5.47-4.88-5.47l-12.2,13.45-8.39,4.28-8.73,12.03,5.09,9.45,6.47,4.97,10.04,7.73,1.39,3.13,4.37,2.44,3.84,7.92,1.11.6,5.76,3.07,8.76,9.56-13.24-6.91.63,2.11,1.93,4.57-4.43-3.49-4.43-1.08,6.69,12.61-9.92-9.48-1.04-.99-5.17-8.2-3.43-2.65-.16,2.79-15.93-17.45-5.15-1.27-5.76-4.4-.99-1.69-4.52-7.73-5.99-6.37-3.4.28-7.72-5.69,3.87,7.44-7.19-4.99,1.28,4.25-10.44-5.59.6-4.4-1.67-3.92-1.17.44,1.64-5.43-1.87,1.85-.37-3.89-.48-.16-2.13-.75,2.09-.64-.23-7.59-8.75-6.07-.71,4.95-2.65,3.41.92-7.76,1.85-3.15-1.96-1.48-1.99,2.31-5.16-7.41,3.95-11.31-1.57.81.11-3.35.09-2.59-2.13,1.93-.11.21-3.21,6.33-10.07,13.37-8.03,5.63-5.21,11.24-.76,1.64-8.25,13.53-12.04,9.67-5.45,7.35-10.88,25.21c21.58,23.46,47,42.69,74.85,57.07h239.68l-.05-.04Zm-247.97-107.14l-2.71-2.81-1.23,2.01.56,5.2h0s-4.77-4.15-4.77-4.15h0s-.01-.01-.01-.01l-2.17,4.81-1,2.17-.29-2.71,2.59-5.75.04-3.41-4.09-5.88h0s.09-.71.09-.71l.6-4.48h.01s3.96-7.61,3.96-7.61l5.52,5.55.23,3.29,2.81,3.4h0s.65,5.88.65,5.88l2.91,4.85-1.08,5.15-2.61-4.8Zm28.05,32.98l-7.01-3.69-3.4-2.33-2.65.55-4.39-3.87-2.97-1.11h0s-.28-1.81-.28-1.81l-1.33-1.84,3.84-7.49-.03-3.21v-3.07s0-.01,0-.01l3.65-3.81-1.92,4.95,1.4,2.32,1.37,3.41,1.48,3.69,1.91.76,6.21,6.89.43,2.51,5.15,5.33h0s6.83,6.95,6.83,6.95l-8.28-5.11Zm117.41,47.66h.01s8.81,5.12,8.81,5.12l5.93,7.27-8.21-4.44-4.71-3.04,4.52,1.64-6.37-6.55h.01Zm-9.33-2.28h.01v.03l-6.91-6.12-2-1.17-2.32-4.11-3.68-.69h-.01l1.24,3.76-2.44-.99-3.32,1.72,2.59-3.19-.51-2.83,6.93-2.65,10.41,16.24Zm-5.73-46.74l-2.73,5.91h0s-.01.03-.01.03v-3.09l2.75-2.84Zm-26.53-9.45l1.93-2.68,2.56.52-5.19,5.97-1.16,1.33.48-1.33,1.37-3.81Z"/>
            <path d="m929.83,735.95l-1.93-4.57-.63-2.11,13.24,6.91-8.76-9.56-5.76-3.07-1.11-.6-3.84-7.92-4.37-2.44-1.39-3.13-10.04-7.73-6.47-4.97-5.09-9.45-6.65-12.37-4.81-5.53-5.05-10.65-12.04-8.72-5.95-7.99-.73-.99-5.83-9.21-14.27-9.75h0s-.01,0-.01,0l-.25,4.03,5.03,3.01.44,6.03.59,2.48,1.72,2.68-2.67-.2h0s-.65-2.44-.65-2.44l-7.97-8.63-1.16-.32-2.13-.59h-.03s-1.41-.4-1.41-.4l-3.27-1.6-.09,2.59-.11,3.35,1.57-.81-3.95,11.31,5.16,7.41,1.99-2.31,1.96,1.48-1.85,3.15-.92,7.76,2.65-3.41.71-4.95,8.75,6.07.23,7.59-2.09.64,2.13.75.48.16.37,3.89,1.87-1.85-1.64,5.43,1.17-.44,1.67,3.92-.6,4.4,10.44,5.59-1.28-4.25,7.19,4.99-3.87-7.44,7.72,5.69,3.4-.28,5.99,6.37,4.52,7.73.99,1.69,5.76,4.4,5.15,1.27,15.93,17.45.16-2.79,3.43,2.65,5.17,8.2,1.04.99,9.92,9.48-6.69-12.61,4.43,1.08,4.43,3.49Zm-61.81-54.39h0s-14.03-13.4-14.03-13.4l-3.03-7.05-2.79-2.59-3.08-2.85h0s-3.51-6.89-3.51-6.89l5.89,4.19-2.03-5.17h.01l6.57,4.93.69.52,5.72,7.56,9.59,8.25-.03,12.51Z"/>
            <polygon points="1002.04 738.76 1002.03 738.76 998.47 738.71 988.63 726.81 988.63 726.8 985.59 727.05 976.34 721.23 971.61 721.44 971.41 721.46 958.74 709.62 960.86 704.55 956.29 699.22 955.36 698.14 955.34 698.14 954.42 697.06 954.41 697.06 948.2 696.12 947.76 693.95 944.66 692.99 939.4 682.34 935.69 672.41 935.69 672.39 934.54 666.3 927.88 662.99 923 657.54 927.67 654.41 947.3 671.27 960.84 694.15 961.57 695.39 966.54 695.8 968.05 698.14 976.9 711.87 984.55 718.11 989.41 722.54 1002.04 738.76"/>
            <polygon class="cls-1" points="845.86 640.32 843.19 640.11 842.54 637.68 834.57 629.04 831.28 628.14 838.35 622.08 838.09 626.11 843.12 629.12 843.56 635.16 844.14 637.64 845.86 640.32"/>
            <polygon points="830.63 671.81 829.55 676.96 826.93 672.15 824.22 669.33 823 671.35 823.57 676.57 818.78 672.39 815.6 679.38 815.31 676.67 817.9 670.92 817.94 667.51 813.84 661.63 814.54 656.44 818.5 648.83 824.03 654.37 824.25 657.68 827.07 661.08 827.72 666.95 830.63 671.81"/>
            <polygon points="863.3 710.27 854.98 705.13 847.97 701.44 844.57 699.1 841.92 699.65 837.53 695.78 834.56 694.68 834.28 692.87 832.94 691.03 836.79 683.54 836.75 677.25 840.42 673.42 838.5 678.38 839.89 680.7 842.75 687.81 844.65 688.56 850.87 695.45 851.3 697.96 856.43 703.3 863.3 710.27"/>
            <polygon class="cls-1" points="868.05 669.05 868.03 681.57 853.99 668.15 850.97 661.1 845.1 655.65 841.59 648.77 847.49 652.96 845.46 647.77 852.74 653.23 858.46 660.8 868.05 669.05"/>
            <polygon points="963.08 750.54 956.17 744.42 954.17 743.25 951.86 739.14 948.17 738.45 949.41 742.21 946.96 741.22 943.64 742.94 946.23 739.76 945.72 736.93 952.65 734.27 963.08 750.54"/>
            <polygon points="987.16 765.18 978.95 760.73 974.24 757.7 978.78 759.35 972.39 752.79 981.23 757.92 987.16 765.18"/>
            <polygon points="957.35 703.75 954.59 709.7 954.59 706.61 957.35 703.75"/>
            <polygon points="935.3 692.16 928.95 699.47 930.8 694.33 932.73 691.63 935.3 692.16"/>
          </g>
        </g>
        <g>
          <polygon class="cls-1" points="1033.12 348.57 1094.5 398.28 1064.59 437.25 1047.42 423.18 1034.4 435.56 1012.3 417.66 1021.8 402.2 1004.36 387.92 1033.12 348.57"/>
          <polygon class="cls-1" points="1100.3 390.74 1038.73 340.89 1154.78 182.11 1216.76 226.1 1100.3 390.74"/>
        </g>
        <g>
          <path class="cls-1" d="m1156.18,779.28c-55.34,45.54-124.15,70.31-196.75,70.31-44.25,0-86.99-9.12-127.04-27.1-25.22-11.33-48.54-25.78-69.69-43.17-6.69-5.49-13.16-11.28-19.41-17.34l17.15-39.73c21.58,23.46,47,42.69,74.85,57.07h239.68l-.05-.04h81.27Z"/>
          <path class="cls-1" d="m1269.74,539.28c0,82.88-32.28,160.82-90.9,219.43-2.19,2.19-4.39,4.33-6.63,6.43-5.21,4.92-10.56,9.64-16.04,14.15h-72.45c16.81-8.75,32.6-19.2,47.13-31.16,60.34-49.61,98.88-124.8,98.88-208.85,0-92.59-46.61-177.73-124.67-227.76l21.58-33.68c89.59,57.42,143.08,155.16,143.08,261.44Z"/>
        </g>
      </g>
      <g>
        <path class="cls-1" d="m635.46,479.71l-.87,6.47-13.38,8.92-.98,7.31,11.96,1.6-.74,5.53-34.63-4.63c.72-5.38,1.49-10.71,2.22-16.09,1.08-8,7.13-11.46,12.96-10.68,4.94.66,9.44,3.88,9.51,10.82l12.9-8.78,1.07-.46Zm-32.82,20.34l12.55,1.68,1.42-10.52c.62-4.59-2.02-7.01-5.28-7.44-3.11-.41-6.65,1.17-7.26,5.72l-1.42,10.57Z"/>
        <path class="cls-1" d="m645.47,440.52l-6.79,24.86c-11.21-3.03-22.47-6.08-33.68-9.12l6.75-24.71,5.25,1.42-5.28,19.33,9.1,2.46,5.07-18.56,5.01,1.35-5.07,18.56,9.05,2.45,5.32-19.47,5.29,1.43Z"/>
        <path class="cls-1" d="m633.8,395.63c-2.85.6-5.47,3.14-6.92,6.47-1.81,4.33-1.32,8.2,1.76,9.47,3.13,1.3,5.5-1.93,7.87-5.92,3.69-6.24,8.17-11.78,15.39-8.8,7.21,3.04,7.17,10.74,4.37,17.45-2.58,6.17-6.44,10.12-13.1,10.82l-.96-4.93c4.88-.68,7.93-4.11,9.49-7.84,1.61-3.87,2.11-8.68-1.94-10.35-3.5-1.44-6.25,1.79-8.73,6.05-3.55,6.03-7.7,11.44-14.6,8.59-6.7-2.72-6.48-10.45-4.06-16.25,1.94-4.65,4.99-8.84,10.45-9.76l.99,5Z"/>
        <path class="cls-1" d="m680.86,364.78l-12.88,22.35c-10.07-5.76-20.19-11.54-30.26-17.3l12.8-22.22,4.71,2.69-10.02,17.38,8.17,4.67,9.62-16.69,4.49,2.57-9.62,16.69,8.13,4.65,10.09-17.51,4.76,2.72Z"/>
        <path class="cls-1" d="m698.67,327.8l-11.54,14.98,3.81,7.05-3.62,4.7-18.13-33.58,3.72-4.82,37.25,8.76-3.62,4.7-7.85-1.8Zm-22.96-5.69l8.67,15.92,9.01-11.7-17.68-4.22Z"/>
        <path class="cls-1" d="m741.08,293.7l-4.67,4.58-16.05-1.12-5.28,5.18,8.45,8.57-3.99,3.92-24.48-24.83c3.88-3.81,7.77-7.55,11.66-11.36,5.77-5.67,12.68-4.7,16.8-.52,3.49,3.54,5.06,8.83.84,14.37l15.59.95,1.12.29Zm-38.42-3.98l8.87,9,7.59-7.45c3.31-3.25,2.72-6.78.41-9.11-2.2-2.23-5.97-3.14-9.24.08l-7.63,7.48Z"/>
        <path class="cls-1" d="m773.29,263.19c-.77,4.98-3.51,9.06-7.43,11.99-10.18,7.58-19.97,4.02-25.49-3.27-5.53-7.29-6.17-18.16,3.84-25.62,3.77-2.81,8.46-4.13,13.42-3.43l-.86,5.11c-3.46-.46-6.79.6-9.4,2.54-7.13,5.32-6.47,12.95-2.58,18.05,3.86,5.06,10.69,7.85,17.94,2.45,2.6-1.94,4.68-5.17,5.19-8.58l5.38.77Z"/>
        <path class="cls-1" d="m809.5,247.37l-6.97-12.67-16.21,8.89,6.97,12.67-4.91,2.69-16.77-30.48,4.91-2.69,7.31,13.28,16.21-8.89-7.31-13.28,4.86-2.67,16.78,30.48-4.86,2.67Z"/>
      </g>
      <g>
        <path class="cls-1" d="m645.36,697.8l4.55,9.13-2.11,1.05-5.59-11.22,18.24-9.06,1.04,2.09-16.13,8.01Z"/>
        <path class="cls-1" d="m658.21,721.92c-2.15-.32-4.02-1.91-5.03-3.71-2.02-3.57-.86-7.51,3.11-9.75,3.78-2.13,7.9-1.16,9.86,2.31,1.99,3.52,1.15,7.53-4.1,9.9l-5.53-9.79c-2.19,1.51-2.64,4.07-1.39,6.29.73,1.3,2.19,2.58,3.64,2.77l-.54,2v-.02Zm4.53-4.04c2.38-1.46,2.83-3.74,1.55-6.01-1.13-2.01-3.44-3.01-6.03-1.98l4.51,7.97h-.03Z"/>
        <path class="cls-1" d="m676.87,729.23l1.17,1.72-2.23,1.64c2.18-.21,4.19.78,5.36,2.5,2.06,3.19,1.22,7.12-2.44,9.6-3.76,2.55-7.74,1.91-9.96-1.36-1.05-1.55-1.51-3.76-.41-5.77l-7.75,5.25-1.21-1.77,17.45-11.83Zm.59,13.69c2.67-1.81,3.17-4.5,1.65-6.74-1.55-2.28-4.43-2.59-6.86-.94-2.43,1.65-3.16,4.5-1.68,6.73,1.49,2.19,4.23,2.76,6.9.95Z"/>
        <path class="cls-1" d="m683.22,762.69l2.05-1.63c-2.21.37-4.16-.66-5.27-2.1-2.31-3.02-1.85-7.11,1.87-9.96,3.7-2.83,7.75-2.12,10.03.9,1.2,1.58,1.6,3.73.71,5.62l2.09-1.57,1.3,1.7-11.41,8.72-1.29-1.68h-.08Zm6.92-11.36c-1.6-2.08-4.5-2.52-7.04-.58-2.54,1.94-2.9,4.88-1.3,6.96,3.87,5.06,12.24-1.33,8.38-6.37h-.04Z"/>
        <path class="cls-1" d="m701.52,762.26l-1.54,1.51c2.01-.51,3.46.4,4.45,1.57.77.86,1.16,2,1.17,3.04l-2.2.56c-.05-.87-.3-1.57-.89-2.26-1.39-1.6-3.78-1.9-5.79-.19l-6.11,5.16-1.42-1.68,10.98-9.26,1.31,1.55h.04Z"/>
        <path class="cls-1" d="m711.69,773.91l2.77,3.02-1.51,1.38-2.78-3.04-5.61,5.12c-1.25,1.14-1.7,2.24-.64,3.41.4.43,1,.79,1.64,1.01l-1.03,1.81c-.92-.36-1.63-.79-2.25-1.43-1.96-2.05-1.53-4.26.81-6.39l5.61-5.12-1.79-1.95,1.5-1.38,1.79,1.96,2.93-2.67,1.68,1.44-3.12,2.84Z"/>
        <path class="cls-1" d="m717.94,797.63c-2.16.27-4.39-.76-5.85-2.21-2.9-2.89-2.85-6.99.37-10.22,3.06-3.07,7.29-3.25,10.11-.43,2.87,2.85,3.14,6.94-1.28,10.64l-7.96-7.93c-1.7,2.04-1.45,4.63.35,6.43,1.06,1.06,2.8,1.89,4.25,1.69v2.07s0-.02,0-.02Zm3.28-5.11c1.9-2.05,1.71-4.37-.13-6.2-1.63-1.62-4.12-1.97-6.34-.28l6.49,6.46-.02.02Z"/>
        <path class="cls-1" d="m731.15,793.48l1.5,1.34-1.45,1.79c2-.51,3.72-.03,5.04,1.15,2.5,2.23,2.7,5.69-.12,8.84l-5.3,5.92-1.63-1.47,5.28-5.89c1.84-2.06,1.87-4.34,0-6.01-1.82-1.59-4.43-1.16-6.16.77l-5.14,5.74-1.62-1.44,9.59-10.71.02-.02Z"/>
        <path class="cls-1" d="m744.71,823.97l1.6-2.08c-2.05.89-4.21.36-5.63-.77-2.97-2.38-3.51-6.46-.58-10.12,2.91-3.63,7.02-3.93,9.95-1.54,1.55,1.24,2.45,3.23,2.05,5.29l1.66-2.03,1.68,1.34-8.99,11.22-1.65-1.32h-.08Zm3.98-12.68c-2.05-1.64-4.97-1.37-6.97,1.13-2,2.5-1.64,5.43.41,7.07,4.98,3.98,11.56-4.24,6.6-8.21h-.04Z"/>
        <path class="cls-1" d="m760.59,817.83l1.77,1.3-8.55,11.61-1.77-1.3,8.55-11.61Zm2.31-3.68c-1.24,1.69,1.09,3.4,2.31,1.74,1.24-1.68-1.09-3.4-2.31-1.74Z"/>
        <path class="cls-1" d="m769.2,824.04l-1.09,1.86c1.81-1.02,3.45-.53,4.7.34.97.63,1.65,1.62,1.93,2.63l-1.97,1.12c-.28-.83-.7-1.43-1.45-1.95-1.76-1.18-4.13-.83-5.64,1.35l-4.54,6.59-1.81-1.24,8.15-11.84,1.68,1.15h.04Z"/>
        <path class="cls-1" d="m782.33,846.98c-2.05.75-4.45.24-6.2-.84-3.48-2.17-4.36-6.18-1.95-10.05,2.29-3.68,6.37-4.8,9.76-2.69,3.43,2.14,4.62,6.06,1.16,10.66l-9.55-5.95c-1.19,2.37-.37,4.84,1.79,6.18,1.28.8,3.16,1.21,4.52.69l.48,2.01h-.02Zm2.04-5.73c1.39-2.43.68-4.64-1.52-6.02-1.96-1.22-4.46-1-6.24,1.15l7.78,4.84v.03Z"/>
        <path class="cls-1" d="m816.5,845l-9.31,18.11-1.83-.94,1.1-2.38c-1.86,1.27-4,1.22-5.73.32-3.35-1.73-4.71-5.47-2.54-9.69,2.21-4.3,6-5.29,9.33-3.57,1.67.86,3.14,2.67,3.09,4.83l3.93-7.66,1.93.99h.04Zm-9.82,3.89c-2.29-1.18-4.98-.5-6.53,2.5-1.51,2.95-.52,5.59,1.76,6.77,2.33,1.2,5.12.28,6.55-2.51,1.41-2.74.51-5.56-1.82-6.76h.03Z"/>
        <path class="cls-1" d="m825.51,869.03c-1.93,1.02-4.37.85-6.25.01-3.74-1.68-5.15-5.53-3.29-9.7,1.77-3.96,5.66-5.63,9.29-4.01,3.69,1.65,5.39,5.38,2.59,10.41l-10.26-4.59c-.86,2.52.29,4.85,2.61,5.89,1.37.61,3.29.77,4.57.07l.75,1.93h-.02Zm1.25-5.96c1.04-2.59.05-4.7-2.32-5.76-2.1-.94-4.55-.38-6.02,1.99l8.35,3.74v.03Z"/>
        <path class="cls-1" d="m842.03,878l-2.06-.76,7.05-19.11,2.06.76-7.05,19.11Z"/>
        <path class="cls-1" d="m859.11,883.87l.75-2.51c-1.6,1.56-3.79,1.83-5.52,1.27-3.62-1.17-5.57-4.8-4.13-9.26,1.42-4.43,5.16-6.16,8.74-4.97,1.89.61,3.44,2.16,3.79,4.23l.83-2.49,2.04.66-4.4,13.68-2.01-.65-.07.04Zm-.78-13.28c-2.5-.81-5.13.48-6.11,3.52-.98,3.05.4,5.67,2.89,6.47,6.06,1.96,9.29-8.07,3.25-10.02l-.04.02Z"/>
        <path class="cls-1" d="m886.32,883.52l-4.43-1.01-1.63,7.15-2.27-.52,4.52-19.87,8.29,1.9c4.12.95,5.47,4.54,4.74,7.78-.66,3.02-2.81,5.48-6.65,4.96l4.36,8.73-2.87-.66-4.06-8.46Zm6.93-5.04c.48-1.98-.32-4.5-2.96-5.1l-6.02-1.38-1.88,8.29,5.92,1.36c2.74.63,4.43-.93,4.94-3.17Z"/>
        <path class="cls-1" d="m910.89,893.4c-1.6,1.47-4.01,1.92-6.05,1.57-4.04-.69-6.37-4.07-5.61-8.58.72-4.28,4.06-6.87,7.99-6.2,3.98.68,6.57,3.87,5.12,9.44l-11.09-1.89c-.2,2.66,1.5,4.63,4.01,5.06,1.48.25,3.38-.07,4.44-1.08l1.21,1.68h-.03Zm-.28-6.08c.36-2.78-1.13-4.57-3.69-5-2.27-.39-4.5.77-5.33,3.44l9.03,1.54v.03Z"/>
        <path class="cls-1" d="m928.68,896c-1.59,1.37-3.34,1.84-5.14,1.62-3.75-.44-6.55-3.44-6.01-8.21.55-4.77,3.91-7.05,7.71-6.6,1.78.21,3.3,1.06,4.51,2.7l-1.56,1.4c-.81-1.09-1.99-1.7-3.15-1.84-2.61-.31-4.93,1.39-5.3,4.6-.38,3.32,1.53,5.4,4.08,5.7,1.25.15,2.55-.17,3.6-1.1l1.28,1.76-.02-.03Z"/>
        <path class="cls-1" d="m937.95,878.33l-.53,8.34c1.24-1.81,3.04-2.33,4.72-2.25,3.71.25,5.36,3.04,5.1,6.99l-.5,7.9-2.16-.14.5-7.87c.18-2.82-1.06-4.51-3.46-4.67-2.4-.16-4.3,1.79-4.46,4.4l-.48,7.61-2.19-.15,1.29-20.34,2.16.14v.03Z"/>
        <path class="cls-1" d="m965.72,897.41c-1.35,1.7-3.67,2.52-5.73,2.49-4.1-.05-6.93-3.03-6.89-7.6.04-4.34,2.93-7.42,6.92-7.37,4.04.05,7.1,2.79,6.53,8.53l-11.24-.14c.22,2.66,2.21,4.34,4.75,4.37,1.5.02,3.32-.6,4.22-1.75l1.46,1.47h-.03Zm-1.23-5.96c-.08-2.8-1.83-4.33-4.43-4.36-2.3-.03-4.32,1.46-4.73,4.23l9.16.11v.03Z"/>
        <path class="cls-1" d="m974.17,885.09l.24,2.15c.84-1.89,2.45-2.48,3.97-2.53,1.15-.07,2.29.33,3.11.97l-.92,2.07c-.71-.5-1.42-.74-2.33-.7-2.11.1-3.81,1.8-3.71,4.45l.31,8-2.19.08-.55-14.38,2.03-.07.02-.03Z"/>
        <path class="cls-1" d="m997.6,896.13c-1.29,1.65-2.92,2.45-4.73,2.59-3.76.3-7.1-2.09-7.49-6.88-.38-4.79,2.47-7.67,6.28-7.98,1.79-.14,3.44.4,4.95,1.77l-1.26,1.68c-1.02-.91-2.28-1.28-3.45-1.18-2.61.21-4.57,2.32-4.31,5.54.27,3.34,2.55,5,5.12,4.79,1.25-.1,2.47-.66,3.32-1.78l1.6,1.48-.03-.03Z"/>
        <path class="cls-1" d="m1003.2,876.98l1.1,8.29c.86-2.03,2.53-2.89,4.2-3.14,3.69-.48,5.84,1.94,6.36,5.86l1.05,7.86-2.15.28-1.04-7.82c-.37-2.81-1.91-4.22-4.3-3.91-2.39.31-3.87,2.6-3.52,5.2l1.01,7.57-2.18.28-2.68-20.22,2.15-.28v.03Z"/>
        <path class="cls-1" d="m1034.2,890.29c-.98,1.94-3.08,3.2-5.1,3.59-4.02.77-7.39-1.58-8.26-6.07-.83-4.26,1.39-7.85,5.3-8.6,3.97-.76,7.5,1.32,8.09,7.05l-11.02,2.11c.74,2.55,3.03,3.81,5.52,3.33,1.47-.28,3.14-1.25,3.78-2.56l1.72,1.15h-.03Zm-2.39-5.59c-.63-2.72-2.66-3.88-5.21-3.39-2.26.43-3.94,2.29-3.78,5.08l8.98-1.72v.03Z"/>
        <path class="cls-1" d="m1058.87,880.09l-.46.13-9.37-8.14,4.59,16.14-2.21.62-5.57-19.62,2.67-.75,9.2,8.31,3.41-11.85,2.68-.75,5.57,19.62-2.21.62-4.57-16.09-3.72,11.76Z"/>
        <path class="cls-1" d="m1086.54,871.27l-10.55,3.71c1.13,2.44,3.53,3.37,5.92,2.52,1.41-.49,2.91-1.7,3.36-3.09l1.87.89c-.69,2.06-2.57,3.62-4.51,4.31-3.86,1.36-7.54-.47-9.08-4.78-1.45-4.09.2-7.98,3.94-9.29,3.81-1.34,7.62.2,9.07,5.8l-.02-.06Zm-11.17,1.86l8.58-3.02c-1.04-2.6-3.21-3.44-5.66-2.58-2.17.76-3.5,2.84-2.93,5.57v.03Zm.1-9.24l.05.14,1.9-.67,1.25-4.45-.02-.06-2.55.9-.63,4.14Z"/>
        <path class="cls-1" d="m1098.66,851.03l7.88,18.82-1.9.79-1.11-2.38c-.22,2.24-1.64,3.84-3.44,4.59-3.48,1.45-7.22.07-9.05-4.31-1.87-4.46-.19-8.01,3.26-9.44,1.73-.72,4.06-.68,5.68.76l-3.33-7.96,2-.83v-.04Zm-3.32,10.04c-2.37.99-3.58,3.48-2.27,6.6,1.28,3.07,3.94,4.01,6.31,3.02,2.42-1.01,3.51-3.73,2.29-6.64-1.19-2.85-3.93-3.98-6.35-2.98h.02Z"/>
        <path class="cls-1" d="m1107.29,848.87c.88,1.87-1.74,3.09-2.63,1.19-.88-1.87,1.74-3.09,2.63-1.19Zm5.65,18.08l1.99-.93-6.14-13.09-1.99.93,6.14,13.09Z"/>
        <path class="cls-1" d="m1130.03,856.33c-.56,2.02-1.75,3.38-3.36,4.21-3.35,1.72-7.35.78-9.55-3.5-2.2-4.28-.68-8.04,2.72-9.77,1.59-.81,3.33-.95,5.24-.26l-.52,2.03c-1.28-.45-2.59-.31-3.64.22-2.33,1.19-3.31,3.89-1.83,6.77,1.53,2.98,4.27,3.64,6.56,2.47,1.11-.57,2.02-1.56,2.37-2.91l2.04.76h-.04Z"/>
        <path class="cls-1" d="m1145.47,849.91l-1.37-2.24c.1,2.23-1.17,4.05-2.74,4.96-3.29,1.9-7.29.91-9.65-3.14-2.35-4.04-1.14-7.97,2.13-9.83,1.71-.99,3.9-1.11,5.67.02l-1.29-2.28,1.85-1.07,7.25,12.46-1.82,1.06-.02.08Zm-10.42-8.33c-2.26,1.31-3.06,4.13-1.45,6.91,1.62,2.77,4.48,3.51,6.75,2.19,5.51-3.19.19-12.31-5.29-9.14v.04Z"/>
        <path class="cls-1" d="m1155.25,843.75l-1.85,1.18-10.98-17.19,1.85-1.18,10.98,17.19Z"/>
        <path class="cls-1" d="m1169.59,831.28c-.11,2.17-1.52,4.18-3.21,5.35-3.36,2.33-7.38,1.55-10-2.21-2.48-3.56-1.91-7.75,1.35-10.03,3.31-2.3,7.38-1.83,10.25,3.17l-9.21,6.41c1.71,2.04,4.31,2.26,6.39.81,1.23-.85,2.35-2.42,2.41-3.88l2.04.36h-.02Zm-4.45-4.13c-1.69-2.23-4-2.47-6.13-.99-1.89,1.31-2.66,3.7-1.39,6.18l7.5-5.21.02.02Z"/>
        <path class="cls-1" d="m1181.25,799.1l12.99,15.72-1.59,1.31-1.75-1.95c.44,2.21-.45,4.15-1.96,5.39-2.91,2.4-6.88,2.16-9.9-1.5-3.08-3.73-2.5-7.61.38-9.99,1.44-1.19,3.69-1.83,5.65-.92l-5.49-6.65,1.67-1.38v-.04Zm-.28,10.58c-1.98,1.63-2.42,4.37-.27,6.98,2.12,2.56,4.93,2.7,6.91,1.06,2.02-1.67,2.27-4.59.27-7.02-1.97-2.38-4.91-2.67-6.93-1.01h.02Z"/>
        <path class="cls-1" d="m1207.82,802.64l-1.82-1.89c.58,2.16-.25,4.21-1.58,5.44-2.79,2.58-6.9,2.5-10.1-.94-3.17-3.42-2.86-7.52-.08-10.06,1.45-1.34,3.56-1.94,5.53-1.23l-1.76-1.94,1.57-1.45,9.8,10.56-1.55,1.44v.08Zm-11.98-5.83c-1.92,1.78-2.08,4.71.1,7.06,2.18,2.35,5.14,2.44,7.06.66,4.66-4.32-2.51-12.06-7.16-7.75v.04Z"/>
        <path class="cls-1" d="m1204.19,785.98l1.39-1.44,1.73,1.52c-.44-2.02.1-3.72,1.33-4.99,2.32-2.41,5.79-2.48,8.83.46l5.74,5.52-1.52,1.58-5.71-5.5c-2-1.92-4.28-2.03-6.02-.23-1.65,1.75-1.3,4.38.57,6.18l5.56,5.36-1.5,1.56-10.38-9.98-.02-.02Z"/>
        <path class="cls-1" d="m1225.05,768.12c-1.61.12-2.6.85-3.49,1.88-1.22,1.35-1.66,2.92-.56,3.83,1.14.96,2.52.03,3.76-1.08,1.82-1.6,4.33-3.67,6.97-1.3,2.14,1.93,1.57,4.77-.38,7-1.45,1.67-3.4,2.88-5.92,2.67l-.43-2.04c1.96.15,3.69-.86,4.76-2.09.95-1.09,1.79-2.8.51-3.99-1.17-1.05-2.54-.19-4.07,1.17-1.93,1.69-4.27,3.26-6.58,1.25-2.33-1.99-1.37-4.91.32-6.81,1.3-1.49,2.77-2.38,4.75-2.52l.36,1.98v.04Z"/>
        <path class="cls-1" d="m1245.74,760.27l-1.33,1.73-16.19-12.44,1.33-1.73,16.18,12.44Z"/>
        <path class="cls-1" d="m1254.96,743.64c.63,2.08,0,4.44-1.19,6.12-2.36,3.33-6.41,3.96-10.15,1.33-3.55-2.51-4.45-6.64-2.15-9.89,2.33-3.29,6.31-4.23,10.72-.5l-6.47,9.15c2.31,1.33,4.82.66,6.28-1.41.86-1.22,1.38-3.07.94-4.47l2.04-.36-.02.02Zm-5.6-2.39c-2.35-1.53-4.6-.97-6.1,1.15-1.33,1.87-1.24,4.38.81,6.29l5.27-7.46.02.02Z"/>
        <path class="cls-1" d="m1253.46,715.55c-1.2,2.05-1.62,4.75.52,6.01,1.91,1.13,3.64-.54,5.46-2.66,2.45-2.89,5.02-5.65,8.99-3.3,3.93,2.35,3.18,6.56,1.36,9.63-1.68,2.85-4.41,4.89-8.08,4.4l-.08-2.28c2.7.2,4.97-1.37,6.14-3.35,1.15-1.95,2.01-4.95-.58-6.48-2.17-1.32-4.13.57-5.96,2.74-2.36,2.79-4.91,5.34-8.48,3.24-3.69-2.12-2.93-6.29-1.29-9.06,1.41-2.39,3.28-4.36,6.78-4.21l.13,2.12c-2.05-.03-3.85,1.42-4.93,3.19Z"/>
        <path class="cls-1" d="m1281.08,703.72l-2.09-.96c1.01,1.85.96,3.6.14,5.25-1.54,2.99-4.84,3.97-8.57,2.04l-7.07-3.66,1.01-1.94,7.04,3.65c2.46,1.27,4.67.73,5.83-1.5,1.08-2.15,0-4.57-2.31-5.77l-6.86-3.55,1-1.94,12.79,6.62-.93,1.8v-.02Z"/>
        <path class="cls-1" d="m1271.81,675.12l18.64,8.35-.84,1.88-2.44-.98c1.37,1.79,1.44,3.92.65,5.7-1.54,3.44-5.2,4.98-9.54,3.04-4.42-1.98-5.63-5.71-4.1-9.12.76-1.71,2.48-3.27,4.65-3.33l-7.88-3.53.88-1.97-.02-.04Zm4.47,9.61c-1.05,2.34-.22,4.99,2.87,6.38,3.04,1.36,5.62.23,6.66-2.1,1.07-2.39-.01-5.13-2.88-6.41-2.82-1.26-5.59-.22-6.66,2.17v-.02Z"/>
        <path class="cls-1" d="m1287.76,664.52l2.13.82-3.45,8.92-2.12-.82,3.44-8.93Z"/>
        <path class="cls-1" d="m1295.11,640.58c5.07,1.66,9.1,6.16,7.15,12.27-1.96,6.11-7.84,7.47-12.94,5.83-5.63-1.81-8.99-6.71-7.19-12.33,1.96-6.03,7.86-7.44,12.98-5.76Zm-10.76,6.48c-1.45,4.53,1.44,8.04,5.68,9.41,3.94,1.27,8.47.31,9.97-4.37,1.5-4.68-1.76-8.06-5.59-9.29-3.93-1.3-8.5-.38-10.05,4.26Z"/>
        <path class="cls-1" d="m1309.03,627.29l-2.26-.47c1.41,1.57,1.76,3.29,1.33,5.08-.83,3.26-3.81,4.96-7.88,3.92l-7.71-1.97.53-2.12,7.68,1.96c2.68.68,4.72-.34,5.33-2.78.56-2.34-1.04-4.45-3.55-5.09l-7.48-1.91.53-2.12,13.96,3.55-.5,1.97v-.02Z"/>
        <path class="cls-1" d="m1311.13,606.21c1.43,1.65,1.81,4.07,1.42,6.09-.79,4.01-4.23,6.25-8.72,5.36-4.26-.84-6.77-4.26-6-8.16.78-3.96,4.03-6.44,9.56-4.83l-2.16,11.01c2.65.28,4.66-1.36,5.15-3.85.29-1.47.01-3.38-.96-4.47l1.72-1.16v.03Zm-6.09.1c-2.76-.44-4.59.99-5.09,3.54-.44,2.25.65,4.52,3.3,5.42l1.77-8.97h.03Z"/>
        <path class="cls-1" d="m1304.67,589.69c-1.29.97-1.72,2.13-1.92,3.48-.29,1.79.2,3.35,1.61,3.54,1.47.19,2.14-1.34,2.57-2.95.66-2.34,1.64-5.44,5.15-4.86,2.85.47,3.9,3.17,3.48,6.1-.32,2.2-1.29,4.27-3.53,5.45l-1.46-1.49c1.72-.94,2.63-2.72,2.86-4.34.21-1.43-.02-3.32-1.74-3.63-1.55-.26-2.24,1.21-2.79,3.18-.71,2.46-1.82,5.06-4.85,4.61-3.03-.42-3.81-3.4-3.42-5.91.28-1.96,1.04-3.49,2.62-4.69l1.38,1.47.02.03Z"/>
        <path class="cls-1" d="m1302.79,578.35l.42-4.07,2.02.21-.42,4.1,7.56.78c1.68.18,2.81-.22,2.96-1.78.06-.58-.07-1.27-.33-1.89l2.03-.43c.35.92.49,1.74.43,2.62-.23,2.82-2.16,3.96-5.32,3.64l-7.56-.79-.27,2.63-2.03-.21.27-2.63-3.94-.41-.04-2.21,4.2.44Z"/>
      </g>
      <path class="cls-1" d="m960.89,866.26c-87.15,0-169.08-33.94-230.7-95.56-61.62-61.62-95.56-143.55-95.56-230.7s33.94-169.08,95.56-230.7c61.62-61.62,143.55-95.56,230.7-95.56s169.08,33.94,230.7,95.56c61.62,61.62,95.56,143.55,95.56,230.7s-33.94,169.08-95.56,230.7c-61.62,61.62-143.56,95.56-230.7,95.56Zm0-647.21c-176.97,0-320.95,143.98-320.95,320.95s143.98,320.95,320.95,320.95,320.95-143.98,320.95-320.95-143.98-320.95-320.95-320.95Z"/>
      <path class="cls-1" d="m960,912.17c-99.41,0-192.87-38.71-263.17-109.01-70.29-70.29-109.01-163.76-109.01-263.17s38.71-192.87,109.01-263.17c70.29-70.29,163.76-109.01,263.17-109.01s192.87,38.71,263.17,109.01c70.29,70.29,109.01,163.76,109.01,263.17s-38.71,192.87-109.01,263.17c-70.29,70.29-163.76,109.01-263.17,109.01Zm0-743.07c-204.51,0-370.89,166.38-370.89,370.89s166.38,370.89,370.89,370.89,370.89-166.38,370.89-370.89-166.38-370.89-370.89-370.89Z"/>
    </g>
    <text class="cls-2" transform="translate(1647.52 45.31)"><tspan class="cls-11" x="0" y="0">v</tspan><tspan class="cls-12" x="17.03" y="0">e</tspan><tspan class="cls-7" x="35.07" y="0">r</tspan><tspan class="cls-4" x="47.14" y="0">s</tspan><tspan class="cls-9" x="62.98" y="0">io</tspan><tspan x="86.86" y="0">n </tspan><tspan class="cls-8" x="111.64" y="0">w</tspan><tspan class="cls-10" x="139.13" y="0">h</tspan><tspan class="cls-9" x="157.39" y="0">i</tspan><tspan class="cls-6" x="162.9" y="0">te</tspan></text>
    <g>
      <g>
        <rect class="cls-1" x="1869.3" y="541.3" width="34.52" height="201.4"/>
        <g>
          <g>
            <g>
              <polygon class="cls-5" points="1882.11 722.59 1882.12 722.61 1882.09 722.61 1882.09 733.91 1884.72 733.91 1884.72 725.21 1893.44 733.93 1895.3 732.06 1883.97 720.73 1882.11 722.59"/>
              <rect class="cls-5" x="1889.22" y="723.35" width="6.06" height="2.63"/>
            </g>
            <g>
              <polygon points="1879.8 710.17 1877.93 712.03 1889.27 723.36 1891.13 721.5 1891.11 721.49 1891.14 721.49 1891.14 710.18 1888.51 710.18 1888.51 718.88 1879.8 710.17"/>
              <rect x="1877.95" y="718.11" width="6.06" height="2.63"/>
            </g>
          </g>
          <g>
            <path d="m1879.19,693v-.56h6.73v2.81h-2.24v8.98h2.24v2.81h-6.73v-.56h-.56v-1.12h-.56v-11.22h.56v-1.12h.56Zm3.37,2.24h-2.81v.56h-.56v7.86h.56v.56h2.81v-8.98Z"/>
            <path d="m1880.31,680.65v-.56h5.61v2.81h-5.05v.56h-.56v3.93h.56v.56h.56v.56h4.49v2.81h-6.73v-2.81h1.12v-.56h-.56v-1.12h-.56v-5.05h.56v-1.12h.56Z"/>
            <path d="m1881.43,667.75v6.17h2.81v-.56h.56v-2.81h-.56v-.56h-.56v-2.24h1.12v.56h.56v1.12h.56v5.61h-.56v1.12h-.56v.56h-3.37v2.24h-1.12v-2.24h-1.12v-.56h-.56v-1.12h-.56v-1.12h2.24v-6.17h1.12Z"/>
            <path d="m1880.31,655.96v-.56h1.12v2.81h-.56v.56h-.56v4.49h.56v.56h.56v-.56h.56v-6.17h.56v-1.12h.56v-.56h1.68v.56h.56v1.12h.56v7.86h-.56v1.12h-.56v.56h-1.12v-2.81h.56v-.56h.56v-4.49h-.56v-.56h-.56v.56h-.56v6.17h-.56v1.12h-.56v.56h-1.68v-.56h-.56v-1.12h-.56v-7.86h.56v-1.12h.56Z"/>
            <path d="m1885.92,643.06v2.24h-.56v.56h-.56v.56h.56v1.12h.56v5.05h-.56v1.12h-.56v.56h-4.49v-.56h-.56v-1.12h-.56v-5.05h.56v-1.12h.56v-.56h-1.12v-2.81h6.73Zm-1.68,3.93v-.56h-.56v-.56h-2.24v.56h-.56v.56h-.56v3.93h.56v.56h3.37v-.56h.56v-3.93h-.56Z"/>
            <path d="m1888.49,693v-.56h2.24v.56h.56v1.12h.56v1.12h.56v-.56h.56v-.56h.56v-.56h.56v-.56h.56v-.56h.56v2.81h-.56v.56h-.56v.56h-.56v.56h-.56v.56h-.56v.56h-.56v6.17h3.37v2.81h-7.86v-12.91h.56v-1.12h.56Zm1.68,2.81v-.56h-1.12v.56h-.56v8.42h2.24v-8.42h-.56Z"/>
            <path d="m1895.23,680.09v2.24h-.56v.56h-.56v.56h.56v1.12h.56v5.05h-.56v1.12h-.56v.56h-4.49v-.56h-.56v-1.12h-.56v-5.05h.56v-1.12h.56v-.56h-1.12v-2.81h6.73Zm-1.68,3.93v-.56h-.56v-.56h-2.24v.56h-.56v.56h-.56v3.93h.56v.56h3.37v-.56h.56v-3.93h-.56Z"/>
            <path d="m1890.18,666.63v.56h.56v.56h.56v.56h.56v.56h.56v.56h.56v.56h.56v.56h.56v.56h.56v.56h.56v2.24h-.56v.56h-.56v.56h-.56v.56h-.56v.56h-.56v.56h-.56v.56h-.56v.56h-.56v.56h-.56v.56h-1.68v-1.68h.56v-.56h.56v-.56h.56v-.56h.56v-.56h.56v-.56h.56v-.56h.56v-.56h.56v-1.12h-.56v-.56h-.56v-.56h-.56v-.56h-.56v-.56h-.56v-.56h-.56v-.56h-.56v-.56h-.56v-1.68h1.68Z"/>
            <path d="m1889.61,654.84v-.56h4.49v.56h.56v1.12h.56v7.86h-.56v1.12h-.56v.56h-4.49v-.56h-.56v-1.12h-.56v-7.86h.56v-1.12h.56Zm3.93,7.29h.56v-4.49h-.56v-.56h-3.37v.56h-.56v4.49h.56v.56h3.37v-.56Z"/>
            <path d="m1895.23,641.93v2.24h-.56v.56h-.56v.56h.56v1.12h.56v5.05h-.56v1.12h-.56v.56h-4.49v-.56h-.56v-1.12h-.56v-5.05h.56v-1.12h.56v-.56h-1.12v-2.81h6.73Zm-1.68,3.93v-.56h-.56v-.56h-2.24v.56h-.56v.56h-.56v3.93h.56v.56h3.37v-.56h.56v-3.93h-.56Z"/>
            <path d="m1895.23,636.32v.56h1.12v.56h.56v1.12h.56v2.24h-1.12v-1.12h-.56v-.56h-6.73v-2.81h6.17Zm-8.42.56v-.56h1.12v.56h.56v1.68h-.56v.56h-1.12v-.56h-.56v-1.68h.56Z"/>
            <path d="m1895.23,623.98v2.24h-.56v.56h-.56v.56h.56v1.12h.56v5.05h-.56v1.12h-.56v.56h-4.49v-.56h-.56v-1.12h-.56v-5.05h.56v-1.12h.56v-.56h-1.12v-2.81h6.73Zm-1.68,3.93v-.56h-.56v-.56h-2.24v.56h-.56v.56h-.56v3.93h.56v.56h3.37v-.56h.56v-3.93h-.56Z"/>
            <path d="m1889.61,612.19v-.56h5.61v2.81h-5.05v.56h-.56v3.93h.56v.56h.56v.56h4.49v2.81h-6.73v-2.81h1.12v-.56h-.56v-1.12h-.56v-5.05h.56v-1.12h.56Z"/>
            <path d="m1895.23,599.29v2.24h-.56v.56h-.56v.56h.56v1.12h.56v5.05h-.56v1.12h-.56v.56h-4.49v-.56h-.56v-1.12h-.56v-5.05h.56v-1.12h.56v-.56h-1.12v-2.81h6.73Zm-1.68,3.93v-.56h-.56v-.56h-2.24v.56h-.56v.56h-.56v3.93h.56v.56h3.37v-.56h.56v-3.93h-.56Z"/>
            <path d="m1889.61,587.5v-.56h5.61v2.81h-5.05v.56h-.56v3.93h.56v.56h.56v.56h4.49v2.81h-8.98v-2.81h3.37v-.56h-.56v-1.12h-.56v-5.05h.56v-1.12h.56Z"/>
            <path d="m1895.23,574.6v2.24h-.56v.56h-.56v.56h.56v1.12h.56v5.05h-.56v1.12h-.56v.56h-4.49v-.56h-.56v-1.12h-.56v-5.05h.56v-1.12h.56v-.56h-1.12v-2.81h6.73Zm-1.68,3.93v-.56h-.56v-.56h-2.24v.56h-.56v.56h-.56v3.93h.56v.56h3.37v-.56h.56v-3.93h-.56Z"/>
            <path d="m1889.61,562.81v-.56h2.24v2.81h-1.68v.56h-.56v3.37h.56v1.12h.56v.56h4.49v2.81h-6.73v-2.81h1.12v-.56h-.56v-1.12h-.56v-5.05h.56v-1.12h.56Z"/>
            <path d="m1895.23,549.91v.56h1.12v.56h.56v1.12h.56v7.29h-.56v1.12h-.56v.56h-1.12v-2.81h.56v-.56h.56v-4.49h-.56v-.56h-2.24v.56h.56v.56h.56v6.17h-.56v.56h-.56v.56h-5.05v-2.81h4.49v-.56h.56v-3.93h-.56v-.56h-.56v-.56h-3.93v-2.81h6.73Z"/>
          </g>
        </g>
      </g>
      <text class="cls-3" transform="translate(1890.12 502.56) rotate(-90)"><tspan x="0" y="0">X</tspan></text>
      <image width="3072" height="1536" transform="translate(1856.88 463.52) rotate(-90) scale(.04)" xlink:href="../../04-DOCUMENTS/CONTRAT-CORTEX/CORTEX LOGO COULEUR.png"/>
    </g>
  </g>
</svg>