<?xml version="1.0" encoding="UTF-8"?>
<svg id="Layer_1" data-name="Layer 1" xmlns="http://www.w3.org/2000/svg" xmlns:xlink="http://www.w3.org/1999/xlink" viewBox="0 0 1920 1080">
  <defs>
    <style>
      .cls-1 {
        fill: #fff;
      }

      .cls-2 {
        font-family: Widy-Thin, Widy;
        font-size: 22.38px;
        font-weight: 200;
      }

      .cls-3 {
        letter-spacing: .05em;
      }

      .cls-4 {
        fill: blue;
      }

      .cls-5 {
        letter-spacing: .02em;
      }

      .cls-6 {
        fill: #0a2b5b;
      }

      .cls-7 {
        fill: #ecf0f8;
      }

      .cls-8 {
        letter-spacing: .03em;
      }

      .cls-9 {
        letter-spacing: 0em;
      }

      .cls-10 {
        font-family: MyriadPro-Regular, 'Myriad Pro';
        font-size: 12.13px;
      }

      .cls-11 {
        letter-spacing: -.02em;
      }

      .cls-12 {
        fill: #63b0f6;
      }

      .cls-13 {
        letter-spacing: .02em;
      }
    </style>
  </defs>
  <g>
    <g>
      <path class="cls-1" d="m1023.87,687.76h0s-10.89,5.19-10.89,5.19h-.01l-6.8-6.16-2.19-1.17,1.95,9.84-1.96-9.82-4.72,2.86-14.21-9.14.97,25.24h2.33c2.28,0,4.51-.07,6.67-.21h.01c10.97-.67,20.53-3,28.7-6.98h0c.96-.46,1.91-.96,2.83-1.47,1.48-.83,2.92-1.71,4.29-2.65-2.33-1.83-4.64-3.68-6.97-5.52Zm-56.57,9.85h-4.03l-2.44,2.83-13.53-23.81-19.64-17.55-4.67,3.26-12.2,14-8.39,4.45-8.73,12.52-6.65-12.88-4.81-5.76-5.05-11.09-12.04-9.07-5.95-8.31-7.13,11.11-3.87,6.04-5.48,8.56-7.88,12.29c.64.62,1.28,1.24,1.93,1.85h.01c1.49,1.39,2.99,2.71,4.49,3.94,7.95,6.59,16.03,11.17,24.24,13.75,4.76,1.5,9.64,2.65,14.62,3.46,5.95.99,12.07,1.47,18.34,1.47,2.29,0,4.56-.11,6.77-.35,5.51-.55,10.76-1.79,15.79-3.73h64.98l-.99-25.24-17.72,18.26Z"/>
      <path class="cls-6" d="m1053.96,593.4c-2.95-7.81-6.97-14.43-12.08-19.87-5.12-5.44-10.93-9.62-17.47-12.57,5.44-3.16,10.01-6.9,13.72-11.2,3.69-4.3,6.52-9.46,8.48-15.46,1.96-5.99,2.93-13.08,2.93-21.23,0-12.68-2.61-23.49-7.83-32.44-5.23-8.94-12.57-15.79-22.02-20.55-9.47-4.75-20.52-7.13-33.13-7.13h-131.51v54.35h39.49l-47,90h33.29c4.57,0,9.03.64,13.37,1.87,4.36,1.25,8,3.34,10.93,6.29,2.95,2.94,4.41,7.02,4.41,12.22,0,3.86-.81,7.37-2.45,10.53-1.63,3.18-4.03,5.72-7.17,7.65-3.16,1.92-6.91,2.89-11.27,2.89s-8.97-.86-13.87-2.55c-4.89-1.69-9.09-4.58-12.56-8.66l-3.07,4.79,5.95,8.31,12.04,9.07,5.05,11.09,4.81,5.76,6.65,12.88,8.73-12.52,8.39-4.45,12.2-14,4.67-3.26,19.64,17.55,13.53,23.81,2.44-2.83h4.03l17.72-18.26h.01l14.21,9.14,4.72-2.86h.01s2.19,1.15,2.19,1.15l6.8,6.16h.01l10.89-5.18h0c2.33,1.83,4.64,3.68,6.97,5.51,8.24-5.52,14.71-12.79,19.36-21.81,5.44-10.53,8.16-22.81,8.16-36.85,0-10.41-1.47-19.52-4.4-27.34Zm-78.82-79.02h6.53c2.61,0,4.73.85,6.36,2.55,1.64,1.69,2.83,4.19,3.59,7.47.76,3.29,1.15,7.42,1.15,12.4,0,4.52-.39,8.44-1.15,11.71-.76,3.29-2.01,5.77-3.75,7.48-1.75,1.69-4.13,2.54-7.19,2.54h-5.55v-44.15Zm17.78,133.15c-1.2,3.62-2.67,6.16-4.4,7.63-1.75,1.48-3.48,2.21-5.23,2.21h-8.16v-51.28h7.19c2.17,0,4.19.74,6.04,2.21,1.84,1.48,3.36,4.08,4.56,7.81,1.2,3.75,1.8,9.01,1.8,15.8s-.6,12-1.8,15.62Z"/>
      <g>
        <rect class="cls-12" x="824.33" y="621.64" width="11.46" height="10.71"/>
        <polygon class="cls-12" points="828.92 622.98 829.87 570.2 830.83 622.98 828.92 622.98 828.92 622.98"/>
        <g>
          <g>
            <polygon class="cls-1" points="1073.02 736.2 1073.02 736.18 1073.04 736.2 1073.02 736.2"/>
            <path class="cls-1" d="m1091.6,733.37l4.25,7.73-.04-.04-16.27-14.76-3.6-.99-6.72.51h0s3.8,10.37,3.8,10.37l-12.95-9.75-6.72-7.26-14.01-14.68v.03l.73,5.52,7.09,19.33h-.03s-7.27-6.74-7.27-6.74v.03s5.04,9.75,5.04,9.75l3,2.86h0s.43,9.71.43,9.71l-11.87-8.69,2.6-9.32-.03-.14h0s-1.72-10.32-1.72-10.32l-13.61-17.32v-1.79h0c0-.79.01-1.75.01-2.76.03-3.12.07-6.72.13-6.87h0c2.33,1.83,4.64,3.68,6.97,5.51.31.25.63.49.93.74l27.28,20.8,13.55,7.51,7.71-.18,26.62,21.44-15.35-10.25v.04Z"/>
            <g>
              <path class="cls-6" d="m1172.21,774.33c-5.21,5.12-10.56,10.03-16.04,14.72h-133.8l-48.92-2.33-24.01-8.76-9.35-4.5-8.09,2.58-7.25-4.37-10.85,3.26-7.21-3.94-8.07,1.79s-12.68-1.32-12.68-1.53c2.8-1.28,5.63-2.5,8.47-3.66l2.44-5.45,15.25-10.43,5.64-9.27,3.11-5.11,5.13-6.3,8.93-10.96,6.97.1,4.35-2.79,10.04-11.66h.01s.97-1.14.97-1.14l3.57-4.15,2.44-2.83h4.03l17.72-18.26.99,25.24.19,4.94,5.91,23.21h.01l12.13,10.35h0s-2.57-19.63-2.57-19.63l-5.92-5.54-7.56-13.33-.16-.28.31.28,11.31,10.09-4.64-10.3-3.4-7.55.04.03,6.57,6.4-3.08-7.9-4.49-7.12h.03s3.09,2.16,3.09,2.16l1.96-1.18,1.35.58,2.17-1.32,4.72-2.86,1.96,9.82,2.71,2.64,4.33-5.15h.01l10.89-5.18c-.07.15-.11,3.75-.13,6.87,0,1.01-.01,1.97-.01,2.75h0c-.01,1.1-.01,1.82-.01,1.82l13.61,17.3,1.73,10.31h0s.03.15.03.15l-2.6,9.32h0s11.87,8.69,11.87,8.69l-.43-9.7-3-2.87h-.01l-5.04-9.78h.01v.03s7.27,6.7,7.27,6.7l-7.08-19.3-.73-5.55h.01s14.01,14.67,14.01,14.67l6.72,7.26,12.95,9.77h0s-3.81-10.37-3.81-10.37h.01l6.71-.51,3.61.99,16.29,14.81-.03-.06-4.24-7.72.03.03,15.33,10.21,8.88,7.15,2.51-1.04,1.93,1.85,5.6,2.1,5.01,3,.19.11,41.17,17.59Z"/>
              <polygon class="cls-1" points="1004.24 743.09 1004.24 743.08 992.11 732.74 986.19 709.53 986.01 704.59 985.03 679.35 999.24 688.49 997.07 689.81 995.72 689.23 993.77 690.41 990.67 688.26 995.14 695.36 998.22 703.26 991.62 696.82 991.65 696.86 995.02 704.38 999.64 714.68 988.34 704.59 988.03 704.31 988.19 704.59 995.75 717.92 1001.67 723.46 1004.26 743.09 1004.24 743.09"/>
            </g>
            <polygon class="cls-1" points="1012.98 692.95 1008.63 698.09 1005.92 695.46 1003.98 685.62 1006.16 686.79 1012.96 692.95 1012.98 692.95"/>
          </g>
          <path class="cls-12" d="m1074.9,789.05l-43.22-31.61-29.64-10.57h-.01l-3.57-.04-9.83-12.39-3.04.25-9.25-6.05-4.73.21h-.2s-12.67-12.31-12.67-12.31l2.11-5.27-4.57-5.54-.93-1.14-.93-1.12-6.21-.97-.45-2.25-3.08-1.01h-.01l-5.27-11.07-3.69-10.35h0s-1.15-6.36-1.15-6.36l-6.67-3.43h0s-4.88-5.69-4.88-5.69l-12.2,14-8.39,4.45-8.73,12.52,5.09,9.84,6.47,5.18,10.04,8.05,1.39,3.26,4.37,2.54,3.84,8.24,1.11.62,5.76,3.19,8.76,9.95-13.24-7.19.63,2.19,1.93,4.76-4.43-3.64-4.43-1.12,6.69,13.13-9.92-9.87-1.04-1.03-5.17-8.53-3.43-2.76-.16,2.9-15.93-18.16-5.15-1.32-5.76-4.58-.99-1.76-4.52-8.05-5.99-6.63-3.4.29-7.72-5.92,3.87,7.74-7.19-5.19,1.28,4.43-10.44-5.81.6-4.58-1.67-4.08-1.17.46,1.64-5.65-1.87,1.93-.37-4.05-.48-.17-2.13-.78,2.09-.67-.23-7.9-8.75-6.31-.71,5.15-2.65,3.55.92-8.08,1.85-3.27-1.96-1.54-1.99,2.4-5.16-7.72,3.95-11.77-1.57.85.11-3.48.09-2.69-2.13,2.01-.11.22-3.21,6.59-10.07,13.92-8.03,5.86-5.21,11.7-.76,1.71-8.25,14.08-12.04,10.06-5.45,7.65-10.88,26.24c21.58,24.42,47,44.43,74.85,59.4h239.68l-.05-.04Zm-247.97-111.51l-2.71-2.93-1.23,2.1.56,5.41h0s-4.77-4.32-4.77-4.32h0s-.01-.01-.01-.01l-2.17,5.01-1,2.26-.29-2.82,2.59-5.98.04-3.55-4.09-6.12h0s.09-.74.09-.74l.6-4.66h.01s3.96-7.92,3.96-7.92l5.52,5.77.23,3.43,2.81,3.54h0s.65,6.12.65,6.12l2.91,5.05-1.08,5.36-2.61-5Zm28.05,34.33l-7.01-3.84-3.4-2.43-2.65.57-4.39-4.02-2.97-1.15h0s-.28-1.89-.28-1.89l-1.33-1.92,3.84-7.8-.03-3.34v-3.19s0-.01,0-.01l3.65-3.97-1.92,5.15,1.4,2.41,1.37,3.55,1.48,3.84,1.91.79,6.21,7.17.43,2.61,5.15,5.55h0s6.83,7.23,6.83,7.23l-8.28-5.31Zm117.41,49.61h.01s8.81,5.33,8.81,5.33l5.93,7.56-8.21-4.62-4.71-3.16,4.52,1.71-6.37-6.81h.01Zm-9.33-2.37h.01v.03l-6.91-6.37-2-1.22-2.32-4.27-3.68-.72h-.01l1.24,3.91-2.44-1.03-3.32,1.79,2.59-3.32-.51-2.94,6.93-2.76,10.41,16.9Zm-5.73-48.65l-2.73,6.15h0s-.01.03-.01.03v-3.22l2.75-2.96Zm-26.53-9.84l1.93-2.79,2.56.54-5.19,6.22-1.16,1.39.48-1.39,1.37-3.97Z"/>
          <path class="cls-1" d="m929.83,743.94l-1.93-4.76-.63-2.19,13.24,7.19-8.76-9.95-5.76-3.19-1.11-.62-3.84-8.24-4.37-2.54-1.39-3.26-10.04-8.05-6.47-5.18-5.09-9.84-6.65-12.88-4.81-5.76-5.05-11.09-12.04-9.07-5.95-8.31-.73-1.03-5.83-9.59-14.27-10.14h0s-.01,0-.01,0l-.25,4.19,5.03,3.14.44,6.27.59,2.58,1.72,2.79-2.67-.21h0s-.65-2.54-.65-2.54l-7.97-8.98-1.16-.33-2.13-.61h-.03s-1.41-.42-1.41-.42l-3.27-1.67-.09,2.69-.11,3.48,1.57-.85-3.95,11.77,5.16,7.72,1.99-2.4,1.96,1.54-1.85,3.27-.92,8.08,2.65-3.55.71-5.15,8.75,6.31.23,7.9-2.09.67,2.13.78.48.17.37,4.05,1.87-1.93-1.64,5.65,1.17-.46,1.67,4.08-.6,4.58,10.44,5.81-1.28-4.43,7.19,5.19-3.87-7.74,7.72,5.92,3.4-.29,5.99,6.63,4.52,8.05.99,1.76,5.76,4.58,5.15,1.32,15.93,18.16.16-2.9,3.43,2.76,5.17,8.53,1.04,1.03,9.92,9.87-6.69-13.13,4.43,1.12,4.43,3.64Zm-61.81-56.61h0s-14.03-13.95-14.03-13.95l-3.03-7.34-2.79-2.69-3.08-2.97h0s-3.51-7.17-3.51-7.17l5.89,4.36-2.03-5.38h.01l6.57,5.13.69.54,5.72,7.87,9.59,8.59-.03,13.02Z"/>
          <polygon class="cls-1" points="1002.04 746.87 1002.03 746.87 998.47 746.81 988.63 734.44 988.63 734.42 985.59 734.68 976.34 728.62 971.61 728.84 971.41 728.86 958.74 716.54 960.86 711.26 956.29 705.71 955.36 704.59 955.34 704.59 954.42 703.46 954.41 703.46 948.2 702.49 947.76 700.23 944.66 699.23 939.4 688.15 935.69 677.81 935.69 677.79 934.54 671.45 927.88 668.01 923 662.34 927.67 659.08 947.3 676.63 960.84 700.44 961.57 701.73 966.54 702.16 968.05 704.59 976.9 718.88 984.55 725.37 989.41 729.98 1002.04 746.87"/>
          <polygon class="cls-12" points="845.86 644.41 843.19 644.19 842.54 641.66 834.57 632.67 831.28 631.73 838.35 625.43 838.09 629.62 843.12 632.76 843.56 639.04 844.14 641.62 845.86 644.41"/>
          <polygon class="cls-7" points="830.63 677.18 829.55 682.55 826.93 677.54 824.22 674.61 823 676.71 823.57 682.14 818.78 677.79 815.6 685.07 815.31 682.24 817.9 676.26 817.94 672.71 813.84 666.59 814.54 661.19 818.5 653.27 824.03 659.04 824.25 662.48 827.07 666.02 827.72 672.13 830.63 677.18"/>
          <polygon class="cls-7" points="863.3 717.21 854.98 711.87 847.97 708.02 844.57 705.59 841.92 706.16 837.53 702.14 834.56 700.99 834.28 699.1 832.94 697.19 836.79 689.39 836.75 682.85 840.42 678.87 838.5 684.02 839.89 686.44 842.75 693.84 844.65 694.62 850.87 701.8 851.3 704.4 856.43 709.96 863.3 717.21"/>
          <polygon class="cls-12" points="868.05 674.31 868.03 687.34 853.99 673.38 850.97 666.04 845.1 660.37 841.59 653.21 847.49 657.56 845.46 652.17 852.74 657.85 858.46 665.72 868.05 674.31"/>
          <polygon class="cls-1" points="963.08 759.12 956.17 752.76 954.17 751.54 951.86 747.26 948.17 746.54 949.41 750.46 946.96 749.42 943.64 751.22 946.23 747.91 945.72 744.96 952.65 742.2 963.08 759.12"/>
          <polygon class="cls-1" points="987.16 774.37 978.95 769.74 974.24 766.58 978.78 768.3 972.39 761.47 981.23 766.81 987.16 774.37"/>
          <polygon class="cls-1" points="957.35 710.43 954.59 716.62 954.59 713.41 957.35 710.43"/>
          <polygon class="cls-1" points="935.3 698.37 928.95 705.97 930.8 700.63 932.73 697.82 935.3 698.37"/>
        </g>
      </g>
      <g>
        <polygon class="cls-12" points="1033.12 340.76 1094.5 392.5 1064.59 433.06 1047.42 418.42 1034.4 431.3 1012.3 412.67 1021.8 396.58 1004.36 381.72 1033.12 340.76"/>
        <polygon class="cls-12" points="1100.3 384.65 1038.73 332.76 1154.78 167.51 1216.76 213.3 1100.3 384.65"/>
      </g>
      <g>
        <path class="cls-12" d="m1156.18,789.04c-55.34,47.4-124.15,73.18-196.75,73.18-44.25,0-86.99-9.49-127.04-28.21-25.22-11.79-48.54-26.84-69.69-44.93-6.69-5.72-13.16-11.74-19.41-18.05l17.15-41.35c21.58,24.42,47,44.43,74.85,59.4h239.68l-.05-.04h81.27Z"/>
        <path class="cls-12" d="m1269.74,539.25c0,86.27-32.28,167.38-90.9,228.38-2.19,2.28-4.39,4.51-6.63,6.69-5.21,5.12-10.56,10.03-16.04,14.72h-72.45c16.81-9.1,32.6-19.98,47.13-32.43,60.34-51.63,98.88-129.89,98.88-217.36,0-96.37-46.61-184.98-124.67-237.05l21.58-35.05c89.59,59.76,143.08,161.49,143.08,272.1Z"/>
      </g>
    </g>
    <g>
      <path class="cls-6" d="m635.98,475.53l-.9,6.66-13.52,8.93-1.02,7.52,12.06,1.89-.77,5.69-34.93-5.47c.75-5.54,1.54-11.02,2.29-16.55,1.11-8.23,7.23-11.68,13.11-10.76,4.98.78,9.51,4.19,9.55,11.35l13.05-8.8,1.08-.45Zm-33.18,20.33l12.66,1.98,1.47-10.82c.64-4.72-2.02-7.27-5.31-7.78-3.14-.49-6.71,1.08-7.34,5.75l-1.47,10.87Z"/>
      <path class="cls-6" d="m646.07,435.24l-6.83,25.53c-11.3-3.35-22.66-6.71-33.96-10.06l6.79-25.38,5.29,1.57-5.31,19.85,9.17,2.72,5.1-19.06,5.05,1.49-5.1,19.06,9.12,2.7,5.35-20,5.34,1.58Z"/>
      <path class="cls-6" d="m634.03,388.74c-2.86.57-5.49,3.14-6.93,6.57-1.79,4.44-1.28,8.45,1.83,9.82,3.16,1.39,5.53-1.9,7.89-5.98,3.68-6.39,8.15-12.04,15.45-8.83,7.28,3.26,7.29,11.22,4.5,18.12-2.56,6.33-6.43,10.35-13.13,10.96l-1-5.11c4.9-.62,7.96-4.11,9.5-7.94,1.6-3.97,2.08-8.93-2.01-10.73-3.53-1.56-6.29,1.74-8.76,6.1-3.53,6.18-7.68,11.69-14.65,8.62-6.76-2.92-6.59-10.92-4.19-16.87,1.93-4.77,4.97-9.05,10.46-9.91l1.03,5.18Z"/>
      <path class="cls-6" d="m681.14,357.54l-12.73,22.93c-10.19-6.11-20.42-12.26-30.6-18.37l12.66-22.79,4.77,2.86-9.9,17.83,8.26,4.96,9.51-17.12,4.55,2.73-9.51,17.12,8.22,4.93,9.97-17.96,4.81,2.89Z"/>
      <path class="cls-6" d="m698.57,319.4l-11.38,15.4,3.92,7.36-3.57,4.83-18.67-35.03,3.66-4.96,37.52,9.52-3.57,4.83-7.91-1.96Zm-23.13-6.17l8.92,16.61,8.89-12.02-17.81-4.58Z"/>
      <path class="cls-6" d="m740.47,284.48l-4.6,4.71-16.11-1.31-5.19,5.33,8.63,8.98-3.93,4.03-25-26c3.83-3.92,7.65-7.77,11.48-11.7,5.69-5.83,12.63-4.77,16.84-.4,3.57,3.71,5.24,9.21,1.11,14.92l15.64,1.12,1.13.31Zm-38.59-4.47l9.06,9.42,7.48-7.67c3.26-3.35,2.6-7.01.25-9.46-2.25-2.34-6.04-3.31-9.27,0l-7.51,7.7Z"/>
      <path class="cls-6" d="m772.13,252.86c-.66,5.17-3.32,9.41-7.19,12.43-10.02,7.83-19.89,4.07-25.57-3.55-5.68-7.62-6.56-18.92,3.3-26.63,3.71-2.9,8.37-4.25,13.35-3.49l-.75,5.3c-3.48-.5-6.78.58-9.35,2.59-7.02,5.49-6.2,13.43-2.21,18.76,3.97,5.29,10.86,8.23,18,2.65,2.56-2,4.58-5.35,5.01-8.89l5.4.83Z"/>
      <path class="cls-6" d="m807.84,236.49l-7.26-13.21-15.99,9.24,7.26,13.22-4.84,2.8-17.47-31.79,4.84-2.8,7.61,13.85,15.99-9.24-7.61-13.85,4.8-2.77,17.47,31.79-4.8,2.77Z"/>
    </g>
    <g>
      <path class="cls-6" d="m641.23,695.04l4.31,9.64-2.15.99-5.3-11.85,18.6-8.54.98,2.2-16.45,7.55Z"/>
      <path class="cls-6" d="m653.44,720.55c-2.16-.44-3.99-2.17-4.96-4.07-1.93-3.78-.65-7.79,3.42-9.91,3.87-2.01,7.99-.82,9.86,2.86,1.9,3.73.94,7.83-4.41,10.02l-5.29-10.37c-2.25,1.45-2.78,4.08-1.59,6.42.7,1.38,2.13,2.76,3.58,3.04l-.6,2.03v-.02Zm4.68-3.94c2.44-1.4,2.96-3.73,1.74-6.12-1.08-2.12-3.38-3.27-6.02-2.33l4.3,8.44h-.03Z"/>
      <path class="cls-6" d="m671.97,728.92l1.13,1.84-2.3,1.57c2.2-.11,4.21,1.03,5.34,2.86,1.99,3.39,1.02,7.4-2.75,9.76-3.87,2.43-7.87,1.57-10.02-1.92-1.02-1.65-1.4-3.96-.23-5.96l-7.99,5.01-1.16-1.89,17.98-11.27Zm.18,14.14c2.75-1.73,3.33-4.47,1.86-6.86-1.5-2.43-4.4-2.9-6.9-1.33-2.51,1.57-3.33,4.47-1.9,6.85,1.44,2.33,4.19,3.06,6.94,1.34Z"/>
      <path class="cls-6" d="m677.34,763.65l2.12-1.57c-2.24.26-4.2-.9-5.27-2.45-2.25-3.23-1.66-7.41,2.2-10.13,3.83-2.71,7.91-1.76,10.12,1.46,1.17,1.68,1.51,3.91.55,5.81l2.17-1.5,1.26,1.82-11.82,8.35-1.25-1.79h-.08Zm7.35-11.3c-1.55-2.23-4.47-2.84-7.1-.98-2.63,1.86-3.08,4.85-1.53,7.08,3.76,5.41,12.42-.71,8.68-6.1h-.04Z"/>
      <path class="cls-6" d="m695.81,764.12l-1.61,1.47c2.05-.41,3.5.6,4.46,1.85.75.92,1.11,2.12,1.09,3.19l-2.24.45c-.02-.9-.25-1.63-.83-2.37-1.36-1.71-3.76-2.15-5.87-.51l-6.35,4.96-1.38-1.8,11.41-8.9,1.28,1.67h.04Z"/>
      <path class="cls-6" d="m705.76,776.66l2.71,3.25-1.57,1.32-2.73-3.27-5.84,4.94c-1.3,1.1-1.79,2.2-.74,3.45.39.47.99.87,1.63,1.13l-1.1,1.79c-.92-.42-1.63-.9-2.24-1.59-1.92-2.21-1.42-4.45,1.02-6.51l5.84-4.93-1.75-2.1,1.57-1.32,1.75,2.1,3.04-2.57,1.66,1.57-3.25,2.74Z"/>
      <path class="cls-6" d="m711.34,801.25c-2.2.15-4.43-1.03-5.87-2.6-2.86-3.12-2.68-7.31.7-10.43,3.21-2.96,7.51-2.91,10.29.13,2.82,3.08,2.96,7.28-1.63,10.81l-7.84-8.57c-1.79,1.99-1.62,4.66.15,6.6,1.05,1.14,2.79,2.09,4.27,1.97l-.05,2.12-.02-.02Zm3.5-5.04c1.99-1.99,1.88-4.37.07-6.35-1.61-1.75-4.12-2.25-6.43-.65l6.38,6.98-.02.02Z"/>
      <path class="cls-6" d="m724.85,797.71l1.48,1.45-1.54,1.74c2.06-.41,3.79.19,5.1,1.47,2.47,2.42,2.57,5.97-.4,9.01l-5.58,5.73-1.62-1.59,5.56-5.71c1.94-2,2.04-4.32.19-6.14-1.8-1.72-4.47-1.43-6.29.44l-5.42,5.57-1.6-1.57,10.1-10.38.02-.02Z"/>
      <path class="cls-6" d="m737.72,829.57l1.69-2.03c-2.12.79-4.3.13-5.71-1.1-2.95-2.59-3.38-6.78-.27-10.33,3.08-3.54,7.28-3.6,10.19-1.01,1.54,1.35,2.4,3.43,1.92,5.5l1.75-1.97,1.66,1.46-9.51,10.92-1.64-1.44h-.08Zm4.46-12.69c-2.04-1.78-5.03-1.68-7.15.75-2.12,2.43-1.84,5.44.2,7.22,4.95,4.34,11.92-3.67,6.99-7.98h-.04Z"/>
      <path class="cls-6" d="m754.13,824.2l1.77,1.42-9.1,11.34-1.77-1.42,9.1-11.34Zm2.48-3.62c-1.32,1.65,1,3.52,2.31,1.9,1.32-1.65-1-3.52-2.31-1.9Z"/>
      <path class="cls-6" d="m762.68,830.95l-1.17,1.83c1.88-.93,3.54-.34,4.8.6.97.69,1.63,1.74,1.89,2.78l-2.05,1.03c-.26-.85-.67-1.5-1.42-2.06-1.76-1.29-4.21-1.07-5.81,1.06l-4.84,6.45-1.81-1.36,8.7-11.58,1.68,1.26h.04Z"/>
      <path class="cls-6" d="m775.37,854.91c-2.12.65-4.56.01-6.32-1.18-3.49-2.38-4.27-6.49-1.67-10.3,2.46-3.61,6.68-4.54,10.08-2.22,3.45,2.35,4.54,6.39.85,10.87l-9.59-6.54c-1.3,2.35-.53,4.89,1.64,6.37,1.28.87,3.2,1.4,4.61.94l.43,2.07-.02-.02Zm2.28-5.69c1.5-2.39.85-4.67-1.37-6.18-1.96-1.34-4.54-1.25-6.43.84l7.81,5.32-.02.02Z"/>
      <path class="cls-6" d="m810.51,854.65l-10.13,17.85-1.85-1.05,1.21-2.35c-1.95,1.19-4.14,1.03-5.9.04-3.4-1.92-4.67-5.77-2.32-9.92,2.4-4.23,6.33-5.05,9.7-3.14,1.69.95,3.15,2.86,3.02,5.04l4.28-7.55,1.95,1.1h.04Zm-10.23,3.44c-2.31-1.3-5.1-.76-6.78,2.2-1.65,2.91-.71,5.62,1.6,6.93,2.36,1.33,5.26.54,6.82-2.21,1.53-2.7.7-5.6-1.66-6.93h.02Z"/>
      <path class="cls-6" d="m819.09,879.36c-2.01.94-4.52.66-6.43-.28-3.8-1.86-5.14-5.82-3.1-9.94,1.94-3.91,5.99-5.42,9.68-3.61,3.75,1.84,5.39,5.68,2.36,10.63l-10.42-5.12c-.96,2.5.16,4.91,2.52,6.07,1.39.68,3.36.93,4.7.28l.71,1.98h-.02Zm1.46-5.96c1.15-2.57.19-4.74-2.22-5.92-2.13-1.05-4.67-.59-6.25,1.73l8.49,4.17v.03Z"/>
      <path class="cls-6" d="m835.75,889.1l-2.1-.86,7.83-18.96,2.1.86-7.83,18.96Z"/>
      <path class="cls-6" d="m853.2,895.69l.85-2.5c-1.7,1.51-3.97,1.69-5.74,1.06-3.7-1.32-5.61-5.05-4-9.49,1.6-4.41,5.51-6,9.17-4.66,1.93.69,3.49,2.3,3.79,4.4l.93-2.47,2.08.74-4.94,13.6-2.06-.74-.07.04Zm-.43-13.41c-2.55-.91-5.31.28-6.41,3.31-1.1,3.03.25,5.72,2.8,6.63,6.2,2.21,9.82-7.75,3.65-9.96l-.04.02Z"/>
      <path class="cls-6" d="m881.4,896.31l-4.56-1.16-1.88,7.14-2.33-.59,5.21-19.83,8.53,2.17c4.24,1.08,5.54,4.74,4.69,7.97-.76,3.01-3.05,5.42-7.01,4.77l4.27,8.92-2.95-.75-3.97-8.63Zm7.31-4.85c.55-1.98-.21-4.53-2.92-5.22l-6.2-1.58-2.17,8.27,6.09,1.55c2.82.72,4.62-.79,5.2-3.03Z"/>
      <path class="cls-6" d="m906.54,906.92c-1.7,1.43-4.2,1.82-6.3,1.42-4.16-.8-6.49-4.25-5.59-8.76.85-4.28,4.38-6.79,8.43-6.02,4.11.79,6.7,4.05,5.06,9.61l-11.42-2.18c-.28,2.66,1.44,4.69,4.02,5.18,1.52.29,3.5.01,4.63-.96l1.21,1.72h-.03Zm-.14-6.11c.44-2.78-1.06-4.61-3.69-5.12-2.34-.45-4.68.65-5.6,3.31l9.3,1.78v.03Z"/>
      <path class="cls-6" d="m924.93,909.91c-1.68,1.34-3.5,1.77-5.37,1.52-3.87-.52-6.7-3.59-6.01-8.37.69-4.78,4.23-6.99,8.15-6.46,1.84.25,3.39,1.14,4.61,2.81l-1.65,1.37c-.82-1.11-2.02-1.75-3.22-1.91-2.69-.36-5.14,1.29-5.6,4.5-.48,3.33,1.45,5.45,4.09,5.8,1.29.17,2.65-.12,3.76-1.03l1.28,1.79-.02-.03Z"/>
      <path class="cls-6" d="m934.95,892.33l-.74,8.36c1.33-1.8,3.21-2.3,4.95-2.19,3.84.3,5.49,3.13,5.14,7.09l-.7,7.92-2.24-.17.7-7.89c.25-2.83-.99-4.53-3.48-4.73-2.49-.19-4.49,1.73-4.73,4.35l-.67,7.63-2.27-.18,1.8-20.39,2.24.18v.03Z"/>
      <path class="cls-6" d="m963.37,911.8c-1.44,1.7-3.85,2.5-5.98,2.45-4.24-.08-7.12-3.09-6.99-7.68.13-4.35,3.19-7.42,7.32-7.34,4.19.08,7.3,2.86,6.6,8.61l-11.65-.23c.17,2.66,2.2,4.37,4.84,4.42,1.55.03,3.46-.57,4.41-1.72l1.48,1.49h-.03Zm-1.15-5.99c-.03-2.81-1.81-4.36-4.5-4.41-2.39-.05-4.51,1.43-4.98,4.2l9.49.19v.03Z"/>
      <path class="cls-6" d="m972.44,899.48l.21,2.16c.9-1.9,2.59-2.48,4.17-2.53,1.19-.07,2.37.33,3.21.98l-.98,2.08c-.73-.5-1.46-.74-2.4-.71-2.19.1-3.99,1.79-3.93,4.45l.17,8.03-2.27.07-.3-14.42,2.11-.07.03-.03Z"/>
      <path class="cls-6" d="m996.47,910.56c-1.36,1.66-3.06,2.47-4.94,2.61-3.9.3-7.32-2.09-7.64-6.9-.32-4.81,2.68-7.7,6.64-8.01,1.85-.14,3.56.4,5.1,1.77l-1.33,1.69c-1.04-.92-2.34-1.28-3.56-1.19-2.71.21-4.77,2.33-4.55,5.57.22,3.35,2.56,5.01,5.22,4.8,1.3-.1,2.57-.67,3.47-1.79l1.63,1.48-.03-.03Z"/>
      <path class="cls-6" d="m1002.63,891.31l1.02,8.31c.93-2.04,2.67-2.92,4.4-3.18,3.83-.51,6.03,1.9,6.51,5.84l.97,7.88-2.23.3-.96-7.85c-.34-2.81-1.92-4.22-4.4-3.88-2.48.33-4.04,2.63-3.73,5.24l.93,7.59-2.26.3-2.48-20.27,2.23-.3v.03Z"/>
      <path class="cls-6" d="m1034.59,904.29c-1.05,1.96-3.24,3.26-5.33,3.68-4.17.83-7.63-1.48-8.48-5.98-.8-4.27,1.54-7.92,5.6-8.73,4.12-.82,7.76,1.21,8.3,6.96l-11.45,2.29c.74,2.56,3.09,3.78,5.68,3.26,1.53-.3,3.26-1.31,3.95-2.63l1.77,1.13h-.03Zm-2.41-5.58c-.63-2.73-2.71-3.86-5.35-3.33-2.35.47-4.11,2.37-3.98,5.17l9.33-1.86v.03Z"/>
      <path class="cls-6" d="m1060.32,893.5l-.48.14-9.62-7.96,4.6,16.13-2.29.68-5.59-19.61,2.77-.82,9.44,8.14,3.64-12.02,2.77-.82,5.59,19.61-2.29.68-4.58-16.08-3.95,11.93Z"/>
      <path class="cls-6" d="m1088.95,883.79l-10.9,4.08c1.15,2.43,3.62,3.28,6.1,2.35,1.46-.55,3.02-1.81,3.48-3.23l1.93.83c-.72,2.1-2.68,3.74-4.68,4.49-3.99,1.49-7.78-.23-9.34-4.52-1.48-4.08.25-8.05,4.11-9.5,3.94-1.47,7.86-.05,9.33,5.55l-.02-.05Zm-11.54,2.24l8.87-3.32c-1.06-2.59-3.29-3.37-5.82-2.42-2.24.84-3.63,2.98-3.06,5.71v.03Zm.16-9.32l.05.14,1.96-.73,1.32-4.53-.02-.05-2.63.99-.67,4.2Z"/>
      <path class="cls-6" d="m1101.59,862.92l8.08,18.69-1.96.87-1.14-2.36c-.23,2.27-1.7,3.94-3.56,4.76-3.59,1.59-7.44.34-9.32-4.01-1.92-4.43-.18-8.07,3.39-9.65,1.78-.79,4.19-.84,5.86.55l-3.42-7.9,2.06-.92v-.04Zm-3.45,10.26c-2.45,1.09-3.71,3.65-2.37,6.75,1.31,3.04,4.05,3.9,6.5,2.81,2.5-1.11,3.63-3.9,2.38-6.78-1.22-2.83-4.04-3.87-6.54-2.76h.03Z"/>
      <path class="cls-6" d="m1110.48,860.37c.9,1.86-1.79,3.2-2.71,1.32-.9-1.86,1.79-3.2,2.71-1.32Zm5.79,18.03l2.05-1.02-6.3-12.97-2.05,1.02,6.3,12.97Z"/>
      <path class="cls-6" d="m1133.87,866.89c-.57,2.07-1.79,3.5-3.46,4.41-3.45,1.89-7.56,1.12-9.82-3.1-2.26-4.23-.7-8.1,2.8-10.01,1.64-.9,3.42-1.11,5.39-.5l-.53,2.08c-1.32-.4-2.67-.2-3.74.39-2.4,1.31-3.41,4.09-1.89,6.93,1.58,2.95,4.4,3.49,6.75,2.2,1.15-.63,2.08-1.67,2.44-3.06l2.1.67h-.04Z"/>
      <path class="cls-6" d="m1149.68,859.64l-1.41-2.2c.1,2.26-1.19,4.16-2.8,5.16-3.37,2.09-7.48,1.29-9.92-2.7-2.42-3.97-1.19-8.01,2.16-10.07,1.75-1.09,4-1.32,5.82-.26l-1.34-2.25,1.9-1.18,7.47,12.25-1.87,1.16-.02.08Zm-10.71-7.92c-2.32,1.44-3.14,4.34-1.47,7.07,1.66,2.73,4.61,3.33,6.93,1.88,5.64-3.51.17-12.48-5.45-8.99v.04Z"/>
      <path class="cls-6" d="m1159.7,852.87l-1.89,1.29-11.36-16.86,1.89-1.29,11.36,16.86Z"/>
      <path class="cls-6" d="m1174.36,839.38c-.1,2.21-1.53,4.33-3.25,5.62-3.42,2.56-7.55,1.99-10.26-1.68-2.57-3.48-2.02-7.77,1.32-10.26,3.38-2.52,7.55-2.27,10.52,2.65l-9.39,7.02c1.77,1.98,4.43,2.05,6.55.47,1.25-.94,2.39-2.59,2.44-4.07l2.09.25-.02.02Zm-4.59-3.96c-1.74-2.18-4.11-2.29-6.28-.67-1.92,1.44-2.7,3.91-1.38,6.36l7.65-5.72.02.02Z"/>
      <path class="cls-6" d="m1185.91,805.93l13.43,15.24-1.61,1.43-1.81-1.88c.47,2.22-.42,4.26-1.94,5.61-2.94,2.62-7,2.62-10.13-.93-3.19-3.61-2.64-7.6.28-10.2,1.46-1.3,3.74-2.09,5.76-1.28l-5.68-6.44,1.69-1.5v-.04Zm-.17,10.79c-2,1.79-2.42,4.61-.2,7.13,2.19,2.48,5.06,2.45,7.07.66,2.04-1.82,2.27-4.82.2-7.17-2.03-2.31-5.04-2.43-7.09-.6l.02-.02Z"/>
      <path class="cls-6" d="m1213.05,807.87l-1.88-1.81c.62,2.17-.2,4.31-1.55,5.66-2.8,2.81-7,2.99-10.29-.32-3.27-3.29-3.01-7.5-.2-10.27,1.46-1.47,3.6-2.21,5.62-1.61l-1.82-1.87,1.58-1.58,10.11,10.16-1.56,1.56v.08Zm-12.26-5.2c-1.93,1.94-2.06,4.94.19,7.2,2.25,2.26,5.26,2.16,7.2.22,4.7-4.71-2.71-12.15-7.39-7.46v.04Z"/>
      <path class="cls-6" d="m1209.15,791.07l1.39-1.57,1.78,1.44c-.48-2.04.05-3.81,1.28-5.19,2.32-2.61,5.85-2.91,8.98-.11l5.9,5.28-1.52,1.71-5.88-5.26c-2.05-1.84-4.37-1.81-6.12.16-1.65,1.9-1.27,4.57.66,6.29l5.73,5.12-1.5,1.69-10.68-9.55-.02-.02Z"/>
      <path class="cls-6" d="m1230.07,771.37c-1.63.23-2.62,1.05-3.51,2.16-1.21,1.47-1.63,3.1-.51,3.97,1.17.9,2.56-.13,3.8-1.36,1.82-1.76,4.33-4.06,7.05-1.8,2.2,1.84,1.67,4.79-.27,7.21-1.45,1.81-3.4,3.18-5.97,3.13l-.47-2.06c1.99.02,3.73-1.13,4.79-2.46.94-1.18,1.77-2.99.44-4.13-1.2-1-2.58-.03-4.11,1.47-1.93,1.85-4.28,3.63-6.65,1.72-2.39-1.89-1.46-4.94.22-7,1.29-1.62,2.77-2.62,4.78-2.91l.4,2.01v.04Z"/>
      <path class="cls-6" d="m1250.88,761.92l-1.32,1.88-16.61-11.67,1.32-1.88,16.61,11.67Z"/>
      <path class="cls-6" d="m1259.86,744.21c.68,2.1.08,4.58-1.08,6.38-2.32,3.59-6.4,4.52-10.23,2.05-3.63-2.34-4.62-6.53-2.36-10.03,2.29-3.55,6.3-4.79,10.81-1.25l-6.36,9.86c2.35,1.22,4.88.35,6.32-1.88.85-1.31,1.34-3.26.87-4.66l2.05-.51-.02.02Zm-5.7-2.08c-2.4-1.41-4.67-.68-6.14,1.6-1.3,2.02-1.17,4.6.93,6.42l5.18-8.03.02.02Z"/>
      <path class="cls-6" d="m1257.75,715.41c-1.17,2.19-1.53,5.01.65,6.17,1.95,1.03,3.66-.81,5.45-3.12,2.41-3.15,4.94-6.17,8.99-4.03,4.01,2.16,3.34,6.55,1.57,9.86-1.63,3.06-4.34,5.36-8.05,5.09l-.13-2.35c2.72.02,4.98-1.75,6.12-3.87,1.12-2.09,1.92-5.25-.72-6.65-2.22-1.21-4.15.87-5.94,3.24-2.32,3.04-4.84,5.85-8.47,3.92-3.77-1.94-3.08-6.29-1.49-9.27,1.37-2.56,3.21-4.72,6.74-4.81l.18,2.19c-2.06.11-3.85,1.72-4.9,3.63Z"/>
      <path class="cls-6" d="m1285.25,701.4l-2.13-.86c1.06,1.84,1.05,3.65.27,5.41-1.48,3.19-4.77,4.42-8.57,2.67l-7.19-3.31.97-2.08,7.17,3.3c2.5,1.15,4.72.45,5.82-1.94,1.03-2.29-.11-4.72-2.45-5.8l-6.98-3.21.97-2.08,13.02,5.99-.89,1.93v-.03Z"/>
      <path class="cls-6" d="m1275.27,672.46l18.9,7.45-.8,2-2.47-.85c1.42,1.76,1.54,3.97.78,5.86-1.46,3.66-5.1,5.5-9.5,3.76-4.48-1.77-5.78-5.55-4.33-9.18.73-1.82,2.42-3.55,4.59-3.75l-7.99-3.15.84-2.1-.02-.04Zm4.7,9.66c-1,2.49-.1,5.18,3.03,6.42,3.08,1.21,5.64-.12,6.64-2.61,1.02-2.54-.13-5.3-3.04-6.45-2.86-1.13-5.61.13-6.63,2.67v-.03Z"/>
      <path class="cls-6" d="m1290.97,660.54l2.15.72-3.24,9.46-2.15-.72,3.24-9.46Z"/>
      <path class="cls-6" d="m1297.7,635.34c5.12,1.42,9.28,5.85,7.47,12.31-1.81,6.45-7.67,8.21-12.82,6.81-5.69-1.55-9.17-6.43-7.51-12.37,1.81-6.37,7.69-8.18,12.86-6.74Zm-10.62,7.35c-1.34,4.79,1.64,8.26,5.92,9.42,3.98,1.08,8.49-.17,9.88-5.12,1.39-4.95-1.97-8.26-5.83-9.31-3.97-1.11-8.53.11-9.97,5.01Z"/>
      <path class="cls-6" d="m1311.25,620.8l-2.27-.36c1.45,1.55,1.84,3.32,1.46,5.2-.74,3.44-3.68,5.36-7.78,4.52l-7.77-1.61.48-2.24,7.74,1.6c2.7.56,4.71-.62,5.26-3.19.5-2.46-1.16-4.57-3.69-5.09l-7.54-1.56.48-2.24,14.05,2.91-.45,2.07v-.03Z"/>
      <path class="cls-6" d="m1312.76,598.85c1.47,1.64,1.93,4.13,1.58,6.25-.68,4.21-4.05,6.72-8.56,6.04-4.28-.65-6.88-4.06-6.22-8.17.67-4.16,3.85-6.92,9.43-5.54l-1.86,11.57c2.65.15,4.62-1.67,5.04-4.28.25-1.54-.08-3.51-1.08-4.6l1.68-1.3v.03Zm-6.08.43c-2.78-.31-4.56,1.28-4.99,3.95-.38,2.37.78,4.66,3.45,5.46l1.52-9.42h.03Z"/>
      <path class="cls-6" d="m1305.86,582.07c-1.26,1.08-1.66,2.3-1.82,3.71-.24,1.88.28,3.48,1.7,3.59,1.48.12,2.1-1.49,2.49-3.19.6-2.46,1.49-5.73,5.01-5.31,2.86.35,3.98,3.1,3.64,6.17-.26,2.3-1.18,4.5-3.38,5.85l-1.5-1.47c1.7-1.06,2.56-2.96,2.74-4.65.17-1.5-.11-3.46-1.84-3.69-1.56-.19-2.2,1.37-2.7,3.45-.64,2.6-1.68,5.35-4.72,5.04-3.04-.28-3.9-3.34-3.57-5.97.23-2.05.94-3.69,2.49-5.01l1.42,1.46.03.03Z"/>
      <path class="cls-6" d="m1303.67,570.36l.3-4.25,2.03.12-.31,4.28,7.58.46c1.68.1,2.8-.36,2.91-2,.04-.61-.11-1.32-.39-1.95l2.02-.55c.37.94.54,1.79.51,2.71-.15,2.95-2.05,4.23-5.22,4.04l-7.58-.46-.2,2.75-2.03-.12.2-2.75-3.95-.24-.1-2.3,4.21.26Z"/>
    </g>
    <path class="cls-12" d="m960.89,879.57c-87.15,0-169.08-35.32-230.7-99.46-61.62-64.14-95.56-149.41-95.56-240.11s33.94-175.98,95.56-240.11c61.62-64.14,143.55-99.46,230.7-99.46s169.08,35.32,230.7,99.46c61.62,64.14,95.56,149.41,95.56,240.11s-33.94,175.98-95.56,240.11c-61.62,64.14-143.56,99.46-230.7,99.46Zm0-673.61c-176.97,0-320.95,149.85-320.95,334.04s143.98,334.04,320.95,334.04,320.95-149.85,320.95-334.04-143.98-334.04-320.95-334.04Z"/>
    <path class="cls-12" d="m960,927.36c-99.41,0-192.87-40.29-263.17-113.45-70.29-73.16-109.01-170.44-109.01-273.9s38.71-200.74,109.01-273.9c70.29-73.16,163.76-113.45,263.17-113.45s192.87,40.29,263.17,113.45c70.29,73.16,109.01,170.44,109.01,273.9s-38.71,200.74-109.01,273.9c-70.29,73.16-163.76,113.45-263.17,113.45Zm0-773.38c-204.51,0-370.89,173.17-370.89,386.02s166.38,386.02,370.89,386.02,370.89-173.17,370.89-386.02-166.38-386.02-370.89-386.02Z"/>
  </g>
  <text class="cls-2" transform="translate(1647.52 45.31)"><tspan class="cls-11" x="0" y="0">v</tspan><tspan class="cls-13" x="17.03" y="0">e</tspan><tspan class="cls-8" x="35.07" y="0">r</tspan><tspan class="cls-3" x="47.14" y="0">s</tspan><tspan class="cls-9" x="62.98" y="0">io</tspan><tspan x="86.86" y="0">n </tspan><tspan class="cls-8" x="111.64" y="0">a</tspan><tspan class="cls-9" x="128.76" y="0">l</tspan><tspan x="135.68" y="0">p</tspan><tspan class="cls-5" x="152.96" y="0">h</tspan><tspan x="170.86" y="0">a</tspan></text>
  <g>
    <g>
      <rect class="cls-1" x="1869.3" y="541.3" width="34.52" height="201.4"/>
      <g>
        <g>
          <g>
            <polygon class="cls-4" points="1882.11 722.59 1882.12 722.61 1882.09 722.61 1882.09 733.91 1884.72 733.91 1884.72 725.21 1893.44 733.93 1895.3 732.06 1883.97 720.73 1882.11 722.59"/>
            <rect class="cls-4" x="1889.22" y="723.35" width="6.06" height="2.63"/>
          </g>
          <g>
            <polygon points="1879.8 710.17 1877.93 712.03 1889.27 723.36 1891.13 721.5 1891.11 721.49 1891.14 721.49 1891.14 710.18 1888.51 710.18 1888.51 718.88 1879.8 710.17"/>
            <rect x="1877.95" y="718.11" width="6.06" height="2.63"/>
          </g>
        </g>
        <g>
          <path d="m1879.19,693v-.56h6.73v2.81h-2.24v8.98h2.24v2.81h-6.73v-.56h-.56v-1.12h-.56v-11.22h.56v-1.12h.56Zm3.37,2.24h-2.81v.56h-.56v7.86h.56v.56h2.81v-8.98Z"/>
          <path d="m1880.31,680.65v-.56h5.61v2.81h-5.05v.56h-.56v3.93h.56v.56h.56v.56h4.49v2.81h-6.73v-2.81h1.12v-.56h-.56v-1.12h-.56v-5.05h.56v-1.12h.56Z"/>
          <path d="m1881.43,667.75v6.17h2.81v-.56h.56v-2.81h-.56v-.56h-.56v-2.24h1.12v.56h.56v1.12h.56v5.61h-.56v1.12h-.56v.56h-3.37v2.24h-1.12v-2.24h-1.12v-.56h-.56v-1.12h-.56v-1.12h2.24v-6.17h1.12Z"/>
          <path d="m1880.31,655.96v-.56h1.12v2.81h-.56v.56h-.56v4.49h.56v.56h.56v-.56h.56v-6.17h.56v-1.12h.56v-.56h1.68v.56h.56v1.12h.56v7.86h-.56v1.12h-.56v.56h-1.12v-2.81h.56v-.56h.56v-4.49h-.56v-.56h-.56v.56h-.56v6.17h-.56v1.12h-.56v.56h-1.68v-.56h-.56v-1.12h-.56v-7.86h.56v-1.12h.56Z"/>
          <path d="m1885.92,643.06v2.24h-.56v.56h-.56v.56h.56v1.12h.56v5.05h-.56v1.12h-.56v.56h-4.49v-.56h-.56v-1.12h-.56v-5.05h.56v-1.12h.56v-.56h-1.12v-2.81h6.73Zm-1.68,3.93v-.56h-.56v-.56h-2.24v.56h-.56v.56h-.56v3.93h.56v.56h3.37v-.56h.56v-3.93h-.56Z"/>
          <path d="m1888.49,693v-.56h2.24v.56h.56v1.12h.56v1.12h.56v-.56h.56v-.56h.56v-.56h.56v-.56h.56v-.56h.56v2.81h-.56v.56h-.56v.56h-.56v.56h-.56v.56h-.56v.56h-.56v6.17h3.37v2.81h-7.86v-12.91h.56v-1.12h.56Zm1.68,2.81v-.56h-1.12v.56h-.56v8.42h2.24v-8.42h-.56Z"/>
          <path d="m1895.23,680.09v2.24h-.56v.56h-.56v.56h.56v1.12h.56v5.05h-.56v1.12h-.56v.56h-4.49v-.56h-.56v-1.12h-.56v-5.05h.56v-1.12h.56v-.56h-1.12v-2.81h6.73Zm-1.68,3.93v-.56h-.56v-.56h-2.24v.56h-.56v.56h-.56v3.93h.56v.56h3.37v-.56h.56v-3.93h-.56Z"/>
          <path d="m1890.18,666.63v.56h.56v.56h.56v.56h.56v.56h.56v.56h.56v.56h.56v.56h.56v.56h.56v.56h.56v2.24h-.56v.56h-.56v.56h-.56v.56h-.56v.56h-.56v.56h-.56v.56h-.56v.56h-.56v.56h-.56v.56h-1.68v-1.68h.56v-.56h.56v-.56h.56v-.56h.56v-.56h.56v-.56h.56v-.56h.56v-.56h.56v-1.12h-.56v-.56h-.56v-.56h-.56v-.56h-.56v-.56h-.56v-.56h-.56v-.56h-.56v-.56h-.56v-1.68h1.68Z"/>
          <path d="m1889.61,654.84v-.56h4.49v.56h.56v1.12h.56v7.86h-.56v1.12h-.56v.56h-4.49v-.56h-.56v-1.12h-.56v-7.86h.56v-1.12h.56Zm3.93,7.29h.56v-4.49h-.56v-.56h-3.37v.56h-.56v4.49h.56v.56h3.37v-.56Z"/>
          <path d="m1895.23,641.93v2.24h-.56v.56h-.56v.56h.56v1.12h.56v5.05h-.56v1.12h-.56v.56h-4.49v-.56h-.56v-1.12h-.56v-5.05h.56v-1.12h.56v-.56h-1.12v-2.81h6.73Zm-1.68,3.93v-.56h-.56v-.56h-2.24v.56h-.56v.56h-.56v3.93h.56v.56h3.37v-.56h.56v-3.93h-.56Z"/>
          <path d="m1895.23,636.32v.56h1.12v.56h.56v1.12h.56v2.24h-1.12v-1.12h-.56v-.56h-6.73v-2.81h6.17Zm-8.42.56v-.56h1.12v.56h.56v1.68h-.56v.56h-1.12v-.56h-.56v-1.68h.56Z"/>
          <path d="m1895.23,623.98v2.24h-.56v.56h-.56v.56h.56v1.12h.56v5.05h-.56v1.12h-.56v.56h-4.49v-.56h-.56v-1.12h-.56v-5.05h.56v-1.12h.56v-.56h-1.12v-2.81h6.73Zm-1.68,3.93v-.56h-.56v-.56h-2.24v.56h-.56v.56h-.56v3.93h.56v.56h3.37v-.56h.56v-3.93h-.56Z"/>
          <path d="m1889.61,612.19v-.56h5.61v2.81h-5.05v.56h-.56v3.93h.56v.56h.56v.56h4.49v2.81h-6.73v-2.81h1.12v-.56h-.56v-1.12h-.56v-5.05h.56v-1.12h.56Z"/>
          <path d="m1895.23,599.29v2.24h-.56v.56h-.56v.56h.56v1.12h.56v5.05h-.56v1.12h-.56v.56h-4.49v-.56h-.56v-1.12h-.56v-5.05h.56v-1.12h.56v-.56h-1.12v-2.81h6.73Zm-1.68,3.93v-.56h-.56v-.56h-2.24v.56h-.56v.56h-.56v3.93h.56v.56h3.37v-.56h.56v-3.93h-.56Z"/>
          <path d="m1889.61,587.5v-.56h5.61v2.81h-5.05v.56h-.56v3.93h.56v.56h.56v.56h4.49v2.81h-8.98v-2.81h3.37v-.56h-.56v-1.12h-.56v-5.05h.56v-1.12h.56Z"/>
          <path d="m1895.23,574.6v2.24h-.56v.56h-.56v.56h.56v1.12h.56v5.05h-.56v1.12h-.56v.56h-4.49v-.56h-.56v-1.12h-.56v-5.05h.56v-1.12h.56v-.56h-1.12v-2.81h6.73Zm-1.68,3.93v-.56h-.56v-.56h-2.24v.56h-.56v.56h-.56v3.93h.56v.56h3.37v-.56h.56v-3.93h-.56Z"/>
          <path d="m1889.61,562.81v-.56h2.24v2.81h-1.68v.56h-.56v3.37h.56v1.12h.56v.56h4.49v2.81h-6.73v-2.81h1.12v-.56h-.56v-1.12h-.56v-5.05h.56v-1.12h.56Z"/>
          <path d="m1895.23,549.91v.56h1.12v.56h.56v1.12h.56v7.29h-.56v1.12h-.56v.56h-1.12v-2.81h.56v-.56h.56v-4.49h-.56v-.56h-2.24v.56h.56v.56h.56v6.17h-.56v.56h-.56v.56h-5.05v-2.81h4.49v-.56h.56v-3.93h-.56v-.56h-.56v-.56h-3.93v-2.81h6.73Z"/>
        </g>
      </g>
    </g>
    <text class="cls-10" transform="translate(1890.12 502.56) rotate(-90)"><tspan x="0" y="0">X</tspan></text>
    <image width="3072" height="1536" transform="translate(1856.88 463.52) rotate(-90) scale(.04)" xlink:href="../../04-DOCUMENTS/CONTRAT-CORTEX/CORTEX LOGO COULEUR.png"/>
  </g>
</svg>