<?xml version="1.0" encoding="UTF-8"?>
<svg id="Layer_1" data-name="Layer 1" xmlns="http://www.w3.org/2000/svg" xmlns:xlink="http://www.w3.org/1999/xlink" viewBox="0 0 1920 1080">
  <defs>
    <style>
      .cls-1 {
        fill: #fff;
      }

      .cls-2 {
        font-family: Widy-Thin, Widy;
        font-size: 22.38px;
        font-weight: 200;
      }

      .cls-3 {
        letter-spacing: .05em;
      }

      .cls-4 {
        fill: blue;
      }

      .cls-5 {
        letter-spacing: .03em;
      }

      .cls-6 {
        letter-spacing: 0em;
      }

      .cls-7 {
        letter-spacing: .04em;
      }

      .cls-8 {
        font-family: MyriadPro-Regular, 'Myriad Pro';
        font-size: 12.13px;
      }

      .cls-9 {
        letter-spacing: -.02em;
      }

      .cls-10 {
        letter-spacing: -.02em;
      }

      .cls-11 {
        letter-spacing: .02em;
      }

      .cls-12 {
        letter-spacing: .02em;
      }
    </style>
  </defs>
  <g>
    <path d="m500.88,737.55l-.63-25.56c1.75-.04,3.53-.11,5.28-.21l1.41,25.53c-2.01.11-4.05.19-6.07.24Zm-25.75-1.04c-2-.21-4.03-.45-6.02-.73l3.44-25.33c1.74.24,3.51.45,5.25.63l-2.67,25.43Zm57.41-2.3l-4.7-25.13c1.72-.32,3.46-.68,5.18-1.05l5.46,24.98c-1.97.43-3.97.84-5.95,1.21Zm-88.69-3.55c-1.94-.53-3.9-1.09-5.83-1.68l7.44-24.46c1.68.51,3.39,1,5.08,1.46l-6.69,24.68Zm-29.96-10.77c-1.83-.83-3.68-1.7-5.49-2.59l11.27-22.95c1.57.77,3.18,1.53,4.77,2.25l-10.56,23.29Zm-27.84-15.45c-1.68-1.12-3.36-2.28-5-3.44l14.82-20.83c1.42,1.01,2.88,2.02,4.34,2.99l-14.17,21.28Zm-24.98-19.71c-1.47-1.36-2.94-2.77-4.38-4.19l17.94-18.21c1.25,1.23,2.54,2.47,3.82,3.66l-17.39,18.74Zm-21.54-23.42c-1.24-1.58-2.48-3.21-3.67-4.84l20.61-15.14c1.04,1.42,2.12,2.84,3.2,4.22l-20.14,15.76Zm-17.55-26.59c-.97-1.76-1.92-3.57-2.85-5.37l22.78-11.62c.8,1.57,1.63,3.14,2.48,4.68l-22.41,12.32Zm-13.04-29.07c-.67-1.89-1.32-3.83-1.94-5.76l24.35-7.8c.54,1.68,1.11,3.37,1.69,5.01l-24.1,8.54Zm-8.19-30.77c-.36-1.97-.69-3.99-.99-5.99l25.28-3.8c.26,1.74.55,3.5.87,5.22l-25.15,4.58Zm-3.17-31.67c-.03-1.33-.04-2.66-.04-3.98,0-.7,0-1.39.01-2.09l25.57.27c0,.61,0,1.21,0,1.82,0,1.16.01,2.31.03,3.47l-25.56.51Zm27.22-28.21l-25.32-3.56c.28-1.99.59-4,.94-6l25.2,4.33c-.3,1.74-.57,3.49-.82,5.22Zm6.05-27.06l-24.42-7.57c.6-1.93,1.23-3.87,1.88-5.77l24.18,8.31c-.57,1.65-1.12,3.34-1.64,5.02Zm10.31-25.73l-22.89-11.39c.89-1.8,1.83-3.61,2.79-5.39l22.53,12.09c-.83,1.55-1.65,3.13-2.42,4.69Zm14.31-23.72l-20.76-14.93c1.18-1.63,2.39-3.27,3.62-4.87l20.29,15.56c-1.06,1.39-2.12,2.81-3.14,4.23Zm17.94-21.14l-18.11-18.05.34-.34c1.31-1.31,2.65-2.61,3.99-3.89l17.58,18.57c-1.18,1.11-2.35,2.26-3.49,3.39l-.31.32Zm21.08-18.06l-15.03-20.69c1.63-1.19,3.31-2.36,4.97-3.5l14.38,21.14c-1.45.99-2.91,2.01-4.33,3.05Zm23.68-14.43l-11.5-22.84c1.8-.91,3.64-1.8,5.47-2.65l10.79,23.18c-1.59.74-3.19,1.52-4.76,2.31Zm25.7-10.43l-7.68-24.39c1.93-.61,3.88-1.19,5.82-1.73l6.92,24.61c-1.69.47-3.39.98-5.07,1.51Zm27.05-6.18l-3.69-25.3c2-.29,4.02-.55,6.02-.78l2.91,25.4c-1.74.2-3.51.43-5.25.68Zm32.47-1.66c-1.62-.07-3.23-.12-4.79-.14l.4-25.56c1.79.03,3.64.08,5.49.16l-1.1,25.54Z"/>
    <path d="m496.5,714.55c-46.61,0-90.44-18.15-123.4-51.11-32.96-32.96-51.11-76.78-51.11-123.4s18.15-90.44,51.11-123.4c32.96-32.96,76.78-51.11,123.4-51.11s90.44,18.15,123.4,51.11c32.96,32.96,51.11,76.78,51.11,123.4s-18.15,90.44-51.11,123.4c-32.96,32.96-76.78,51.11-123.4,51.11Zm0-346.18c-94.66,0-171.67,77.01-171.67,171.67s77.01,171.67,171.67,171.67,171.67-77.01,171.67-171.67-77.01-171.67-171.67-171.67Z"/>
    <path d="m496.03,739.11c-53.17,0-103.16-20.71-140.76-58.31-37.6-37.6-58.31-87.59-58.31-140.76s20.71-103.16,58.31-140.76c37.6-37.6,87.59-58.31,140.76-58.31s103.16,20.71,140.76,58.31c37.6,37.6,58.31,87.59,58.31,140.76s-20.71,103.16-58.31,140.76c-37.6,37.6-87.59,58.31-140.76,58.31Zm0-397.45c-109.39,0-198.38,88.99-198.38,198.38s88.99,198.38,198.38,198.38,198.38-88.99,198.38-198.38-88.99-198.38-198.38-198.38Z"/>
    <path class="cls-1" d="m529.86,613.86h0s-5.8,2.66-5.8,2.66h0l-3.62-3.15-1.16-.6,1.04,5.03-1.04-5.03-2.51,1.46-7.57-4.68.52,12.91h1.24c1.21,0,2.4-.04,3.55-.11h0c5.84-.34,10.93-1.53,15.29-3.57h0c.51-.23,1.02-.49,1.51-.75.79-.43,1.55-.87,2.29-1.36-1.24-.94-2.47-1.88-3.71-2.83Zm-30.12,5.04h-2.14l-1.3,1.45-7.21-12.18-10.46-8.98-2.48,1.67-6.5,7.16-4.47,2.28-4.65,6.4-3.54-6.59-2.56-2.95-2.69-5.67-6.41-4.64-3.17-4.25-3.8,5.69-2.06,3.09-2.92,4.38-4.2,6.29c.34.32.68.63,1.03.94h0c.8.71,1.59,1.38,2.39,2.02,4.23,3.37,8.53,5.72,12.91,7.04,2.53.77,5.13,1.36,7.79,1.77,3.17.5,6.42.75,9.77.75,1.22,0,2.43-.06,3.61-.18,2.93-.28,5.73-.92,8.41-1.91h34.6l-.53-12.91-9.44,9.34Z"/>
    <path d="m545.89,565.58c-1.57-4-3.71-7.38-6.43-10.17-2.73-2.78-5.82-4.92-9.3-6.43,2.9-1.62,5.33-3.53,7.31-5.73,1.97-2.2,3.47-4.84,4.52-7.91,1.04-3.07,1.56-6.69,1.56-10.86,0-6.49-1.39-12.02-4.17-16.6-2.78-4.57-6.69-8.08-11.73-10.51-5.04-2.43-10.93-3.65-17.64-3.65h-70.03v27.81h21.03l-25.03,46.05h17.73c2.44,0,4.81.33,7.12.96,2.32.64,4.26,1.71,5.82,3.22,1.57,1.51,2.35,3.59,2.35,6.25,0,1.97-.43,3.77-1.31,5.39-.87,1.63-2.14,2.93-3.82,3.91-1.68.98-3.68,1.48-6,1.48s-4.78-.44-7.38-1.31c-2.61-.87-4.84-2.34-6.69-4.43l-1.63,2.45,3.17,4.25,6.41,4.64,2.69,5.67,2.56,2.95,3.54,6.59,4.65-6.4,4.47-2.28,6.5-7.16,2.48-1.67,10.46,8.98,7.21,12.18,1.3-1.45h2.14l9.44-9.34h0l7.57,4.68,2.51-1.46h0s1.16.59,1.16.59l3.62,3.15h0l5.8-2.65h0c1.24.94,2.47,1.88,3.71,2.82,4.39-2.83,7.83-6.55,10.31-11.16,2.9-5.39,4.34-11.67,4.34-18.86,0-5.32-.78-9.99-2.34-13.99Zm-41.97-40.43h3.48c1.39,0,2.52.43,3.39,1.31.87.87,1.51,2.14,1.91,3.82.4,1.68.61,3.8.61,6.35,0,2.31-.21,4.32-.61,5.99-.4,1.68-1.07,2.95-1.99,3.83-.93.87-2.2,1.3-3.83,1.3h-2.95v-22.59Zm9.47,68.13c-.64,1.85-1.42,3.15-2.34,3.9-.93.76-1.85,1.13-2.78,1.13h-4.35v-26.24h3.83c1.16,0,2.23.38,3.22,1.13.98.76,1.79,2.09,2.43,4,.64,1.92.96,4.61.96,8.09s-.32,6.14-.96,7.99Z"/>
    <g>
      <g>
        <path d="m834.04,587.28h-21.07l-34.26-38.93h-23.81v38.93h-18.02v-112.77c17.53,0,34.91.16,52.44.16,26.06,0,39.73,17.86,39.73,36.84,0,16.08-8.36,31.85-30.56,35.07l33.62,37.48,1.93,3.22Zm-79.14-96.2v40.86h34.26c14.96,0,21.56-9.49,21.56-20.11s-6.6-20.75-21.39-20.75h-34.43Z"/>
        <path d="m936.02,587.28h-83.17v-112.61h82.69v17.54h-64.67v30.4h62.09v16.73h-62.09v30.24h65.15v17.69Z"/>
        <path d="m1026.41,499.6c-5.31-7.72-16.08-12.39-27.83-12.55-15.12,0-26.06,6.27-26.06,17.06s12.55,13.99,27.35,16.08c23.17,3.22,45.2,9.65,45.2,34.91-.16,25.26-23.16,34.75-46.65,34.75-21.56,0-38.13-6.6-48.42-25.58l13.51-9.01c8.04,13.67,22.04,18.5,35.07,18.5s28.47-4.5,28.47-18.66c0-12.23-13.03-16.41-28.8-18.5-22.36-3.06-43.59-8.69-43.59-32.81-.16-23.33,23.17-32.34,43.44-32.34,16.25,0,32.5,3.86,41.98,18.98l-13.67,9.17Z"/>
        <path d="m1148.49,587.28h-83.17v-112.61h82.69v17.54h-64.67v30.4h62.09v16.73h-62.09v30.24h65.15v17.69Z"/>
        <path d="m1249.66,563.63h-60.97l-10.62,23.65h-19.14l50.51-112.61h19.63l50.51,112.61h-19.14l-10.78-23.65Zm-30.41-69.98l-23.81,53.57h47.62l-23.81-53.57Z"/>
        <path d="m1392.33,587.28h-21.07l-34.26-38.93h-23.81v38.93h-18.02v-112.77c17.53,0,34.91.16,52.44.16,26.06,0,39.73,17.86,39.73,36.84,0,16.08-8.36,31.85-30.56,35.07l33.62,37.48,1.93,3.22Zm-79.14-96.2v40.86h34.26c14.96,0,21.56-9.49,21.56-20.11s-6.6-20.75-21.39-20.75h-34.43Z"/>
        <path d="m1505.89,572.8c-11.58,11.42-26.54,16.73-42.31,16.73-40.86,0-59.2-28.15-59.36-57.75-.16-29.6,19.14-59.04,59.36-59.04,15.12,0,29.76,5.63,41.18,17.05l-12.07,11.58c-8.04-7.88-18.66-11.58-29.11-11.58-28.64,0-41.67,21.08-41.5,41.83.16,20.59,12.39,41.02,41.5,41.02,10.45,0,22.04-4.34,29.92-12.23l12.39,12.39Z"/>
        <path d="m1601.75,587.28v-46.81h-59.52v46.81h-18.02v-112.61h18.02v49.07h59.52v-49.07h17.86v112.61h-17.86Z"/>
      </g>
      <g>
        <path d="m738.62,636.64h10.43v2.43h-12.82v-20.96h2.39v18.53Z"/>
        <path d="m765.51,636.7c-1.37,1.77-3.72,2.64-5.83,2.64-4.19,0-7.12-3.02-7.12-7.73s2.93-7.66,7.01-7.66,7.28,2.78,6.76,8.68h-11.5c.25,2.72,2.3,4.43,4.9,4.43,1.53,0,3.4-.65,4.3-1.85l1.51,1.5h-.03Zm-1.31-6.11c-.11-2.88-1.92-4.43-4.57-4.43-2.36,0-4.41,1.55-4.79,4.4h9.37v.03Z"/>
        <path d="m780.58,624.34h2.14l.11,2.85c1.07-1.98,3.07-3.12,5.21-3.12,3.89.09,6.73,3.09,6.73,7.64s-2.82,7.69-6.87,7.69c-1.92,0-4.05-.89-5.12-2.99v9.64h-2.19v-21.7Zm11.94,7.42c0-3.32-2-5.3-4.77-5.3s-4.74,2.28-4.74,5.3,2,5.3,4.74,5.33c2.71,0,4.77-2,4.77-5.33Z"/>
        <path d="m811.19,639.13l-.06-2.7c-1.07,2.04-3.12,2.99-4.98,2.99-3.89,0-6.93-2.93-6.93-7.75s3.09-7.66,6.95-7.63c2.03,0,4.03,1.02,5.01,2.93l.03-2.7h2.19v14.79h-2.16l-.06.06Zm-4.93-12.75c-2.68,0-4.84,2.09-4.84,5.39s2.16,5.42,4.84,5.42c6.52,0,6.52-10.84.03-10.84l-.03.03Z"/>
        <path d="m821.69,624.25l.16,2.21c.93-1.92,2.6-2.45,4.16-2.45,1.18-.03,2.33.42,3.15,1.11l-1.02,2.09c-.71-.54-1.42-.81-2.35-.81-2.17.03-3.98,1.71-3.98,4.43v8.23h-2.24v-14.79h2.08l.03-.03Z"/>
        <path d="m837.16,624.31h4.19v2.09h-4.22v7.82c0,1.74.52,2.84,2.14,2.84.6,0,1.28-.21,1.89-.54l.66,2.03c-.9.45-1.73.69-2.63.72-2.91.06-4.28-1.8-4.28-5.06v-7.82h-2.71v-2.09h2.71v-4.07l2.25-.27v4.34Z"/>
        <path d="m858.39,636.7c-1.37,1.77-3.72,2.64-5.83,2.64-4.19,0-7.12-3.02-7.12-7.73s2.93-7.66,7.01-7.66,7.28,2.78,6.76,8.68h-11.5c.25,2.72,2.3,4.43,4.9,4.43,1.53,0,3.4-.65,4.3-1.85l1.51,1.5h-.03Zm-1.31-6.11c-.11-2.88-1.92-4.43-4.57-4.43-2.36,0-4.41,1.55-4.79,4.4h9.37v.03Z"/>
        <path d="m864.38,624.25h2.05l.11,2.37c1.18-1.77,2.82-2.58,4.63-2.58,3.42,0,5.94,2.51,5.94,6.85v8.18h-2.24v-8.14c0-2.84-1.54-4.61-4.11-4.61-2.47.03-4.16,2.16-4.16,4.82v7.93h-2.22v-14.82Z"/>
        <path d="m894.21,639.13l-.06-2.7c-1.07,2.04-3.12,2.99-4.98,2.99-3.89,0-6.93-2.93-6.93-7.75s3.09-7.66,6.95-7.63c2.03,0,4.03,1.02,5.01,2.93l.03-2.7h2.19v14.79h-2.16l-.06.06Zm-4.93-12.75c-2.68,0-4.84,2.09-4.84,5.39s2.16,5.42,4.84,5.42c6.52,0,6.52-10.84.03-10.84l-.03.03Z"/>
        <path d="m905.21,619.79c0,2.13-2.95,2.13-2.95-.03s2.95-2.13,2.95.03Zm-2.63,19.28h2.24v-14.85h-2.24v14.85Z"/>
        <path d="m913.11,624.25l.16,2.21c.93-1.92,2.6-2.45,4.16-2.45,1.18-.03,2.33.42,3.15,1.11l-1.02,2.09c-.71-.54-1.42-.81-2.35-.81-2.17.03-3.98,1.71-3.98,4.43v8.23h-2.24v-14.79h2.08l.03-.03Z"/>
        <path d="m936.44,636.7c-1.37,1.77-3.72,2.64-5.83,2.64-4.19,0-7.12-3.02-7.12-7.73s2.93-7.66,7.01-7.66,7.28,2.78,6.76,8.68h-11.5c.25,2.72,2.3,4.43,4.9,4.43,1.53,0,3.4-.65,4.3-1.85l1.51,1.5h-.03Zm-1.31-6.11c-.11-2.88-1.92-4.43-4.57-4.43-2.36,0-4.41,1.55-4.79,4.4h9.37v.03Z"/>
        <path d="m964.81,618.09v20.95h-2.11l-.11-2.69c-1.09,2.03-3.07,2.99-5.06,2.99-3.86,0-6.85-2.78-6.85-7.66s2.98-7.66,6.82-7.66c1.92,0,4.11.96,5.06,2.96v-8.86h2.22l.03-.03Zm-7.12,8.2c-2.63,0-4.76,1.89-4.76,5.36s2.14,5.36,4.76,5.36,4.79-2.16,4.79-5.39-2.14-5.33-4.82-5.33h.03Z"/>
        <path d="m983.08,636.7c-1.37,1.77-3.72,2.64-5.83,2.64-4.19,0-7.12-3.02-7.12-7.73s2.93-7.66,7.01-7.66,7.28,2.78,6.76,8.68h-11.5c.25,2.72,2.3,4.43,4.9,4.43,1.53,0,3.4-.65,4.3-1.85l1.51,1.5h-.03Zm-1.31-6.11c-.11-2.88-1.92-4.43-4.57-4.43-2.36,0-4.41,1.55-4.79,4.4h9.37v.03Z"/>
        <path d="m1000.55,639.07h-2.25v-20.96h2.25v20.96Z"/>
        <path d="m1018,639.13l-.06-2.7c-1.07,2.04-3.12,2.99-4.98,2.99-3.89,0-6.93-2.93-6.93-7.75s3.09-7.66,6.95-7.63c2.03,0,4.03,1.02,5.01,2.93l.03-2.7h2.19v14.79h-2.16l-.06.06Zm-4.93-12.75c-2.68,0-4.84,2.09-4.84,5.39s2.16,5.42,4.84,5.42c6.52,0,6.52-10.84.03-10.84l-.03.03Z"/>
        <path d="m1042.98,631.52h-4.65v7.55h-2.39v-20.96h8.71c4.32,0,6.49,3.3,6.49,6.71.03,3.17-1.56,6.14-5.5,6.49l6.33,7.76h-3.01l-5.97-7.55Zm5.78-6.64c.03-2.09-1.34-4.43-4.11-4.43h-6.33v8.74h6.21c2.88,0,4.22-1.94,4.22-4.31Z"/>
        <path d="m1068.45,636.7c-1.37,1.77-3.72,2.64-5.83,2.64-4.19,0-7.12-3.02-7.12-7.73s2.93-7.66,7.01-7.66,7.28,2.78,6.76,8.68h-11.5c.25,2.72,2.3,4.43,4.9,4.43,1.53,0,3.4-.65,4.3-1.85l1.51,1.5h-.03Zm-1.31-6.11c-.11-2.88-1.92-4.43-4.57-4.43-2.36,0-4.41,1.55-4.79,4.4h9.37v.03Z"/>
        <path d="m1085.7,637.06c-1.45,1.59-3.18,2.28-5.04,2.28-3.86,0-7.07-2.72-7.07-7.66s3.15-7.66,7.07-7.66c1.83,0,3.47.68,4.9,2.21l-1.43,1.62c-.96-1.02-2.22-1.5-3.42-1.5-2.68,0-4.84,2-4.84,5.33s2.19,5.33,4.82,5.33c1.29,0,2.58-.48,3.53-1.56l1.51,1.65-.03-.03Z"/>
        <path d="m1092.85,618.14v8.59c1.15-1.95,2.96-2.61,4.69-2.64,3.8,0,5.67,2.75,5.67,6.83v8.14h-2.22v-8.11c0-2.9-1.37-4.55-3.84-4.55s-4.27,2.13-4.27,4.82v7.84h-2.24v-20.96h2.22v.03Z"/>
        <path d="m1121.28,636.7c-1.37,1.77-3.72,2.64-5.83,2.64-4.19,0-7.12-3.02-7.12-7.73s2.93-7.66,7.01-7.66,7.28,2.78,6.76,8.68h-11.5c.25,2.72,2.3,4.43,4.9,4.43,1.53,0,3.4-.65,4.3-1.85l1.51,1.5h-.03Zm-1.31-6.11c-.11-2.88-1.92-4.43-4.57-4.43-2.36,0-4.41,1.55-4.79,4.4h9.37v.03Z"/>
        <path d="m1129.39,624.25l.16,2.21c.93-1.92,2.6-2.45,4.16-2.45,1.18-.03,2.33.42,3.15,1.11l-1.02,2.09c-.71-.54-1.42-.81-2.35-.81-2.17.03-3.98,1.71-3.98,4.43v8.23h-2.24v-14.79h2.08l.03-.03Z"/>
        <path d="m1151.87,637.06c-1.45,1.59-3.18,2.28-5.04,2.28-3.86,0-7.07-2.72-7.07-7.66s3.15-7.66,7.07-7.66c1.83,0,3.47.68,4.9,2.21l-1.43,1.62c-.96-1.02-2.22-1.5-3.42-1.5-2.68,0-4.84,2-4.84,5.33s2.19,5.33,4.82,5.33c1.29,0,2.58-.48,3.53-1.56l1.51,1.65-.03-.03Z"/>
        <path d="m1159.02,618.14v8.59c1.15-1.95,2.96-2.61,4.69-2.64,3.8,0,5.67,2.75,5.67,6.83v8.14h-2.22v-8.11c0-2.9-1.37-4.55-3.84-4.55s-4.27,2.13-4.27,4.82v7.84h-2.24v-20.96h2.22v.03Z"/>
        <path d="m1187.45,636.7c-1.37,1.77-3.72,2.64-5.83,2.64-4.19,0-7.12-3.02-7.12-7.73s2.93-7.66,7.01-7.66,7.28,2.78,6.76,8.68h-11.5c.25,2.72,2.3,4.43,4.9,4.43,1.53,0,3.4-.65,4.3-1.85l1.51,1.5h-.03Zm-1.31-6.11c-.11-2.88-1.92-4.43-4.57-4.43-2.36,0-4.41,1.55-4.79,4.4h9.37v.03Z"/>
        <path d="m1212.8,632.48h-.49l-6.96-10.66v17.24h-2.36v-20.96h2.85l6.73,10.78,6.68-10.78h2.85v20.96h-2.36v-17.18l-6.95,10.6Z"/>
        <path d="m1241.34,632.63h-11.45c.25,2.75,2.24,4.46,4.85,4.46,1.53,0,3.39-.66,4.3-1.85l1.51,1.5c-1.37,1.77-3.72,2.64-5.83,2.64-4.19,0-7.12-3.02-7.12-7.73s2.93-7.66,6.98-7.66,7.29,2.78,6.76,8.71v-.06Zm-11.42-2h9.31c-.11-2.88-1.92-4.43-4.57-4.43-2.36,0-4.36,1.56-4.74,4.4v.03Zm3.26-8.92v.15h2.05l2.74-3.89v-.06h-2.76l-2.03,3.81Z"/>
        <path d="m1259.83,618.09v20.95h-2.11l-.11-2.69c-1.09,2.03-3.07,2.99-5.06,2.99-3.86,0-6.85-2.78-6.85-7.66s2.98-7.66,6.82-7.66c1.92,0,4.11.96,5.06,2.96v-8.86h2.22l.03-.03Zm-7.12,8.2c-2.63,0-4.76,1.89-4.76,5.36s2.14,5.36,4.76,5.36,4.79-2.16,4.79-5.39-2.14-5.33-4.82-5.33h.03Z"/>
        <path d="m1268.62,619.79c0,2.13-2.95,2.13-2.95-.03s2.95-2.13,2.95.03Zm-2.63,19.28h2.24v-14.85h-2.24v14.85Z"/>
        <path d="m1285.66,637.06c-1.45,1.59-3.18,2.28-5.04,2.28-3.86,0-7.07-2.72-7.07-7.66s3.15-7.66,7.07-7.66c1.83,0,3.47.68,4.9,2.21l-1.43,1.62c-.96-1.02-2.22-1.5-3.42-1.5-2.68,0-4.84,2-4.84,5.33s2.19,5.33,4.82,5.33c1.29,0,2.58-.48,3.53-1.56l1.51,1.65-.03-.03Z"/>
        <path d="m1301.41,639.13l-.06-2.7c-1.07,2.04-3.12,2.99-4.98,2.99-3.89,0-6.93-2.93-6.93-7.75s3.09-7.66,6.95-7.63c2.03,0,4.03,1.02,5.01,2.93l.03-2.7h2.19v14.79h-2.16l-.06.06Zm-4.93-12.75c-2.68,0-4.84,2.09-4.84,5.39s2.16,5.42,4.84,5.42c6.52,0,6.52-10.84.03-10.84l-.03.03Z"/>
        <path d="m1312.2,639.07h-2.25v-20.96h2.25v20.96Z"/>
        <path d="m1330.63,636.7c-1.37,1.77-3.72,2.64-5.83,2.64-4.19,0-7.12-3.02-7.12-7.73s2.93-7.66,7.01-7.66,7.28,2.78,6.76,8.68h-11.5c.25,2.72,2.3,4.43,4.9,4.43,1.53,0,3.4-.65,4.3-1.85l1.51,1.5h-.03Zm-1.31-6.11c-.11-2.88-1.92-4.43-4.57-4.43-2.36,0-4.41,1.55-4.79,4.4h9.37v.03Z"/>
        <path d="m1359,618.09v20.95h-2.11l-.11-2.69c-1.09,2.03-3.07,2.99-5.06,2.99-3.86,0-6.85-2.78-6.85-7.66s2.98-7.66,6.82-7.66c1.92,0,4.11.96,5.06,2.96v-8.86h2.22l.03-.03Zm-7.12,8.2c-2.63,0-4.76,1.89-4.76,5.36s2.14,5.36,4.76,5.36,4.79-2.16,4.79-5.39-2.14-5.33-4.82-5.33h.03Z"/>
        <path d="m1376.28,639.13l-.06-2.7c-1.07,2.04-3.12,2.99-4.98,2.99-3.89,0-6.93-2.93-6.93-7.75s3.09-7.66,6.95-7.63c2.03,0,4.03,1.02,5.01,2.93l.03-2.7h2.19v14.79h-2.16l-.06.06Zm-4.93-12.75c-2.68,0-4.84,2.09-4.84,5.39s2.16,5.42,4.84,5.42c6.52,0,6.52-10.84.03-10.84l-.03.03Z"/>
        <path d="m1384.66,624.25h2.05l.11,2.37c1.18-1.77,2.82-2.58,4.63-2.58,3.42,0,5.94,2.51,5.94,6.85v8.18h-2.24v-8.14c0-2.84-1.54-4.61-4.11-4.61-2.47.03-4.16,2.16-4.16,4.82v7.93h-2.22v-14.82Z"/>
        <path d="m1412.05,627.57c-1.18-1.17-2.41-1.44-3.81-1.44-1.86-.03-3.37.69-3.34,2.16.03,1.52,1.67,1.97,3.37,2.18,2.47.33,5.75.87,5.7,4.52-.06,2.96-2.63,4.43-5.67,4.43-2.27,0-4.52-.68-6.05-2.78l1.29-1.71c1.21,1.62,3.15,2.28,4.82,2.28,1.48,0,3.37-.51,3.42-2.3.03-1.62-1.56-2.1-3.64-2.37-2.6-.36-5.39-1.11-5.39-4.25-.03-3.15,2.87-4.37,5.48-4.34,2.02,0,3.69.54,5.15,1.98l-1.29,1.61-.03.03Z"/>
        <path d="m1430.57,639.07h-2.25v-20.96h2.25v20.96Z"/>
        <path d="m1449,636.7c-1.37,1.77-3.72,2.64-5.83,2.64-4.19,0-7.12-3.02-7.12-7.73s2.93-7.66,7.01-7.66,7.28,2.78,6.76,8.68h-11.5c.25,2.72,2.3,4.43,4.9,4.43,1.53,0,3.4-.65,4.3-1.85l1.51,1.5h-.03Zm-1.31-6.11c-.11-2.88-1.92-4.43-4.57-4.43-2.36,0-4.41,1.55-4.79,4.4h9.37v.03Z"/>
        <path d="m1471.18,620c-2.44,0-5.04,1.05-5.04,3.59,0,2.27,2.39,2.93,5.21,3.44,3.83.65,7.61,1.49,7.61,6.22-.03,4.7-4.13,6.23-7.8,6.23-3.4,0-6.63-1.35-8.1-4.85l1.97-1.26c1.23,2.48,3.8,3.68,6.16,3.68s5.43-.81,5.43-3.89c.03-2.61-2.66-3.36-5.53-3.83-3.7-.63-7.29-1.56-7.29-5.81-.05-4.37,4.03-5.87,7.34-5.87,2.85,0,5.56.63,7.26,3.8l-1.81,1.23c-1.04-1.83-3.26-2.67-5.4-2.69Z"/>
        <path d="m1494.62,639.07l-.11-2.37c-1.21,1.8-2.83,2.58-4.71,2.61-3.45,0-5.89-2.54-5.89-6.86v-8.18h2.25v8.14c0,2.85,1.53,4.61,4.11,4.61,2.46-.03,4.16-2.16,4.16-4.82v-7.93h2.25v14.79h-2.08.03Z"/>
        <path d="m1516.15,618.09v20.95h-2.11l-.11-2.69c-1.09,2.03-3.07,2.99-5.06,2.99-3.86,0-6.85-2.78-6.85-7.66s2.98-7.66,6.82-7.66c1.92,0,4.11.96,5.06,2.96v-8.86h2.22l.03-.03Zm-7.12,8.2c-2.63,0-4.76,1.89-4.76,5.36s2.14,5.36,4.76,5.36,4.79-2.16,4.79-5.39-2.14-5.33-4.82-5.33h.03Z"/>
        <path d="m1531.95,629.31v2.33h-9.8v-2.33h9.8Z"/>
        <path d="m1556.71,628.65c-.03,5.48-3.15,10.84-9.72,10.84s-9.75-5.33-9.75-10.84c0-6.08,3.72-10.9,9.77-10.9,6.49.03,9.72,5.36,9.69,10.9Zm-9.69-8.5c-4.87,0-7.39,3.92-7.39,8.5,0,4.25,2.36,8.38,7.39,8.38s7.31-4.25,7.31-8.38c.03-4.25-2.3-8.44-7.31-8.5Z"/>
        <path d="m1572.54,639.07l-.11-2.37c-1.21,1.8-2.83,2.58-4.71,2.61-3.45,0-5.89-2.54-5.89-6.86v-8.18h2.25v8.14c0,2.85,1.53,4.61,4.11,4.61,2.46-.03,4.16-2.16,4.16-4.82v-7.93h2.25v14.79h-2.08.03Z"/>
        <path d="m1592.86,636.7c-1.37,1.77-3.72,2.64-5.83,2.64-4.19,0-7.12-3.02-7.12-7.73s2.93-7.66,7.01-7.66,7.28,2.78,6.76,8.68h-11.5c.25,2.72,2.3,4.43,4.9,4.43,1.53,0,3.4-.65,4.3-1.85l1.51,1.5h-.03Zm-1.31-6.11c-.11-2.88-1.92-4.43-4.57-4.43-2.36,0-4.41,1.55-4.79,4.4h9.37v.03Z"/>
        <path d="m1607.54,627.57c-1.18-1.17-2.41-1.44-3.81-1.44-1.86-.03-3.37.69-3.34,2.16.03,1.52,1.67,1.97,3.37,2.18,2.47.33,5.75.87,5.7,4.52-.06,2.96-2.63,4.43-5.67,4.43-2.27,0-4.52-.68-6.05-2.78l1.29-1.71c1.21,1.62,3.15,2.28,4.82,2.28,1.48,0,3.37-.51,3.42-2.3.03-1.62-1.56-2.1-3.64-2.37-2.6-.36-5.39-1.11-5.39-4.25-.03-3.15,2.87-4.37,5.48-4.34,2.02,0,3.69.54,5.15,1.98l-1.29,1.61-.03.03Z"/>
        <path d="m1618.39,624.31h4.19v2.09h-4.22v7.82c0,1.74.52,2.84,2.14,2.84.6,0,1.28-.21,1.89-.54l.66,2.03c-.9.45-1.73.69-2.63.72-2.91.06-4.28-1.8-4.28-5.06v-7.82h-2.71v-2.09h2.71v-4.07l2.25-.27v4.34Z"/>
      </g>
    </g>
    <g>
      <g>
        <polygon class="cls-1" points="556.04 638.65 556.04 638.64 556.05 638.65 556.04 638.65"/>
        <path d="m608.86,658.15c-2.78,2.62-5.62,5.13-8.54,7.53h-71.25l-26.05-1.19-12.79-4.48-4.98-2.3-4.31,1.32-3.86-2.24-5.78,1.67-3.84-2.02-4.3.92s-6.75-.67-6.75-.78c1.49-.65,3-1.28,4.51-1.87l1.3-2.79,8.12-5.34,3-4.74,1.65-2.61,2.73-3.22,4.76-5.61,3.71.05,2.31-1.43,5.35-5.96h0s.52-.58.52-.58l1.9-2.12,1.3-1.45h2.14l9.44-9.34.53,12.91.1,2.53,3.15,11.88h0l6.46,5.3h0s-1.37-10.05-1.37-10.05l-3.15-2.83-4.03-6.82-.09-.14.16.14,6.02,5.16-2.47-5.27-1.81-3.86h.02s3.5,3.29,3.5,3.29l-1.64-4.04-2.39-3.64h.01s1.65,1.11,1.65,1.11l1.04-.6.72.3,1.16-.67,2.51-1.46,1.04,5.03,1.44,1.35,2.31-2.63h0l5.8-2.65c-.04.08-.06,1.92-.07,3.51,0,.52,0,1.01,0,1.41h0c0,.56,0,.93,0,.93l7.25,8.85.92,5.27h0s.01.08.01.08l-1.38,4.77h0s6.32,4.44,6.32,4.44l-.23-4.96-1.6-1.47h0l-2.68-5.01h.01s3.86,3.44,3.86,3.44l-3.77-9.88-.39-2.84h0s7.46,7.5,7.46,7.5l3.58,3.71,6.89,5h0s-2.03-5.3-2.03-5.3h0l3.57-.26,1.92.5,8.68,7.58v-.03s-2.27-3.95-2.27-3.95h.01s8.16,5.24,8.16,5.24l4.73,3.66,1.33-.53,1.03.94,2.98,1.07,2.67,1.53.1.06,21.92,9Z"/>
        <g>
          <path class="cls-1" d="m565.92,637.18l8.17,5.25-14.18-10.97-4.1.09-7.21-3.84-14.53-10.64c-.16-.13-.33-.25-.5-.38-1.24-.94-2.47-1.88-3.71-2.83h0c-.04.09-.06,1.92-.07,3.52,0,.52,0,1.01,0,1.41h0v.92l7.25,8.86.92,5.27h0s.01.08.01.08l-1.38,4.77,6.32,4.44-.23-4.96h0s-1.6-1.47-1.6-1.47l-2.68-4.99h0s3.87,3.43,3.87,3.43h0s0,0,0,0l-3.78-9.89-.39-2.83h0s7.46,7.5,7.46,7.5l3.58,3.71,6.89,4.99-2.02-5.3h0s3.58-.27,3.58-.27l1.92.5,8.66,7.55.02.02-2.26-3.95v-.02Z"/>
          <polygon class="cls-1" points="514.89 629.3 510.86 622.47 510.78 622.33 510.94 622.47 516.96 627.63 514.5 622.37 512.7 618.52 512.69 618.5 516.2 621.79 514.56 617.75 512.18 614.12 513.83 615.22 514.88 614.61 515.59 614.91 516.75 614.24 509.18 609.56 509.7 622.47 509.8 625 512.95 636.88 519.41 642.17 519.41 642.17 519.42 642.17 518.04 632.13 514.89 629.3"/>
          <polygon class="cls-1" points="520.43 613.36 519.27 612.77 520.31 617.8 521.75 619.15 524.06 616.52 524.06 616.52 520.43 613.36"/>
        </g>
      </g>
      <path d="m557.04,665.69l-23.02-16.17-15.78-5.41h0l-1.9-.02-5.23-6.34-1.62.13-4.93-3.1-2.52.11h-.11s-6.75-6.3-6.75-6.3l1.12-2.7-2.43-2.83-.5-.58-.5-.58-3.31-.5-.24-1.15-1.64-.52h0l-2.8-5.67-1.97-5.3h0s-.61-3.25-.61-3.25l-3.55-1.75h0s-2.6-2.91-2.6-2.91l-6.5,7.16-4.46,2.28-4.65,6.4,2.71,5.03,3.44,2.65,5.35,4.12.74,1.67,2.33,1.3,2.05,4.22.59.32,3.07,1.63,4.66,5.09-7.05-3.68.33,1.12,1.03,2.44-2.36-1.86-2.36-.57,3.56,6.72-5.28-5.05-.55-.53-2.75-4.37-1.82-1.41-.09,1.48-8.48-9.29-2.74-.67-3.07-2.34-.53-.9-2.41-4.12-3.19-3.39-1.81.15-4.11-3.03,2.06,3.96-3.83-2.66.68,2.26-5.56-2.97.32-2.34-.89-2.09-.62.23.87-2.89-.99.99-.2-2.07-.26-.09-1.14-.4,1.11-.34-.12-4.04-4.66-3.23-.38,2.63-1.41,1.82.49-4.13.99-1.68-1.04-.79-1.06,1.23-2.75-3.95,2.1-6.02-.84.43.06-1.78h3.71l.6.17,4.25,4.6.35,1.29,1.42.11-.91-1.43-.31-1.32-.23-3.21-2.68-1.61.14-2.15-1.37,1.17v-3.11h-2.66l-.49-26.32-.49,26.32h-2.47v5.24l-1.71,3.37-5.36,7.12-4.27,3-2.78,5.98-.4.87-4.4,7.21-6.41,5.15-2.9,3.91-5.79,13.43c11.49,12.5,25.03,22.73,39.86,30.39h127.64l-.03-.02Zm-77.11-43.22l-.62.71.26-.71.73-2.03,1.03-1.43,1.36.28-2.76,3.18Zm-53.55-11.28l-1.39-2.56-1.44-1.5-.65,1.07.3,2.77h0s-2.54-2.21-2.54-2.21h0s0,0,0,0l-1.16,2.56-.53,1.16-.16-1.44,1.38-3.06.02-1.82-2.18-3.13h0s.05-.38.05-.38l.32-2.39h0s2.11-4.05,2.11-4.05l2.94,2.95.12,1.75,1.5,1.81h0s.35,3.13.35,3.13l1.55,2.58-.58,2.74Zm13.55,15.01l-3.73-1.97-1.81-1.24-1.41.29-2.34-2.06-1.58-.59h0s-.15-.97-.15-.97l-.71-.98,2.05-3.99v-1.71s-.02-1.63-.02-1.63h0s1.94-2.04,1.94-2.04l-1.02,2.63.75,1.24.73,1.82.79,1.97,1.02.4,3.31,3.67.23,1.33,2.74,2.84h0s3.64,3.7,3.64,3.7l-4.41-2.72Zm53.04.79l1.46-1.51-1.46,3.15h0s0,.01,0,.01v-1.65Zm4.52,23.39l-3.68-3.26-1.06-.62-1.24-2.19-1.96-.37h0l.66,2-1.3-.53-1.77.92,1.38-1.7-.27-1.5,3.69-1.41,5.55,8.65h0Zm8.45,5.45l-2.51-1.62,2.41.87-3.39-3.49h.01s4.69,2.73,4.69,2.73l3.16,3.87-4.37-2.36Z"/>
      <polygon class="cls-1" points="446.88 606.98 446.87 613.65 439.4 606.5 437.79 602.75 434.67 599.85 432.8 596.18 435.94 598.41 434.86 595.65 438.73 598.56 441.78 602.59 446.88 606.98"/>
      <g>
        <path class="cls-1" d="m480.81,637.64l-3.07-1.63-.59-.32-2.05-4.22-2.33-1.3-.74-1.67-5.35-4.12-3.44-2.65-2.71-5.03-3.54-6.59-2.56-2.95-2.69-5.67-6.41-4.64-3.17-4.25-.39-.53-3.1-4.91-7.6-5.19h0s0,0,0,0l-.14,2.14,2.68,1.6.23,3.21.31,1.32.92,1.43-1.42-.11h0s-.35-1.3-.35-1.3l-4.24-4.59-.62-.17-1.14-.31h-.01s-.75-.21-.75-.21l-1.74-.85-.05,1.38-.06,1.78.84-.43-2.1,6.02,2.75,3.95,1.06-1.23,1.04.79-.99,1.68-.49,4.13,1.41-1.82.38-2.63,4.66,3.23.12,4.04-1.11.34,1.14.4.26.09.2,2.07.99-.99-.87,2.89.62-.23.89,2.09-.32,2.34,5.56,2.97-.68-2.26,3.83,2.66-2.06-3.96,4.11,3.03,1.81-.15,3.19,3.39,2.41,4.12.53.9,3.07,2.34,2.74.67,8.48,9.29.09-1.48,1.82,1.41,2.75,4.37.55.53,5.28,5.05-3.56-6.72,2.36.57,2.36,1.86-1.03-2.44-.33-1.12,7.05,3.68-4.66-5.09Zm-33.94-24h0s-7.47-7.14-7.47-7.14l-1.61-3.76-1.48-1.38-1.64-1.52h0s-1.87-3.67-1.87-3.67l3.14,2.23-1.08-2.75h0l3.5,2.63.37.28,3.05,4.03,5.1,4.39v6.66Z"/>
        <polygon class="cls-1" points="511.51 635.46 508.93 633.11 504.85 629.78 500.14 622.47 499.33 621.23 496.69 621.01 496.3 620.35 489.09 608.17 478.63 599.19 476.15 600.85 478.75 603.76 482.3 605.52 482.91 608.76 482.91 608.77 484.88 614.06 487.68 619.73 489.33 620.24 489.57 621.4 492.87 621.9 492.88 621.9 493.37 622.47 493.38 622.47 493.87 623.05 496.31 625.89 495.18 628.59 501.93 634.89 502.03 634.88 504.55 634.77 509.48 637.87 511.1 637.74 511.1 637.74 516.34 644.08 518.23 644.1 518.24 644.1 511.51 635.46"/>
        <polygon class="cls-1" points="425.06 602.74 423.56 600.93 423.44 599.17 420.5 596.22 418.39 600.27 418.02 603.03 420.2 606.16 420.18 607.98 418.8 611.04 418.95 612.48 420.65 608.76 423.2 610.99 422.9 608.21 423.55 607.13 424.99 608.64 426.38 611.19 426.96 608.45 425.41 605.87 425.06 602.74"/>
        <polygon class="cls-1" points="437.96 622.38 437.74 621.04 434.42 617.37 433.41 616.97 431.89 613.18 431.15 611.95 432.17 609.31 430.22 611.35 430.24 614.7 428.19 618.69 428.9 619.67 429.05 620.63 430.63 621.22 432.97 623.28 434.38 622.98 436.19 624.23 439.93 626.2 444.35 628.93 440.7 625.22 437.96 622.38"/>
        <polygon class="cls-1" points="488.25 643.13 488.52 644.64 487.14 646.33 488.91 645.41 490.21 645.94 489.55 643.94 491.52 644.31 492.75 646.5 493.81 647.12 497.49 650.38 491.94 641.71 488.25 643.13"/>
        <polygon class="cls-1" points="502.45 651.58 505.85 655.07 503.43 654.19 505.94 655.81 510.31 658.18 507.15 654.31 502.45 651.58"/>
        <polygon class="cls-1" points="492.97 628.63 494.44 625.46 492.97 626.98 492.97 628.63"/>
        <polygon class="cls-1" points="481.33 619.01 480.3 620.45 479.32 623.18 482.7 619.29 481.33 619.01"/>
      </g>
    </g>
    <g>
      <polygon points="523.7 473.11 535.47 482.65 542.4 476.05 551.55 483.54 567.48 462.79 534.79 436.32 519.47 457.27 528.76 464.88 523.7 473.11"/>
      <path d="m603.26,412.55l29.32-41.45-33.01-23.43-61.8,84.55,32.78,26.55,20.31-28.7c30.75,27.12,48.63,66.02,48.63,107.81,0,44.76-20.53,84.8-52.66,111.21-7.74,6.37-16.14,11.93-25.1,16.59h-4.7l.03.02h-127.64c-14.83-7.66-28.36-17.9-39.86-30.39l-9.13,21.16c3.33,3.23,6.77,6.31,10.34,9.24,11.26,9.26,23.68,16.95,37.11,22.99,21.33,9.58,44.09,14.43,67.65,14.43,38.66,0,75.3-13.19,104.77-37.44,2.92-2.4,5.76-4.91,8.54-7.53,1.19-1.11,2.36-2.26,3.53-3.42,31.22-31.21,48.41-72.71,48.41-116.85,0-48.77-21.16-94.14-57.53-125.33Z"/>
    </g>
  </g>
  <text class="cls-2" transform="translate(1647.52 45.32)"><tspan class="cls-9" x="0" y="0">v</tspan><tspan class="cls-11" x="17.03" y="0">e</tspan><tspan class="cls-6" x="35.07" y="0">r</tspan><tspan class="cls-7" x="46.69" y="0">t</tspan><tspan class="cls-6" x="57.5" y="0">i</tspan><tspan class="cls-11" x="63" y="0">c</tspan><tspan class="cls-5" x="81.09" y="0">a</tspan><tspan x="98.21" y="0">l </tspan><tspan class="cls-10" x="111.51" y="0">v</tspan><tspan class="cls-12" x="128.54" y="0">e</tspan><tspan class="cls-5" x="146.58" y="0">r</tspan><tspan class="cls-3" x="158.64" y="0">s</tspan><tspan class="cls-6" x="174.49" y="0">io</tspan><tspan x="198.37" y="0">n</tspan><tspan class="cls-11" x="0" y="26.86">b</tspan><tspan x="18.06" y="26.86">l</tspan><tspan class="cls-6" x="24.75" y="26.86">a</tspan><tspan x="41.43" y="26.86">ck</tspan></text>
  <g>
    <g>
      <rect class="cls-1" x="1869.3" y="541.3" width="34.52" height="201.4"/>
      <g>
        <g>
          <g>
            <polygon class="cls-4" points="1882.11 722.59 1882.12 722.61 1882.09 722.61 1882.09 733.91 1884.72 733.91 1884.72 725.21 1893.44 733.93 1895.3 732.06 1883.97 720.73 1882.11 722.59"/>
            <rect class="cls-4" x="1889.22" y="723.35" width="6.06" height="2.63"/>
          </g>
          <g>
            <polygon points="1879.8 710.17 1877.93 712.03 1889.27 723.36 1891.13 721.5 1891.11 721.49 1891.14 721.49 1891.14 710.18 1888.51 710.18 1888.51 718.88 1879.8 710.17"/>
            <rect x="1877.95" y="718.11" width="6.06" height="2.63"/>
          </g>
        </g>
        <g>
          <path d="m1879.19,693v-.56h6.73v2.81h-2.24v8.98h2.24v2.81h-6.73v-.56h-.56v-1.12h-.56v-11.22h.56v-1.12h.56Zm3.37,2.24h-2.81v.56h-.56v7.86h.56v.56h2.81v-8.98Z"/>
          <path d="m1880.31,680.65v-.56h5.61v2.81h-5.05v.56h-.56v3.93h.56v.56h.56v.56h4.49v2.81h-6.73v-2.81h1.12v-.56h-.56v-1.12h-.56v-5.05h.56v-1.12h.56Z"/>
          <path d="m1881.43,667.75v6.17h2.81v-.56h.56v-2.81h-.56v-.56h-.56v-2.24h1.12v.56h.56v1.12h.56v5.61h-.56v1.12h-.56v.56h-3.37v2.24h-1.12v-2.24h-1.12v-.56h-.56v-1.12h-.56v-1.12h2.24v-6.17h1.12Z"/>
          <path d="m1880.31,655.96v-.56h1.12v2.81h-.56v.56h-.56v4.49h.56v.56h.56v-.56h.56v-6.17h.56v-1.12h.56v-.56h1.68v.56h.56v1.12h.56v7.86h-.56v1.12h-.56v.56h-1.12v-2.81h.56v-.56h.56v-4.49h-.56v-.56h-.56v.56h-.56v6.17h-.56v1.12h-.56v.56h-1.68v-.56h-.56v-1.12h-.56v-7.86h.56v-1.12h.56Z"/>
          <path d="m1885.92,643.06v2.24h-.56v.56h-.56v.56h.56v1.12h.56v5.05h-.56v1.12h-.56v.56h-4.49v-.56h-.56v-1.12h-.56v-5.05h.56v-1.12h.56v-.56h-1.12v-2.81h6.73Zm-1.68,3.93v-.56h-.56v-.56h-2.24v.56h-.56v.56h-.56v3.93h.56v.56h3.37v-.56h.56v-3.93h-.56Z"/>
          <path d="m1888.49,693v-.56h2.24v.56h.56v1.12h.56v1.12h.56v-.56h.56v-.56h.56v-.56h.56v-.56h.56v-.56h.56v2.81h-.56v.56h-.56v.56h-.56v.56h-.56v.56h-.56v.56h-.56v6.17h3.37v2.81h-7.86v-12.91h.56v-1.12h.56Zm1.68,2.81v-.56h-1.12v.56h-.56v8.42h2.24v-8.42h-.56Z"/>
          <path d="m1895.23,680.09v2.24h-.56v.56h-.56v.56h.56v1.12h.56v5.05h-.56v1.12h-.56v.56h-4.49v-.56h-.56v-1.12h-.56v-5.05h.56v-1.12h.56v-.56h-1.12v-2.81h6.73Zm-1.68,3.93v-.56h-.56v-.56h-2.24v.56h-.56v.56h-.56v3.93h.56v.56h3.37v-.56h.56v-3.93h-.56Z"/>
          <path d="m1890.18,666.63v.56h.56v.56h.56v.56h.56v.56h.56v.56h.56v.56h.56v.56h.56v.56h.56v.56h.56v2.24h-.56v.56h-.56v.56h-.56v.56h-.56v.56h-.56v.56h-.56v.56h-.56v.56h-.56v.56h-.56v.56h-1.68v-1.68h.56v-.56h.56v-.56h.56v-.56h.56v-.56h.56v-.56h.56v-.56h.56v-.56h.56v-1.12h-.56v-.56h-.56v-.56h-.56v-.56h-.56v-.56h-.56v-.56h-.56v-.56h-.56v-.56h-.56v-1.68h1.68Z"/>
          <path d="m1889.61,654.84v-.56h4.49v.56h.56v1.12h.56v7.86h-.56v1.12h-.56v.56h-4.49v-.56h-.56v-1.12h-.56v-7.86h.56v-1.12h.56Zm3.93,7.29h.56v-4.49h-.56v-.56h-3.37v.56h-.56v4.49h.56v.56h3.37v-.56Z"/>
          <path d="m1895.23,641.93v2.24h-.56v.56h-.56v.56h.56v1.12h.56v5.05h-.56v1.12h-.56v.56h-4.49v-.56h-.56v-1.12h-.56v-5.05h.56v-1.12h.56v-.56h-1.12v-2.81h6.73Zm-1.68,3.93v-.56h-.56v-.56h-2.24v.56h-.56v.56h-.56v3.93h.56v.56h3.37v-.56h.56v-3.93h-.56Z"/>
          <path d="m1895.23,636.32v.56h1.12v.56h.56v1.12h.56v2.24h-1.12v-1.12h-.56v-.56h-6.73v-2.81h6.17Zm-8.42.56v-.56h1.12v.56h.56v1.68h-.56v.56h-1.12v-.56h-.56v-1.68h.56Z"/>
          <path d="m1895.23,623.98v2.24h-.56v.56h-.56v.56h.56v1.12h.56v5.05h-.56v1.12h-.56v.56h-4.49v-.56h-.56v-1.12h-.56v-5.05h.56v-1.12h.56v-.56h-1.12v-2.81h6.73Zm-1.68,3.93v-.56h-.56v-.56h-2.24v.56h-.56v.56h-.56v3.93h.56v.56h3.37v-.56h.56v-3.93h-.56Z"/>
          <path d="m1889.61,612.19v-.56h5.61v2.81h-5.05v.56h-.56v3.93h.56v.56h.56v.56h4.49v2.81h-6.73v-2.81h1.12v-.56h-.56v-1.12h-.56v-5.05h.56v-1.12h.56Z"/>
          <path d="m1895.23,599.29v2.24h-.56v.56h-.56v.56h.56v1.12h.56v5.05h-.56v1.12h-.56v.56h-4.49v-.56h-.56v-1.12h-.56v-5.05h.56v-1.12h.56v-.56h-1.12v-2.81h6.73Zm-1.68,3.93v-.56h-.56v-.56h-2.24v.56h-.56v.56h-.56v3.93h.56v.56h3.37v-.56h.56v-3.93h-.56Z"/>
          <path d="m1889.61,587.5v-.56h5.61v2.81h-5.05v.56h-.56v3.93h.56v.56h.56v.56h4.49v2.81h-8.98v-2.81h3.37v-.56h-.56v-1.12h-.56v-5.05h.56v-1.12h.56Z"/>
          <path d="m1895.23,574.6v2.24h-.56v.56h-.56v.56h.56v1.12h.56v5.05h-.56v1.12h-.56v.56h-4.49v-.56h-.56v-1.12h-.56v-5.05h.56v-1.12h.56v-.56h-1.12v-2.81h6.73Zm-1.68,3.93v-.56h-.56v-.56h-2.24v.56h-.56v.56h-.56v3.93h.56v.56h3.37v-.56h.56v-3.93h-.56Z"/>
          <path d="m1889.61,562.81v-.56h2.24v2.81h-1.68v.56h-.56v3.37h.56v1.12h.56v.56h4.49v2.81h-6.73v-2.81h1.12v-.56h-.56v-1.12h-.56v-5.05h.56v-1.12h.56Z"/>
          <path d="m1895.23,549.91v.56h1.12v.56h.56v1.12h.56v7.29h-.56v1.12h-.56v.56h-1.12v-2.81h.56v-.56h.56v-4.49h-.56v-.56h-2.24v.56h.56v.56h.56v6.17h-.56v.56h-.56v.56h-5.05v-2.81h4.49v-.56h.56v-3.93h-.56v-.56h-.56v-.56h-3.93v-2.81h6.73Z"/>
        </g>
      </g>
    </g>
    <text class="cls-8" transform="translate(1890.12 502.56) rotate(-90)"><tspan x="0" y="0">X</tspan></text>
    <image width="3072" height="1536" transform="translate(1856.88 463.52) rotate(-90) scale(.04)" xlink:href="../../04-DOCUMENTS/CONTRAT-CORTEX/CORTEX LOGO COULEUR.png"/>
  </g>
</svg>