<?xml version="1.0" encoding="UTF-8"?>
<svg id="Layer_1" data-name="Layer 1" xmlns="http://www.w3.org/2000/svg" xmlns:xlink="http://www.w3.org/1999/xlink" viewBox="0 0 1920 1080">
  <defs>
    <style>
      .cls-1 {
        fill: #fff;
      }

      .cls-2 {
        font-family: Widy-Thin, Widy;
        font-size: 22.38px;
        font-weight: 200;
      }

      .cls-3 {
        letter-spacing: 0em;
      }

      .cls-4 {
        letter-spacing: .05em;
      }

      .cls-5 {
        letter-spacing: .03em;
      }

      .cls-6 {
        fill: blue;
      }

      .cls-7 {
        letter-spacing: .01em;
      }

      .cls-8 {
        letter-spacing: -.01em;
      }

      .cls-9 {
        letter-spacing: .05em;
      }

      .cls-10 {
        fill: #ecf0f8;
      }

      .cls-11 {
        letter-spacing: .03em;
      }

      .cls-12 {
        letter-spacing: 0em;
      }

      .cls-13 {
        letter-spacing: .04em;
      }

      .cls-14 {
        font-family: MyriadPro-Regular, 'Myriad Pro';
        font-size: 12.13px;
      }

      .cls-15 {
        letter-spacing: -.02em;
      }

      .cls-16 {
        letter-spacing: -.04em;
      }

      .cls-17 {
        letter-spacing: .02em;
      }

      .cls-18 {
        letter-spacing: .02em;
      }
    </style>
  </defs>
  <g>
    <g>
      <g>
        <path d="m656.83,821.84h-18.48l-30.05-34.14h-20.88v34.14h-15.8v-98.91c15.38,0,30.62.14,46,.14,22.86,0,34.85,15.66,34.85,32.31,0,14.11-7.34,27.94-26.81,30.76l29.49,32.88,1.69,2.82Zm-69.42-84.37v35.84h30.06c13.12,0,18.91-8.32,18.91-17.64s-5.78-18.2-18.76-18.2h-30.2Z"/>
        <path d="m746.29,821.84h-72.94v-98.77h72.52v15.38h-56.72v26.67h54.47v14.67h-54.47v26.52h57.15v15.52Z"/>
        <path d="m825.58,744.95c-4.66-6.77-14.11-10.86-24.41-11.01-13.26,0-22.86,5.5-22.86,14.96s11.01,12.28,23.98,14.11c20.32,2.82,39.65,8.46,39.65,30.62-.14,22.15-20.32,30.48-40.92,30.48-18.91,0-33.44-5.78-42.47-22.43l11.85-7.9c7.05,11.99,19.33,16.23,30.76,16.23s24.97-3.95,24.97-16.37c0-10.72-11.43-14.39-25.26-16.23-19.61-2.68-38.24-7.62-38.24-28.78-.14-20.46,20.32-28.36,38.1-28.36,14.25,0,28.5,3.39,36.82,16.65l-11.99,8.04Z"/>
        <path d="m932.66,821.84h-72.94v-98.77h72.52v15.38h-56.72v26.67h54.47v14.67h-54.47v26.52h57.15v15.52Z"/>
        <path d="m1021.41,801.1h-53.48l-9.31,20.74h-16.79l44.3-98.77h17.21l44.3,98.77h-16.79l-9.45-20.74Zm-26.67-61.38l-20.88,46.98h41.76l-20.88-46.98Z"/>
        <path d="m1146.55,821.84h-18.48l-30.05-34.14h-20.88v34.14h-15.81v-98.91c15.38,0,30.62.14,46,.14,22.86,0,34.85,15.66,34.85,32.31,0,14.11-7.34,27.94-26.81,30.76l29.49,32.88,1.69,2.82Zm-69.42-84.37v35.84h30.05c13.12,0,18.91-8.32,18.91-17.64s-5.78-18.2-18.76-18.2h-30.19Z"/>
        <path d="m1246.16,809.14c-10.16,10.02-23.28,14.67-37.11,14.67-35.84,0-51.92-24.69-52.06-50.65-.14-25.96,16.79-51.78,52.06-51.78,13.26,0,26.1,4.94,36.12,14.96l-10.58,10.16c-7.05-6.91-16.37-10.16-25.54-10.16-25.11,0-36.54,18.48-36.4,36.69.14,18.06,10.86,35.98,36.4,35.98,9.17,0,19.33-3.81,26.24-10.72l10.86,10.86Z"/>
        <path d="m1330.25,821.84v-41.06h-52.21v41.06h-15.8v-98.77h15.8v43.04h52.21v-43.04h15.66v98.77h-15.66Z"/>
      </g>
      <g>
        <path d="m573.14,865.15h9.16v2.13h-11.26v-18.37h2.09v16.25Z"/>
        <path d="m596.74,865.2c-1.2,1.55-3.27,2.31-5.12,2.31-3.68,0-6.25-2.65-6.25-6.77s2.57-6.72,6.16-6.72,6.4,2.44,5.94,7.61h-10.1c.22,2.39,2.02,3.88,4.3,3.88,1.35,0,2.98-.58,3.78-1.63l1.32,1.31h-.02Zm-1.16-5.35c-.1-2.52-1.68-3.89-4.01-3.89-2.07,0-3.87,1.37-4.21,3.86h8.22v.03Z"/>
        <path d="m609.95,854.36h1.88l.1,2.49c.94-1.73,2.69-2.73,4.57-2.73,3.42.08,5.92,2.7,5.92,6.69s-2.48,6.75-6.04,6.75c-1.68,0-3.56-.79-4.5-2.63v8.45h-1.92v-19.03Zm10.48,6.51c0-2.91-1.75-4.65-4.18-4.65s-4.16,2-4.16,4.65,1.75,4.65,4.16,4.67c2.38,0,4.18-1.76,4.18-4.67Z"/>
        <path d="m636.81,867.33l-.05-2.36c-.94,1.79-2.74,2.63-4.38,2.63-3.42,0-6.09-2.57-6.09-6.8s2.72-6.72,6.11-6.69c1.78,0,3.54.89,4.4,2.57l.02-2.36h1.92v12.97h-1.9l-.05.05Zm-4.33-11.18c-2.36,0-4.25,1.84-4.25,4.72s1.9,4.75,4.25,4.75c5.72,0,5.72-9.5.02-9.5l-.02.03Z"/>
        <path d="m646.01,854.28l.14,1.94c.82-1.68,2.29-2.15,3.66-2.15,1.03-.03,2.04.37,2.76.97l-.89,1.84c-.62-.47-1.25-.71-2.07-.71-1.9.03-3.49,1.5-3.49,3.88v7.22h-1.97v-12.97h1.83l.02-.03Z"/>
        <path d="m659.58,854.33h3.68v1.84h-3.7v6.85c0,1.52.46,2.49,1.88,2.49.53,0,1.13-.18,1.66-.47l.58,1.79c-.79.39-1.51.6-2.31.63-2.55.05-3.75-1.57-3.75-4.44v-6.85h-2.38v-1.84h2.38v-3.57l1.97-.24v3.81Z"/>
        <path d="m678.21,865.2c-1.2,1.55-3.27,2.31-5.12,2.31-3.68,0-6.25-2.65-6.25-6.77s2.57-6.72,6.16-6.72,6.4,2.44,5.94,7.61h-10.1c.22,2.39,2.02,3.88,4.3,3.88,1.35,0,2.98-.58,3.78-1.63l1.32,1.31h-.02Zm-1.16-5.35c-.1-2.52-1.68-3.89-4.01-3.89-2.07,0-3.87,1.37-4.21,3.86h8.22v.03Z"/>
        <path d="m683.46,854.28h1.8l.1,2.07c1.03-1.55,2.48-2.26,4.06-2.26,3.01,0,5.22,2.2,5.22,6.01v7.17h-1.97v-7.14c0-2.49-1.35-4.04-3.61-4.04-2.16.03-3.66,1.89-3.66,4.23v6.96h-1.95v-12.99Z"/>
        <path d="m709.63,867.33l-.05-2.36c-.94,1.79-2.74,2.63-4.38,2.63-3.42,0-6.09-2.57-6.09-6.8s2.72-6.72,6.11-6.69c1.78,0,3.54.89,4.4,2.57l.02-2.36h1.92v12.97h-1.9l-.05.05Zm-4.33-11.18c-2.36,0-4.25,1.84-4.25,4.72s1.9,4.75,4.25,4.75c5.72,0,5.72-9.5.02-9.5l-.02.03Z"/>
        <path d="m719.28,850.37c0,1.86-2.6,1.86-2.6-.03s2.6-1.86,2.6.03Zm-2.31,16.9h1.97v-13.02h-1.97v13.02Z"/>
        <path d="m726.2,854.28l.14,1.94c.82-1.68,2.29-2.15,3.66-2.15,1.03-.03,2.04.37,2.76.97l-.89,1.84c-.62-.47-1.25-.71-2.07-.71-1.9.03-3.49,1.5-3.49,3.88v7.22h-1.97v-12.97h1.83l.02-.03Z"/>
        <path d="m746.68,865.2c-1.2,1.55-3.27,2.31-5.12,2.31-3.68,0-6.25-2.65-6.25-6.77s2.57-6.72,6.16-6.72,6.4,2.44,5.94,7.61h-10.1c.22,2.39,2.02,3.88,4.3,3.88,1.35,0,2.98-.58,3.78-1.63l1.32,1.31h-.02Zm-1.16-5.35c-.1-2.52-1.68-3.89-4.01-3.89-2.07,0-3.87,1.37-4.21,3.86h8.22v.03Z"/>
        <path d="m771.57,848.88v18.37h-1.85l-.1-2.36c-.96,1.78-2.69,2.62-4.45,2.62-3.39,0-6.01-2.44-6.01-6.72s2.62-6.72,5.99-6.72c1.68,0,3.61.84,4.45,2.6v-7.77h1.95l.02-.03Zm-6.25,7.19c-2.31,0-4.18,1.65-4.18,4.7s1.88,4.7,4.18,4.7,4.21-1.89,4.21-4.72-1.87-4.67-4.23-4.67h.02Z"/>
        <path d="m787.59,865.2c-1.2,1.55-3.27,2.31-5.12,2.31-3.68,0-6.25-2.65-6.25-6.77s2.57-6.72,6.16-6.72,6.4,2.44,5.94,7.61h-10.1c.22,2.39,2.02,3.88,4.3,3.88,1.35,0,2.98-.58,3.78-1.63l1.32,1.31h-.02Zm-1.16-5.35c-.1-2.52-1.68-3.89-4.01-3.89-2.07,0-3.87,1.37-4.21,3.86h8.22v.03Z"/>
        <path d="m802.91,867.28h-1.97v-18.37h1.97v18.37Z"/>
        <path d="m818.22,867.33l-.05-2.36c-.94,1.79-2.74,2.63-4.38,2.63-3.42,0-6.09-2.57-6.09-6.8s2.72-6.72,6.11-6.69c1.78,0,3.54.89,4.4,2.57l.02-2.36h1.92v12.97h-1.9l-.05.05Zm-4.33-11.18c-2.36,0-4.25,1.84-4.25,4.72s1.9,4.75,4.25,4.75c5.72,0,5.72-9.5.02-9.5l-.02.03Z"/>
        <path d="m840.13,860.66h-4.09v6.61h-2.09v-18.37h7.65c3.8,0,5.7,2.89,5.7,5.88.02,2.78-1.37,5.38-4.84,5.69l5.55,6.8h-2.64l-5.24-6.61Zm5.07-5.83c.02-1.84-1.18-3.88-3.61-3.88h-5.55v7.67h5.46c2.53,0,3.7-1.71,3.7-3.78Z"/>
        <path d="m862.47,865.2c-1.2,1.55-3.27,2.31-5.12,2.31-3.68,0-6.25-2.65-6.25-6.77s2.57-6.72,6.16-6.72,6.4,2.44,5.94,7.61h-10.1c.22,2.39,2.02,3.88,4.3,3.88,1.35,0,2.98-.58,3.78-1.63l1.32,1.31h-.02Zm-1.16-5.35c-.1-2.52-1.68-3.89-4.01-3.89-2.07,0-3.87,1.37-4.21,3.86h8.22v.03Z"/>
        <path d="m877.6,865.52c-1.27,1.39-2.79,2-4.42,2-3.39,0-6.21-2.39-6.21-6.72s2.77-6.72,6.21-6.72c1.61,0,3.05.6,4.3,1.94l-1.25,1.42c-.84-.89-1.95-1.31-3-1.31-2.36,0-4.26,1.76-4.26,4.67s1.92,4.67,4.23,4.67c1.13,0,2.26-.42,3.1-1.36l1.32,1.44-.02-.03Z"/>
        <path d="m883.87,848.93v7.53c1.01-1.71,2.6-2.28,4.11-2.31,3.34,0,4.98,2.41,4.98,5.98v7.14h-1.95v-7.11c0-2.54-1.2-3.99-3.37-3.99s-3.75,1.86-3.75,4.23v6.88h-1.97v-18.37h1.95v.03Z"/>
        <path d="m908.81,865.2c-1.2,1.55-3.27,2.31-5.12,2.31-3.68,0-6.25-2.65-6.25-6.77s2.57-6.72,6.16-6.72,6.4,2.44,5.94,7.61h-10.1c.22,2.39,2.02,3.88,4.3,3.88,1.35,0,2.98-.58,3.78-1.63l1.32,1.31h-.02Zm-1.16-5.35c-.1-2.52-1.68-3.89-4.01-3.89-2.07,0-3.87,1.37-4.21,3.86h8.22v.03Z"/>
        <path d="m915.92,854.28l.14,1.94c.82-1.68,2.29-2.15,3.66-2.15,1.03-.03,2.04.37,2.76.97l-.89,1.84c-.62-.47-1.25-.71-2.07-.71-1.9.03-3.49,1.5-3.49,3.88v7.22h-1.97v-12.97h1.83l.02-.03Z"/>
        <path d="m935.64,865.52c-1.27,1.39-2.79,2-4.42,2-3.39,0-6.21-2.39-6.21-6.72s2.77-6.72,6.21-6.72c1.61,0,3.05.6,4.3,1.94l-1.25,1.42c-.84-.89-1.95-1.31-3-1.31-2.36,0-4.26,1.76-4.26,4.67s1.92,4.67,4.23,4.67c1.13,0,2.26-.42,3.1-1.36l1.32,1.44-.02-.03Z"/>
        <path d="m941.91,848.93v7.53c1.01-1.71,2.6-2.28,4.11-2.31,3.34,0,4.98,2.41,4.98,5.98v7.14h-1.95v-7.11c0-2.54-1.2-3.99-3.37-3.99s-3.75,1.86-3.75,4.23v6.88h-1.97v-18.37h1.95v.03Z"/>
        <path d="m966.85,865.2c-1.2,1.55-3.27,2.31-5.12,2.31-3.68,0-6.25-2.65-6.25-6.77s2.57-6.72,6.16-6.72,6.4,2.44,5.94,7.61h-10.1c.22,2.39,2.02,3.88,4.3,3.88,1.35,0,2.98-.58,3.78-1.63l1.32,1.31h-.02Zm-1.16-5.35c-.1-2.52-1.68-3.89-4.01-3.89-2.07,0-3.87,1.37-4.21,3.86h8.22v.03Z"/>
        <path d="m989.1,861.5h-.43l-6.11-9.35v15.12h-2.07v-18.37h2.5l5.92,9.45,5.87-9.45h2.5v18.37h-2.07v-15.07l-6.11,9.29Z"/>
        <path d="m1014.13,861.63h-10.05c.21,2.42,1.97,3.91,4.26,3.91,1.35,0,2.98-.58,3.78-1.63l1.32,1.31c-1.2,1.55-3.27,2.31-5.12,2.31-3.68,0-6.25-2.65-6.25-6.77s2.57-6.72,6.14-6.72,6.4,2.44,5.94,7.64v-.05Zm-10.03-1.76h8.17c-.1-2.52-1.68-3.88-4.01-3.88-2.07,0-3.82,1.36-4.16,3.86v.02Zm2.86-7.82v.13h1.8l2.41-3.41v-.05h-2.43l-1.78,3.33Z"/>
        <path d="m1030.35,848.88v18.37h-1.85l-.1-2.36c-.96,1.78-2.69,2.62-4.45,2.62-3.39,0-6.01-2.44-6.01-6.72s2.62-6.72,5.99-6.72c1.68,0,3.61.84,4.45,2.6v-7.77h1.95l.02-.03Zm-6.25,7.19c-2.31,0-4.18,1.65-4.18,4.7s1.88,4.7,4.18,4.7,4.21-1.89,4.21-4.72-1.87-4.67-4.23-4.67h.02Z"/>
        <path d="m1038.05,850.37c0,1.86-2.6,1.86-2.6-.03s2.6-1.86,2.6.03Zm-2.31,16.9h1.97v-13.02h-1.97v13.02Z"/>
        <path d="m1053,865.52c-1.27,1.39-2.79,2-4.42,2-3.39,0-6.21-2.39-6.21-6.72s2.77-6.72,6.21-6.72c1.61,0,3.05.6,4.3,1.94l-1.25,1.42c-.84-.89-1.95-1.31-3-1.31-2.36,0-4.26,1.76-4.26,4.67s1.92,4.67,4.23,4.67c1.13,0,2.26-.42,3.1-1.36l1.32,1.44-.02-.03Z"/>
        <path d="m1066.82,867.33l-.05-2.36c-.94,1.79-2.74,2.63-4.38,2.63-3.42,0-6.09-2.57-6.09-6.8s2.72-6.72,6.11-6.69c1.78,0,3.54.89,4.4,2.57l.02-2.36h1.92v12.97h-1.9l-.05.05Zm-4.33-11.18c-2.36,0-4.25,1.84-4.25,4.72s1.9,4.75,4.25,4.75c5.72,0,5.72-9.5.02-9.5l-.02.03Z"/>
        <path d="m1076.28,867.28h-1.97v-18.37h1.97v18.37Z"/>
        <path d="m1092.45,865.2c-1.2,1.55-3.27,2.31-5.12,2.31-3.68,0-6.25-2.65-6.25-6.77s2.57-6.72,6.16-6.72,6.4,2.44,5.94,7.61h-10.1c.22,2.39,2.02,3.88,4.3,3.88,1.35,0,2.98-.58,3.78-1.63l1.32,1.31h-.02Zm-1.16-5.35c-.1-2.52-1.68-3.89-4.01-3.89-2.07,0-3.87,1.37-4.21,3.86h8.22v.03Z"/>
        <path d="m1117.34,848.88v18.37h-1.85l-.1-2.36c-.96,1.78-2.69,2.62-4.45,2.62-3.39,0-6.01-2.44-6.01-6.72s2.62-6.72,5.99-6.72c1.68,0,3.61.84,4.45,2.6v-7.77h1.95l.02-.03Zm-6.25,7.19c-2.31,0-4.18,1.65-4.18,4.7s1.88,4.7,4.18,4.7,4.21-1.89,4.21-4.72-1.87-4.67-4.23-4.67h.02Z"/>
        <path d="m1132.49,867.33l-.05-2.36c-.94,1.79-2.74,2.63-4.38,2.63-3.42,0-6.09-2.57-6.09-6.8s2.72-6.72,6.11-6.69c1.78,0,3.54.89,4.4,2.57l.02-2.36h1.92v12.97h-1.9l-.05.05Zm-4.33-11.18c-2.36,0-4.25,1.84-4.25,4.72s1.9,4.75,4.25,4.75c5.72,0,5.72-9.5.02-9.5l-.02.03Z"/>
        <path d="m1139.84,854.28h1.8l.1,2.07c1.03-1.55,2.48-2.26,4.06-2.26,3.01,0,5.22,2.2,5.22,6.01v7.17h-1.97v-7.14c0-2.49-1.35-4.04-3.61-4.04-2.16.03-3.66,1.89-3.66,4.23v6.96h-1.95v-12.99Z"/>
        <path d="m1163.87,857.2c-1.04-1.02-2.12-1.26-3.34-1.26-1.64-.03-2.96.6-2.94,1.89.02,1.34,1.47,1.73,2.96,1.92,2.17.29,5.05.76,5,3.96-.05,2.6-2.31,3.88-4.98,3.88-2,0-3.97-.6-5.31-2.44l1.13-1.5c1.06,1.42,2.76,2,4.23,2,1.3,0,2.96-.45,3-2.02.02-1.42-1.37-1.84-3.2-2.07-2.28-.31-4.74-.97-4.74-3.73-.02-2.76,2.53-3.83,4.81-3.81,1.78,0,3.24.47,4.52,1.73l-1.13,1.42-.02.03Z"/>
        <path d="m1180.1,867.28h-1.97v-18.37h1.97v18.37Z"/>
        <path d="m1196.28,865.2c-1.2,1.55-3.27,2.31-5.12,2.31-3.68,0-6.25-2.65-6.25-6.77s2.57-6.72,6.16-6.72,6.4,2.44,5.94,7.61h-10.1c.22,2.39,2.02,3.88,4.3,3.88,1.35,0,2.98-.58,3.78-1.63l1.32,1.31h-.02Zm-1.16-5.35c-.1-2.52-1.68-3.89-4.01-3.89-2.07,0-3.87,1.37-4.21,3.86h8.22v.03Z"/>
        <path d="m1215.73,850.56c-2.14,0-4.42.92-4.42,3.15,0,2,2.09,2.57,4.57,3.02,3.37.58,6.69,1.31,6.69,5.46-.02,4.12-3.63,5.46-6.85,5.46-2.98,0-5.82-1.18-7.12-4.25l1.73-1.1c1.08,2.18,3.34,3.23,5.41,3.23s4.76-.71,4.76-3.41c.02-2.28-2.33-2.94-4.86-3.36-3.25-.55-6.4-1.36-6.4-5.09-.05-3.83,3.54-5.15,6.44-5.15,2.5,0,4.88.55,6.37,3.33l-1.58,1.08c-.92-1.6-2.86-2.33-4.74-2.36Z"/>
        <path d="m1236.3,867.28l-.1-2.07c-1.06,1.58-2.48,2.26-4.14,2.28-3.03,0-5.17-2.23-5.17-6.01v-7.17h1.97v7.14c0,2.49,1.35,4.04,3.61,4.04,2.17-.03,3.66-1.89,3.66-4.23v-6.96h1.97v12.97h-1.83.02Z"/>
        <path d="m1255.19,848.88v18.37h-1.85l-.1-2.36c-.96,1.78-2.69,2.62-4.45,2.62-3.39,0-6.01-2.44-6.01-6.72s2.62-6.72,5.99-6.72c1.68,0,3.61.84,4.45,2.6v-7.77h1.95l.02-.03Zm-6.25,7.19c-2.31,0-4.18,1.65-4.18,4.7s1.88,4.7,4.18,4.7,4.21-1.89,4.21-4.72-1.87-4.67-4.23-4.67h.02Z"/>
        <path d="m1269.05,858.72v2.05h-8.61v-2.05h8.61Z"/>
        <path d="m1290.77,858.14c-.02,4.8-2.76,9.5-8.54,9.5s-8.56-4.67-8.56-9.5c0-5.33,3.27-9.55,8.58-9.55,5.7.03,8.54,4.7,8.51,9.55Zm-8.51-7.46c-4.28,0-6.49,3.44-6.49,7.46,0,3.73,2.07,7.35,6.49,7.35s6.42-3.73,6.42-7.35c.02-3.73-2.02-7.4-6.42-7.46Z"/>
        <path d="m1304.65,867.28l-.1-2.07c-1.06,1.58-2.48,2.26-4.14,2.28-3.03,0-5.17-2.23-5.17-6.01v-7.17h1.97v7.14c0,2.49,1.35,4.04,3.61,4.04,2.17-.03,3.66-1.89,3.66-4.23v-6.96h1.97v12.97h-1.83.02Z"/>
        <path d="m1322.48,865.2c-1.2,1.55-3.27,2.31-5.12,2.31-3.68,0-6.25-2.65-6.25-6.77s2.57-6.72,6.16-6.72,6.4,2.44,5.94,7.61h-10.1c.22,2.39,2.02,3.88,4.3,3.88,1.35,0,2.98-.58,3.78-1.63l1.32,1.31h-.02Zm-1.16-5.35c-.1-2.52-1.68-3.89-4.01-3.89-2.07,0-3.87,1.37-4.21,3.86h8.22v.03Z"/>
        <path d="m1335.35,857.2c-1.04-1.02-2.12-1.26-3.34-1.26-1.64-.03-2.96.6-2.94,1.89.02,1.34,1.47,1.73,2.96,1.92,2.17.29,5.05.76,5,3.96-.05,2.6-2.31,3.88-4.98,3.88-2,0-3.97-.6-5.31-2.44l1.13-1.5c1.06,1.42,2.76,2,4.23,2,1.3,0,2.96-.45,3-2.02.02-1.42-1.37-1.84-3.2-2.07-2.28-.31-4.74-.97-4.74-3.73-.02-2.76,2.53-3.83,4.81-3.81,1.78,0,3.24.47,4.52,1.73l-1.13,1.42-.02.03Z"/>
        <path d="m1344.86,854.33h3.68v1.84h-3.7v6.85c0,1.52.46,2.49,1.88,2.49.53,0,1.13-.18,1.66-.47l.58,1.79c-.79.39-1.51.6-2.31.63-2.55.05-3.75-1.57-3.75-4.44v-6.85h-2.38v-1.84h2.38v-3.57l1.97-.24v3.81Z"/>
      </g>
    </g>
    <g>
      <path d="m964.49,674.85l-.74-30.17c2.07-.05,4.17-.13,6.24-.25l1.67,30.14c-2.38.13-4.79.23-7.16.29Zm-30.4-1.23c-2.36-.25-4.75-.54-7.11-.86l4.07-29.91c2.05.28,4.14.53,6.2.75l-3.16,30.02Zm67.77-2.71l-5.55-29.67c2.03-.38,4.09-.8,6.12-1.24l6.45,29.48c-2.33.51-4.69.99-7.02,1.42Zm-104.7-4.19c-2.29-.62-4.6-1.29-6.88-1.98l8.78-28.88c1.99.6,4,1.18,6,1.72l-7.89,29.13Zm-35.36-12.71c-2.16-.98-4.34-2.01-6.48-3.06l13.31-27.09c1.86.91,3.75,1.81,5.63,2.66l-12.46,27.49Zm-32.86-18.24c-1.98-1.32-3.97-2.69-5.9-4.06l17.5-24.59c1.68,1.19,3.4,2.38,5.13,3.53l-16.73,25.12Zm-29.49-23.27c-1.74-1.61-3.48-3.27-5.17-4.94l21.18-21.5c1.48,1.46,3,2.91,4.51,4.32l-20.53,22.12Zm-25.43-27.64c-1.46-1.87-2.92-3.79-4.34-5.72l24.33-17.87c1.23,1.68,2.5,3.35,3.78,4.98l-23.77,18.6Zm-20.72-31.39c-1.14-2.08-2.27-4.21-3.36-6.34l26.89-13.72c.95,1.85,1.93,3.71,2.92,5.52l-26.45,14.54Zm-15.39-34.32c-.79-2.23-1.56-4.52-2.29-6.79l28.74-9.21c.64,1.98,1.31,3.97,2,5.92l-28.45,10.09Zm-9.67-36.32c-.42-2.33-.82-4.71-1.17-7.07l29.85-4.49c.31,2.06.65,4.13,1.02,6.16l-29.69,5.4Zm-3.75-37.38c-.03-1.57-.05-3.13-.05-4.7,0-.82,0-1.64.01-2.47l30.18.32c0,.72-.01,1.43-.01,2.14,0,1.37.01,2.73.04,4.1l-30.18.61Zm32.14-33.3l-29.89-4.2c.33-2.35.7-4.73,1.11-7.08l29.74,5.12c-.35,2.05-.68,4.12-.96,6.17Zm7.14-31.94l-28.83-8.93c.71-2.28,1.45-4.57,2.22-6.81l28.54,9.81c-.67,1.95-1.32,3.94-1.94,5.93Zm12.17-30.37l-27.02-13.45c1.06-2.12,2.16-4.26,3.29-6.36l26.59,14.27c-.98,1.83-1.94,3.69-2.86,5.53Zm16.89-28l-24.51-17.62c1.39-1.93,2.82-3.86,4.27-5.75l23.95,18.37c-1.26,1.64-2.51,3.32-3.71,5Zm21.17-24.96l-21.38-21.31.4-.4c1.54-1.54,3.13-3.08,4.71-4.59l20.75,21.92c-1.39,1.31-2.77,2.66-4.12,4l-.37.37Zm24.89-21.32l-17.74-24.42c1.93-1.4,3.9-2.79,5.87-4.13l16.98,24.95c-1.71,1.17-3.43,2.38-5.11,3.6Zm27.95-17.04l-13.57-26.96c2.13-1.07,4.3-2.12,6.46-3.13l12.73,27.36c-1.88.87-3.77,1.79-5.62,2.72Zm30.33-12.31l-9.06-28.79c2.27-.72,4.59-1.4,6.87-2.05l8.17,29.05c-1.99.56-4,1.16-5.98,1.78Zm31.93-7.3l-4.35-29.87c2.36-.34,4.75-.65,7.11-.93l3.44,29.98c-2.06.24-4.14.51-6.19.81Zm38.33-1.96c-1.91-.08-3.81-.14-5.65-.17l.47-30.18c2.12.03,4.3.1,6.48.19l-1.29,30.15Z"/>
      <path d="m959.33,647.7c-55.02,0-106.76-21.43-145.66-60.34-38.91-38.91-60.34-90.64-60.34-145.66s21.43-106.76,60.34-145.66c38.91-38.91,90.64-60.34,145.66-60.34s106.76,21.43,145.67,60.34c38.91,38.91,60.34,90.64,60.34,145.66s-21.43,106.76-60.34,145.66c-38.91,38.91-90.64,60.34-145.67,60.34Zm0-408.65c-111.74,0-202.65,90.91-202.65,202.65s90.91,202.65,202.65,202.65,202.65-90.91,202.65-202.65-90.91-202.65-202.65-202.65Z"/>
      <path d="m958.76,676.69c-62.77,0-121.78-24.44-166.16-68.83-44.38-44.38-68.83-103.4-68.83-166.16s24.44-121.78,68.83-166.16c44.38-44.38,103.4-68.83,166.16-68.83s121.78,24.44,166.16,68.83c44.38,44.38,68.83,103.4,68.83,166.16s-24.44,121.78-68.83,166.16c-44.38,44.38-103.4,68.83-166.16,68.83Zm0-469.17c-129.13,0-234.18,105.05-234.18,234.18s105.05,234.18,234.18,234.18,234.18-105.05,234.18-234.18-105.05-234.18-234.18-234.18Z"/>
      <path class="cls-1" d="m998.7,528.84h0s-6.85,3.13-6.85,3.13h0l-4.27-3.72-1.37-.7,1.22,5.94-1.23-5.93-2.97,1.73-8.93-5.52.61,15.24h1.47c1.43,0,2.83-.04,4.19-.13h0c6.9-.4,12.91-1.81,18.04-4.22h0c.6-.28,1.2-.58,1.78-.89.93-.5,1.84-1.03,2.7-1.6-1.47-1.11-2.92-2.22-4.38-3.34Zm-35.56,5.95h-2.53l-1.53,1.71-8.51-14.38-12.34-10.6-2.93,1.97-7.67,8.46-5.27,2.69-5.49,7.56-4.18-7.78-3.03-3.48-3.18-6.7-7.57-5.48-3.74-5.02-4.48,6.71-2.43,3.65-3.44,5.17-4.95,7.43c.4.38.8.75,1.22,1.11h0c.94.84,1.88,1.63,2.82,2.38,4.99,3.98,10.07,6.75,15.24,8.31,2.99.9,6.06,1.6,9.19,2.09,3.74.59,7.58.89,11.53.89,1.44,0,2.87-.07,4.26-.21,3.46-.34,6.76-1.08,9.92-2.25h40.85l-.62-15.24-11.14,11.03Z"/>
      <path d="m1017.62,471.85c-1.85-4.72-4.38-8.72-7.59-12-3.22-3.29-6.87-5.81-10.98-7.59,3.42-1.91,6.29-4.17,8.62-6.76,2.32-2.6,4.1-5.72,5.33-9.34,1.23-3.62,1.84-7.9,1.84-12.82,0-7.66-1.64-14.19-4.92-19.59-3.29-5.4-7.9-9.54-13.84-12.41-5.95-2.87-12.9-4.31-20.83-4.31h-82.67v32.83h24.82l-29.54,54.36h20.93c2.87,0,5.67.39,8.41,1.13,2.74.75,5.03,2.02,6.87,3.8,1.85,1.78,2.77,4.24,2.77,7.38,0,2.33-.51,4.45-1.54,6.36-1.02,1.92-2.53,3.45-4.51,4.62-1.99,1.16-4.34,1.74-7.08,1.74s-5.64-.52-8.72-1.54c-3.08-1.02-5.72-2.77-7.89-5.23l-1.93,2.89,3.74,5.02,7.57,5.48,3.18,6.7,3.03,3.48,4.18,7.78,5.49-7.56,5.27-2.69,7.67-8.46,2.93-1.97,12.34,10.6,8.51,14.38,1.53-1.71h2.53l11.14-11.03h0l8.93,5.52,2.97-1.73h0s1.37.7,1.37.7l4.27,3.72h0l6.85-3.13h0c1.47,1.11,2.92,2.22,4.38,3.33,5.18-3.34,9.24-7.73,12.17-13.17,3.42-6.36,5.13-13.78,5.13-22.26,0-6.29-.92-11.79-2.77-16.51Zm-49.55-47.73h4.11c1.64,0,2.98.51,4,1.54,1.03,1.02,1.78,2.53,2.25,4.51.48,1.99.72,4.48.72,7.49,0,2.73-.24,5.1-.72,7.07-.48,1.99-1.27,3.49-2.35,4.52-1.1,1.02-2.6,1.53-4.52,1.53h-3.49v-26.67Zm11.18,80.42c-.75,2.19-1.68,3.72-2.77,4.61-1.1.9-2.19,1.33-3.29,1.33h-5.13v-30.97h4.52c1.37,0,2.63.44,3.8,1.33,1.16.9,2.11,2.46,2.87,4.72.75,2.26,1.13,5.44,1.13,9.55s-.38,7.25-1.13,9.44Z"/>
      <g>
        <rect x="873.27" y="488.91" width="7.2" height="6.47"/>
        <polygon points="876.17 489.72 876.76 457.84 877.35 489.72 876.17 489.72 876.17 489.72"/>
        <g>
          <g>
            <polygon class="cls-1" points="1029.6 558.1 1029.6 558.09 1029.61 558.1 1029.6 558.1"/>
            <path class="cls-1" d="m1041.28,556.39l2.67,4.67-.02-.03-10.22-8.92-2.26-.59-4.22.31h0s2.39,6.26,2.39,6.26l-8.14-5.89-4.22-4.38-8.81-8.87v.02l.46,3.34,4.46,11.67h-.02s-4.57-4.07-4.57-4.07v.02s3.17,5.89,3.17,5.89l1.89,1.73h0s.27,5.87.27,5.87l-7.46-5.25,1.63-5.63-.02-.08h0s-1.08-6.24-1.08-6.24l-8.56-10.46v-1.08h0c0-.48,0-1.06,0-1.67.02-1.89.04-4.06.08-4.15h0c1.47,1.11,2.92,2.22,4.38,3.33.19.15.39.29.59.44l17.15,12.56,8.51,4.53,4.84-.11,16.74,12.95-9.65-6.19v.03Z"/>
            <g>
              <path d="m1091.96,581.13c-3.28,3.09-6.64,6.06-10.08,8.89h-84.11l-30.75-1.41-15.09-5.29-5.87-2.72-5.09,1.56-4.56-2.64-6.82,1.97-4.53-2.38-5.07,1.08s-7.97-.8-7.97-.92c1.76-.77,3.54-1.51,5.32-2.21l1.53-3.29,9.59-6.3,3.55-5.6,1.95-3.08,3.23-3.8,5.62-6.62,4.38.06,2.73-1.68,6.31-7.04h0s.61-.69.61-.69l2.25-2.51,1.53-1.71h2.53l11.14-11.03.62,15.24.12,2.98,3.71,14.02h0l7.63,6.25h0s-1.62-11.86-1.62-11.86l-3.72-3.34-4.75-8.05-.1-.17.19.17,7.11,6.09-2.92-6.22-2.14-4.56.02.02,4.13,3.86-1.94-4.77-2.82-4.3h.02s1.94,1.31,1.94,1.31l1.23-.71.85.35,1.37-.8,2.97-1.73,1.23,5.93,1.7,1.59,2.72-3.11h0l6.85-3.13c-.04.09-.07,2.26-.08,4.15,0,.61,0,1.19,0,1.66h0c0,.66,0,1.1,0,1.1l8.56,10.45,1.09,6.23h0s.02.09.02.09l-1.63,5.63h0s7.46,5.25,7.46,5.25l-.27-5.86-1.89-1.73h0l-3.17-5.91h0v.02s4.57,4.05,4.57,4.05l-4.45-11.66-.46-3.35h0s8.81,8.86,8.81,8.86l4.22,4.38,8.14,5.9h0s-2.4-6.26-2.4-6.26h0l4.22-.31,2.27.6,10.24,8.94-.02-.03-2.67-4.66.02.02,9.64,6.17,5.58,4.32,1.58-.63,1.21,1.11,3.52,1.27,3.15,1.81.12.07,25.88,10.63Z"/>
              <polygon class="cls-1" points="986.37 562.26 986.37 562.25 978.74 556.01 975.02 541.99 974.9 539.01 974.29 523.76 983.23 529.28 981.86 530.08 981.01 529.73 979.78 530.44 977.84 529.14 980.64 533.43 982.58 538.2 978.43 534.31 978.45 534.34 980.57 538.88 983.48 545.1 976.37 539.01 976.18 538.84 976.28 539.01 981.03 547.06 984.75 550.4 986.38 562.26 986.37 562.26"/>
            </g>
            <polygon class="cls-1" points="991.86 531.97 989.13 535.08 987.42 533.49 986.2 527.55 987.57 528.25 991.85 531.97 991.86 531.97"/>
          </g>
          <path d="m1030.79,590.02l-27.17-19.09-18.63-6.39h0l-2.25-.03-6.18-7.48-1.91.15-5.82-3.65-2.97.13h-.13s-7.96-7.43-7.96-7.43l1.32-3.18-2.87-3.34-.59-.69-.59-.68-3.91-.59-.28-1.36-1.94-.61h0l-3.31-6.69-2.32-6.25h0s-.72-3.84-.72-3.84l-4.19-2.07h0s-3.07-3.44-3.07-3.44l-7.67,8.46-5.27,2.69-5.49,7.56,3.2,5.94,4.06,3.13,6.31,4.86.87,1.97,2.75,1.53,2.41,4.98.7.38,3.62,1.93,5.51,6.01-8.32-4.34.39,1.32,1.22,2.87-2.78-2.2-2.78-.68,4.21,7.93-6.24-5.96-.65-.62-3.25-5.15-2.15-1.67-.1,1.75-10.02-10.97-3.23-.8-3.62-2.77-.62-1.06-2.84-4.86-3.76-4.01-2.14.18-4.85-3.58,2.43,4.68-4.52-3.13.8,2.67-6.56-3.51.38-2.77-1.05-2.46-.74.28,1.03-3.41-1.17,1.16-.23-2.45-.3-.1-1.34-.47,1.32-.4-.14-4.77-5.5-3.81-.44,3.11-1.67,2.15.58-4.88,1.17-1.98-1.23-.93-1.25,1.45-3.24-4.66,2.48-7.11-.99.51.07-2.1.06-1.63-1.34,1.22-.07.13-2.02,3.98-6.33,8.41-5.05,3.54-3.28,7.06-.48,1.03-5.19,8.51-7.57,6.08-3.43,4.62-6.84,15.85c13.57,14.75,29.54,26.83,47.05,35.88h150.67l-.03-.03Zm-155.88-67.35l-1.7-1.77-.77,1.27.35,3.27h0s-3-2.61-3-2.61h0s0,0,0,0l-1.37,3.03-.63,1.37-.18-1.7,1.63-3.61.02-2.15-2.57-3.7h0s.06-.44.06-.44l.38-2.82h0s2.49-4.79,2.49-4.79l3.47,3.49.14,2.07,1.77,2.14h0s.41,3.7.41,3.7l1.83,3.05-.68,3.24-1.64-3.02Zm17.63,20.73l-4.41-2.32-2.14-1.47-1.67.34-2.76-2.43-1.87-.7h0s-.18-1.14-.18-1.14l-.84-1.16,2.41-4.71-.02-2.02v-1.93s0,0,0,0l2.3-2.4-1.21,3.11.88,1.46.86,2.15.93,2.32,1.2.48,3.91,4.33.27,1.58,3.23,3.35h0s4.29,4.37,4.29,4.37l-5.2-3.21Zm73.81,29.96h0s5.54,3.22,5.54,3.22l3.73,4.57-5.16-2.79-2.96-1.91,2.84,1.03-4.01-4.12h0Zm-5.87-1.43h0v.02l-4.34-3.85-1.26-.74-1.46-2.58-2.31-.44h0l.78,2.36-1.53-.62-2.09,1.08,1.63-2-.32-1.78,4.36-1.67,6.55,10.21Zm-3.6-29.38l-1.72,3.71h0s0,.02,0,.02v-1.94l1.73-1.79Zm-16.68-5.94l1.22-1.68,1.61.33-3.26,3.75-.73.84.3-.84.86-2.4Z"/>
          <path class="cls-1" d="m939.59,562.77l-1.22-2.87-.39-1.32,8.32,4.34-5.51-6.01-3.62-1.93-.7-.38-2.41-4.98-2.75-1.53-.87-1.97-6.31-4.86-4.06-3.13-3.2-5.94-4.18-7.78-3.03-3.48-3.18-6.7-7.57-5.48-3.74-5.02-.46-.62-3.66-5.79-8.97-6.13h0s0,0,0,0l-.16,2.53,3.16,1.89.28,3.79.37,1.56,1.08,1.68-1.68-.13h0s-.41-1.53-.41-1.53l-5.01-5.42-.73-.2-1.34-.37h-.02s-.89-.25-.89-.25l-2.05-1.01-.06,1.63-.07,2.1.99-.51-2.48,7.11,3.24,4.66,1.25-1.45,1.23.93-1.17,1.98-.58,4.88,1.67-2.15.44-3.11,5.5,3.81.14,4.77-1.32.4,1.34.47.3.1.23,2.45,1.17-1.16-1.03,3.41.74-.28,1.05,2.46-.38,2.77,6.56,3.51-.8-2.67,4.52,3.13-2.43-4.68,4.85,3.58,2.14-.18,3.76,4.01,2.84,4.86.62,1.06,3.62,2.77,3.23.8,10.02,10.97.1-1.75,2.15,1.67,3.25,5.15.65.62,6.24,5.96-4.21-7.93,2.78.68,2.78,2.2Zm-38.85-34.19h0s-8.82-8.42-8.82-8.42l-1.9-4.43-1.75-1.63-1.94-1.79h0s-2.2-4.33-2.2-4.33l3.7,2.63-1.27-3.25h0l4.13,3.1.44.33,3.6,4.75,6.03,5.19-.02,7.86Z"/>
          <polygon class="cls-1" points="984.99 564.54 984.98 564.54 982.74 564.51 976.55 557.03 976.55 557.02 974.64 557.18 968.83 553.52 965.85 553.66 965.73 553.66 957.76 546.22 959.1 543.04 956.22 539.68 955.64 539.01 955.63 539.01 955.05 538.33 955.04 538.33 951.14 537.74 950.86 536.37 948.91 535.77 945.6 529.07 943.27 522.83 943.27 522.82 942.55 518.99 938.36 516.91 935.3 513.49 938.23 511.52 950.57 522.12 959.08 536.5 959.54 537.28 962.67 537.54 963.61 539.01 969.18 547.64 973.99 551.56 977.04 554.34 984.99 564.54"/>
          <polygon points="886.81 502.66 885.13 502.53 884.72 501 879.71 495.57 877.64 495 882.08 491.19 881.92 493.73 885.08 495.62 885.36 499.41 885.73 500.98 886.81 502.66"/>
          <polygon class="cls-10" points="877.23 522.45 876.55 525.69 874.9 522.67 873.2 520.9 872.43 522.17 872.79 525.45 869.78 522.82 867.78 527.22 867.6 525.51 869.23 521.9 869.25 519.75 866.68 516.05 867.12 512.79 869.61 508.01 873.08 511.49 873.22 513.57 874.99 515.71 875.4 519.4 877.23 522.45"/>
          <polygon class="cls-10" points="897.77 546.63 892.54 543.4 888.13 541.08 886 539.61 884.33 539.96 881.57 537.53 879.7 536.83 879.53 535.69 878.68 534.54 881.1 529.83 881.08 525.88 883.38 523.47 882.18 526.58 883.06 528.04 884.85 532.51 886.04 532.99 889.95 537.32 890.22 538.89 893.45 542.25 897.77 546.63"/>
          <polygon points="900.75 520.72 900.74 528.59 891.92 520.16 890.02 515.72 886.33 512.3 884.12 507.97 887.83 510.6 886.55 507.35 891.13 510.78 894.73 515.53 900.75 520.72"/>
          <polygon class="cls-1" points="960.49 571.94 956.15 568.1 954.89 567.37 953.44 564.78 951.12 564.34 951.9 566.71 950.36 566.09 948.27 567.17 949.9 565.17 949.58 563.39 953.94 561.72 960.49 571.94"/>
          <polygon class="cls-1" points="975.63 581.15 970.47 578.35 967.5 576.45 970.36 577.49 966.34 573.36 971.9 576.59 975.63 581.15"/>
          <polygon class="cls-1" points="956.89 542.53 955.15 546.27 955.15 544.33 956.89 542.53"/>
          <polygon class="cls-1" points="943.03 535.25 939.04 539.84 940.2 536.61 941.41 534.92 943.03 535.25"/>
        </g>
      </g>
      <g>
        <polygon points="1004.52 319.26 1043.11 350.51 1024.3 375.01 1013.51 366.17 1005.33 373.95 991.43 362.7 997.4 352.98 986.44 344 1004.52 319.26"/>
        <polygon points="1046.75 345.77 1008.05 314.43 1081 214.62 1119.96 242.28 1046.75 345.77"/>
      </g>
      <g>
        <path d="m1081.88,590.02c-34.79,28.63-78.04,44.2-123.68,44.2-27.82,0-54.68-5.73-79.86-17.04-15.86-7.12-30.51-16.21-43.81-27.14-4.21-3.45-8.27-7.09-12.2-10.9l10.78-24.97c13.57,14.75,29.54,26.83,47.05,35.88h150.67l-.03-.03h51.09Z"/>
        <path d="m1153.26,439.15c0,52.1-20.29,101.1-57.14,137.94-1.37,1.37-2.76,2.72-4.17,4.04-3.28,3.09-6.64,6.06-10.08,8.89h-45.54c10.57-5.5,20.49-12.07,29.63-19.59,37.93-31.18,62.16-78.45,62.16-131.28,0-58.2-29.3-111.72-78.37-143.18l13.57-21.17c56.32,36.1,89.94,97.53,89.94,164.35Z"/>
      </g>
    </g>
  </g>
  <text class="cls-2" transform="translate(1647.52 45.32)"><tspan class="cls-3" x="0" y="0">h</tspan><tspan class="cls-12" x="17.57" y="0">o</tspan><tspan class="cls-13" x="35.94" y="0">r</tspan><tspan x="48.23" y="0">i</tspan><tspan class="cls-8" x="53.51" y="0">z</tspan><tspan class="cls-7" x="70.84" y="0">o</tspan><tspan class="cls-16" x="89.21" y="0">n</tspan><tspan class="cls-9" x="106.49" y="0">t</tspan><tspan class="cls-11" x="117.53" y="0">a</tspan><tspan x="134.65" y="0">l </tspan><tspan class="cls-15" x="147.94" y="0">v</tspan><tspan class="cls-18" x="164.98" y="0">e</tspan><tspan class="cls-5" x="183.02" y="0">r</tspan><tspan class="cls-4" x="195.08" y="0">s</tspan><tspan class="cls-12" x="210.93" y="0">io</tspan><tspan x="234.81" y="0">n</tspan><tspan class="cls-17" x="0" y="26.86">b</tspan><tspan x="18.06" y="26.86">l</tspan><tspan class="cls-12" x="24.75" y="26.86">a</tspan><tspan x="41.43" y="26.86">ck</tspan></text>
  <g>
    <g>
      <rect class="cls-1" x="1869.3" y="541.3" width="34.52" height="201.4"/>
      <g>
        <g>
          <g>
            <polygon class="cls-6" points="1882.11 722.59 1882.12 722.61 1882.09 722.61 1882.09 733.91 1884.72 733.91 1884.72 725.21 1893.44 733.93 1895.3 732.06 1883.97 720.73 1882.11 722.59"/>
            <rect class="cls-6" x="1889.22" y="723.35" width="6.06" height="2.63"/>
          </g>
          <g>
            <polygon points="1879.8 710.17 1877.93 712.03 1889.27 723.36 1891.13 721.5 1891.11 721.49 1891.14 721.49 1891.14 710.18 1888.51 710.18 1888.51 718.88 1879.8 710.17"/>
            <rect x="1877.95" y="718.11" width="6.06" height="2.63"/>
          </g>
        </g>
        <g>
          <path d="m1879.19,693v-.56h6.73v2.81h-2.24v8.98h2.24v2.81h-6.73v-.56h-.56v-1.12h-.56v-11.22h.56v-1.12h.56Zm3.37,2.24h-2.81v.56h-.56v7.86h.56v.56h2.81v-8.98Z"/>
          <path d="m1880.31,680.65v-.56h5.61v2.81h-5.05v.56h-.56v3.93h.56v.56h.56v.56h4.49v2.81h-6.73v-2.81h1.12v-.56h-.56v-1.12h-.56v-5.05h.56v-1.12h.56Z"/>
          <path d="m1881.43,667.75v6.17h2.81v-.56h.56v-2.81h-.56v-.56h-.56v-2.24h1.12v.56h.56v1.12h.56v5.61h-.56v1.12h-.56v.56h-3.37v2.24h-1.12v-2.24h-1.12v-.56h-.56v-1.12h-.56v-1.12h2.24v-6.17h1.12Z"/>
          <path d="m1880.31,655.96v-.56h1.12v2.81h-.56v.56h-.56v4.49h.56v.56h.56v-.56h.56v-6.17h.56v-1.12h.56v-.56h1.68v.56h.56v1.12h.56v7.86h-.56v1.12h-.56v.56h-1.12v-2.81h.56v-.56h.56v-4.49h-.56v-.56h-.56v.56h-.56v6.17h-.56v1.12h-.56v.56h-1.68v-.56h-.56v-1.12h-.56v-7.86h.56v-1.12h.56Z"/>
          <path d="m1885.92,643.06v2.24h-.56v.56h-.56v.56h.56v1.12h.56v5.05h-.56v1.12h-.56v.56h-4.49v-.56h-.56v-1.12h-.56v-5.05h.56v-1.12h.56v-.56h-1.12v-2.81h6.73Zm-1.68,3.93v-.56h-.56v-.56h-2.24v.56h-.56v.56h-.56v3.93h.56v.56h3.37v-.56h.56v-3.93h-.56Z"/>
          <path d="m1888.49,693v-.56h2.24v.56h.56v1.12h.56v1.12h.56v-.56h.56v-.56h.56v-.56h.56v-.56h.56v-.56h.56v2.81h-.56v.56h-.56v.56h-.56v.56h-.56v.56h-.56v.56h-.56v6.17h3.37v2.81h-7.86v-12.91h.56v-1.12h.56Zm1.68,2.81v-.56h-1.12v.56h-.56v8.42h2.24v-8.42h-.56Z"/>
          <path d="m1895.23,680.09v2.24h-.56v.56h-.56v.56h.56v1.12h.56v5.05h-.56v1.12h-.56v.56h-4.49v-.56h-.56v-1.12h-.56v-5.05h.56v-1.12h.56v-.56h-1.12v-2.81h6.73Zm-1.68,3.93v-.56h-.56v-.56h-2.24v.56h-.56v.56h-.56v3.93h.56v.56h3.37v-.56h.56v-3.93h-.56Z"/>
          <path d="m1890.18,666.63v.56h.56v.56h.56v.56h.56v.56h.56v.56h.56v.56h.56v.56h.56v.56h.56v.56h.56v2.24h-.56v.56h-.56v.56h-.56v.56h-.56v.56h-.56v.56h-.56v.56h-.56v.56h-.56v.56h-.56v.56h-1.68v-1.68h.56v-.56h.56v-.56h.56v-.56h.56v-.56h.56v-.56h.56v-.56h.56v-.56h.56v-1.12h-.56v-.56h-.56v-.56h-.56v-.56h-.56v-.56h-.56v-.56h-.56v-.56h-.56v-.56h-.56v-1.68h1.68Z"/>
          <path d="m1889.61,654.84v-.56h4.49v.56h.56v1.12h.56v7.86h-.56v1.12h-.56v.56h-4.49v-.56h-.56v-1.12h-.56v-7.86h.56v-1.12h.56Zm3.93,7.29h.56v-4.49h-.56v-.56h-3.37v.56h-.56v4.49h.56v.56h3.37v-.56Z"/>
          <path d="m1895.23,641.93v2.24h-.56v.56h-.56v.56h.56v1.12h.56v5.05h-.56v1.12h-.56v.56h-4.49v-.56h-.56v-1.12h-.56v-5.05h.56v-1.12h.56v-.56h-1.12v-2.81h6.73Zm-1.68,3.93v-.56h-.56v-.56h-2.24v.56h-.56v.56h-.56v3.93h.56v.56h3.37v-.56h.56v-3.93h-.56Z"/>
          <path d="m1895.23,636.32v.56h1.12v.56h.56v1.12h.56v2.24h-1.12v-1.12h-.56v-.56h-6.73v-2.81h6.17Zm-8.42.56v-.56h1.12v.56h.56v1.68h-.56v.56h-1.12v-.56h-.56v-1.68h.56Z"/>
          <path d="m1895.23,623.98v2.24h-.56v.56h-.56v.56h.56v1.12h.56v5.05h-.56v1.12h-.56v.56h-4.49v-.56h-.56v-1.12h-.56v-5.05h.56v-1.12h.56v-.56h-1.12v-2.81h6.73Zm-1.68,3.93v-.56h-.56v-.56h-2.24v.56h-.56v.56h-.56v3.93h.56v.56h3.37v-.56h.56v-3.93h-.56Z"/>
          <path d="m1889.61,612.19v-.56h5.61v2.81h-5.05v.56h-.56v3.93h.56v.56h.56v.56h4.49v2.81h-6.73v-2.81h1.12v-.56h-.56v-1.12h-.56v-5.05h.56v-1.12h.56Z"/>
          <path d="m1895.23,599.29v2.24h-.56v.56h-.56v.56h.56v1.12h.56v5.05h-.56v1.12h-.56v.56h-4.49v-.56h-.56v-1.12h-.56v-5.05h.56v-1.12h.56v-.56h-1.12v-2.81h6.73Zm-1.68,3.93v-.56h-.56v-.56h-2.24v.56h-.56v.56h-.56v3.93h.56v.56h3.37v-.56h.56v-3.93h-.56Z"/>
          <path d="m1889.61,587.5v-.56h5.61v2.81h-5.05v.56h-.56v3.93h.56v.56h.56v.56h4.49v2.81h-8.98v-2.81h3.37v-.56h-.56v-1.12h-.56v-5.05h.56v-1.12h.56Z"/>
          <path d="m1895.23,574.6v2.24h-.56v.56h-.56v.56h.56v1.12h.56v5.05h-.56v1.12h-.56v.56h-4.49v-.56h-.56v-1.12h-.56v-5.05h.56v-1.12h.56v-.56h-1.12v-2.81h6.73Zm-1.68,3.93v-.56h-.56v-.56h-2.24v.56h-.56v.56h-.56v3.93h.56v.56h3.37v-.56h.56v-3.93h-.56Z"/>
          <path d="m1889.61,562.81v-.56h2.24v2.81h-1.68v.56h-.56v3.37h.56v1.12h.56v.56h4.49v2.81h-6.73v-2.81h1.12v-.56h-.56v-1.12h-.56v-5.05h.56v-1.12h.56Z"/>
          <path d="m1895.23,549.91v.56h1.12v.56h.56v1.12h.56v7.29h-.56v1.12h-.56v.56h-1.12v-2.81h.56v-.56h.56v-4.49h-.56v-.56h-2.24v.56h.56v.56h.56v6.17h-.56v.56h-.56v.56h-5.05v-2.81h4.49v-.56h.56v-3.93h-.56v-.56h-.56v-.56h-3.93v-2.81h6.73Z"/>
        </g>
      </g>
    </g>
    <text class="cls-14" transform="translate(1890.12 502.56) rotate(-90)"><tspan x="0" y="0">X</tspan></text>
    <image width="3072" height="1536" transform="translate(1856.88 463.52) rotate(-90) scale(.04)" xlink:href="../../04-DOCUMENTS/CONTRAT-CORTEX/CORTEX LOGO COULEUR.png"/>
  </g>
</svg>