<?xml version="1.0" encoding="UTF-8"?>
<svg xmlns="http://www.w3.org/2000/svg" xmlns:xlink="http://www.w3.org/1999/xlink" viewBox="0 0 1920 1080">
  <defs>
    <style>
      .cls-1, .cls-2, .cls-3 {
        fill: #fff;
      }

      .cls-4 {
        letter-spacing: .05em;
      }

      .cls-5 {
        fill: blue;
      }

      .cls-2 {
        font-family: Widy-Thin, Widy;
        font-size: 22.38px;
        font-weight: 200;
      }

      .cls-6 {
        letter-spacing: 0em;
      }

      .cls-7 {
        letter-spacing: .03em;
      }

      .cls-8 {
        letter-spacing: 0em;
      }

      .cls-9 {
        letter-spacing: 0em;
      }

      .cls-10 {
        letter-spacing: .04em;
      }

      .cls-11 {
        letter-spacing: -.02em;
      }

      .cls-3 {
        font-family: MyriadPro-Regular, 'Myriad Pro';
        font-size: 12.13px;
      }

      .cls-12 {
        letter-spacing: .02em;
      }
    </style>
  </defs>
  <g id="Layer_2" data-name="Layer 2">
    <rect x="-11.78" y="-2.39" width="1940.87" height="1086.26"/>
  </g>
  <g id="Layer_1" data-name="Layer 1">
    <g>
      <g>
        <path class="cls-1" d="m1011.51,614.35h0s-8.98,4.11-8.98,4.11h-.01l-5.6-4.88-1.8-.92,1.6,7.79-1.62-7.78-3.89,2.26-11.71-7.24.8,19.99h1.92c1.88,0,3.71-.05,5.49-.16h.01c9.04-.53,16.92-2.37,23.66-5.53h0c.79-.36,1.57-.76,2.33-1.16,1.22-.66,2.41-1.35,3.54-2.1-1.92-1.45-3.82-2.91-5.75-4.37Zm-46.62,7.8h-3.32l-2.01,2.24-11.15-18.86-16.19-13.9-3.85,2.58-10.05,11.09-6.91,3.53-7.2,9.91-5.48-10.2-3.97-4.56-4.16-8.78-9.92-7.19-4.9-6.58-5.88,8.8-3.19,4.78-4.52,6.78-6.49,9.74c.53.49,1.05.98,1.59,1.46h.01c1.23,1.1,2.46,2.14,3.7,3.12,6.55,5.22,13.21,8.85,19.98,10.89,3.92,1.19,7.94,2.1,12.05,2.74,4.9.78,9.94,1.16,15.12,1.16,1.89,0,3.76-.09,5.58-.27,4.54-.44,8.87-1.42,13.01-2.96h53.56l-.81-19.99-14.6,14.46Z"/>
        <path class="cls-1" d="m1036.31,539.63c-2.43-6.19-5.75-11.43-9.96-15.74-4.22-4.31-9.01-7.61-14.4-9.96,4.48-2.51,8.25-5.46,11.31-8.87,3.04-3.41,5.37-7.49,6.99-12.24,1.62-4.75,2.42-10.36,2.42-16.81,0-10.04-2.15-18.6-6.45-25.69-4.31-7.08-10.36-12.51-18.15-16.27-7.8-3.76-16.91-5.65-27.31-5.65h-108.39v43.04h32.55l-38.73,71.27h27.44c3.77,0,7.44.51,11.02,1.48,3.59.99,6.59,2.65,9.01,4.98,2.43,2.33,3.64,5.56,3.64,9.68,0,3.05-.67,5.83-2.02,8.34-1.34,2.52-3.32,4.53-5.91,6.05-2.6,1.52-5.69,2.29-9.28,2.29s-7.4-.68-11.43-2.02c-4.03-1.34-7.49-3.63-10.35-6.86l-2.53,3.79,4.9,6.58,9.92,7.19,4.16,8.78,3.97,4.56,5.48,10.2,7.2-9.91,6.91-3.53,10.05-11.09,3.85-2.58,16.19,13.9,11.15,18.86,2.01-2.24h3.32l14.6-14.46h.01l11.71,7.24,3.89-2.26h.01s1.8.91,1.8.91l5.6,4.88h.01l8.98-4.1h0c1.92,1.45,3.82,2.91,5.75,4.36,6.79-4.37,12.12-10.13,15.96-17.27,4.48-8.34,6.72-18.07,6.72-29.19,0-8.24-1.21-15.46-3.63-21.65Zm-64.96-62.58h5.38c2.15,0,3.9.67,5.24,2.02,1.35,1.34,2.33,3.32,2.96,5.91.63,2.6.95,5.88.95,9.82,0,3.58-.32,6.68-.95,9.27-.63,2.6-1.66,4.57-3.09,5.92-1.44,1.34-3.41,2.01-5.92,2.01h-4.57v-34.97Zm14.66,105.45c-.99,2.87-2.2,4.88-3.63,6.04-1.44,1.18-2.87,1.75-4.31,1.75h-6.73v-40.61h5.92c1.79,0,3.45.58,4.98,1.75,1.52,1.18,2.77,3.23,3.76,6.19.99,2.97,1.48,7.13,1.48,12.52s-.49,9.5-1.48,12.37Z"/>
        <g>
          <rect class="cls-1" x="847.05" y="561.99" width="9.44" height="8.48"/>
          <polygon class="cls-1" points="850.84 563.05 851.62 521.26 852.39 563.05 850.84 563.05 850.84 563.05"/>
          <g>
            <g>
              <polygon class="cls-1" points="1052.03 652.71 1052.03 652.7 1052.04 652.71 1052.03 652.71"/>
              <path d="m1067.33,650.47l3.51,6.12-.03-.03-13.41-11.69-2.97-.78-5.54.41h0s3.13,8.21,3.13,8.21l-10.67-7.72-5.54-5.75-11.55-11.63v.02l.6,4.37,5.85,15.31h-.02s-5.99-5.34-5.99-5.34v.02s4.15,7.72,4.15,7.72l2.47,2.26h0s.35,7.69.35,7.69l-9.78-6.88,2.14-7.38-.02-.11h0s-1.42-8.18-1.42-8.18l-11.22-13.71v-1.42h0c0-.63.01-1.38.01-2.19.02-2.47.05-5.32.11-5.44h0c1.92,1.45,3.82,2.91,5.75,4.36.25.2.52.38.77.58l22.48,16.47,11.16,5.94,6.35-.14,21.94,16.98-12.65-8.12v.03Z"/>
              <g>
                <path class="cls-1" d="m1133.78,682.91c-4.3,4.05-8.7,7.94-13.22,11.66h-110.28l-40.32-1.85-19.79-6.93-7.7-3.56-6.67,2.04-5.98-3.46-8.94,2.58-5.94-3.12-6.65,1.42s-10.45-1.04-10.45-1.21c2.31-1.01,4.64-1.98,6.98-2.9l2.01-4.32,12.57-8.26,4.65-7.34,2.56-4.04,4.23-4.99,7.36-8.68,5.75.08,3.58-2.21,8.27-9.23h.01s.8-.9.8-.9l2.95-3.29,2.01-2.24h3.32l14.6-14.46.81,19.99.15,3.91,4.87,18.38h.01l10,8.2h0s-2.12-15.55-2.12-15.55l-4.88-4.38-6.23-10.56-.13-.22.25.22,9.32,7.99-3.82-8.15-2.8-5.98.03.02,5.42,5.07-2.54-6.25-3.7-5.64h.02s2.55,1.71,2.55,1.71l1.62-.93,1.11.46,1.79-1.04,3.89-2.26,1.62,7.78,2.23,2.09,3.57-4.08h.01l8.98-4.1c-.06.12-.09,2.97-.11,5.44,0,.8-.01,1.56-.01,2.18h0c-.01.87-.01,1.44-.01,1.44l11.22,13.7,1.43,8.16h0s.02.12.02.12l-2.14,7.38h0s9.78,6.88,9.78,6.88l-.35-7.68-2.47-2.27h-.01l-4.15-7.75h.01v.02s5.99,5.31,5.99,5.31l-5.83-15.29-.6-4.4h.01s11.55,11.61,11.55,11.61l5.54,5.75,10.67,7.74h0s-3.14-8.21-3.14-8.21h.01l5.53-.41,2.98.78,13.43,11.72-.02-.04-3.49-6.11.02.02,12.64,8.09,7.32,5.66,2.07-.82,1.59,1.46,4.62,1.66,4.13,2.37.15.09,33.93,13.93Z"/>
                <polygon points="995.34 658.17 995.34 658.16 985.34 649.98 980.46 631.59 980.3 627.68 979.5 607.69 991.22 614.93 989.42 615.98 988.31 615.52 986.7 616.45 984.15 614.75 987.83 620.37 990.37 626.62 984.93 621.53 984.95 621.56 987.73 627.52 991.54 635.67 982.23 627.68 981.97 627.46 982.11 627.68 988.34 638.24 993.21 642.62 995.35 658.17 995.34 658.17"/>
              </g>
              <polygon points="1002.53 618.46 998.95 622.54 996.72 620.45 995.12 612.66 996.92 613.58 1002.52 618.46 1002.53 618.46"/>
            </g>
            <path class="cls-1" d="m1053.57,694.57l-35.62-25.03-24.43-8.37h-.01l-2.95-.03-8.1-9.81-2.51.2-7.63-4.79-3.9.16h-.16s-10.44-9.75-10.44-9.75l1.74-4.18-3.77-4.38-.77-.9-.77-.89-5.12-.77-.37-1.78-2.54-.8h-.01l-4.34-8.77-3.04-8.2h0s-.94-5.03-.94-5.03l-5.49-2.71h0s-4.02-4.51-4.02-4.51l-10.05,11.09-6.91,3.53-7.2,9.91,4.2,7.79,5.33,4.1,8.27,6.37,1.14,2.58,3.6,2.01,3.17,6.53.91.49,4.75,2.53,7.22,7.88-10.91-5.69.52,1.74,1.59,3.77-3.65-2.88-3.65-.89,5.52,10.4-8.18-7.81-.86-.81-4.26-6.76-2.82-2.19-.13,2.3-13.13-14.38-4.24-1.04-4.75-3.63-.81-1.4-3.73-6.37-4.93-5.25-2.8.23-6.36-4.69,3.19,6.13-5.92-4.11,1.05,3.51-8.6-4.6.49-3.63-1.37-3.23-.97.36,1.35-4.47-1.54,1.53-.31-3.21-.4-.13-1.76-.62,1.72-.53-.19-6.25-7.21-5-.58,4.08-2.19,2.81.76-6.4,1.53-2.59-1.62-1.22-1.64,1.9-4.25-6.11,3.25-9.32-1.3.67.09-2.76.08-2.13-1.76,1.59-.09.18-2.65,5.22-8.3,11.02-6.62,4.64-4.3,9.26-.63,1.35-6.8,11.15-9.92,7.97-4.49,6.05-8.97,20.78c17.79,19.34,38.73,35.19,61.69,47.04h197.55l-.04-.03Zm-204.39-88.3l-2.23-2.32-1.01,1.66.46,4.29h0s-3.93-3.42-3.93-3.42h0s-.01-.01-.01-.01l-1.79,3.97-.82,1.79-.24-2.23,2.13-4.74.03-2.81-3.37-4.85h0s.08-.58.08-.58l.49-3.69h.01s3.26-6.27,3.26-6.27l4.55,4.57.19,2.71,2.32,2.8h0s.54,4.85.54,4.85l2.4,4-.89,4.24-2.15-3.96Zm23.12,27.19l-5.78-3.04-2.8-1.92-2.19.45-3.62-3.19-2.45-.91h0s-.23-1.49-.23-1.49l-1.1-1.52,3.17-6.18-.02-2.65v-2.53s0-.01,0-.01l3.01-3.14-1.58,4.08,1.15,1.91,1.13,2.81,1.22,3.04,1.57.63,5.12,5.68.35,2.07,4.24,4.4h0s5.63,5.72,5.63,5.72l-6.82-4.21Zm96.78,39.28h.01s7.26,4.22,7.26,4.22l4.89,5.99-6.77-3.66-3.88-2.51,3.73,1.35-5.25-5.4h.01Zm-7.69-1.88h.01v.02l-5.69-5.04-1.65-.97-1.91-3.38-3.03-.57h-.01l1.02,3.1-2.01-.81-2.74,1.42,2.13-2.63-.42-2.33,5.71-2.19,8.58,13.38Zm-4.72-38.53l-2.25,4.87h0s-.01.02-.01.02v-2.55l2.26-2.34Zm-21.87-7.79l1.59-2.21,2.11.43-4.27,4.92-.96,1.1.4-1.1,1.13-3.14Z"/>
            <path d="m934,658.84l-1.59-3.77-.52-1.74,10.91,5.69-7.22-7.88-4.75-2.53-.91-.49-3.17-6.53-3.6-2.01-1.14-2.58-8.27-6.37-5.33-4.1-4.2-7.79-5.48-10.2-3.97-4.56-4.16-8.78-9.92-7.19-4.9-6.58-.6-.81-4.8-7.59-11.76-8.03h0s-.01,0-.01,0l-.21,3.32,4.14,2.48.36,4.97.48,2.04,1.42,2.21-2.2-.16h0s-.54-2.01-.54-2.01l-6.57-7.11-.96-.26-1.76-.48h-.02s-1.16-.33-1.16-.33l-2.69-1.32-.08,2.13-.09,2.76,1.3-.67-3.25,9.32,4.25,6.11,1.64-1.9,1.62,1.22-1.53,2.59-.76,6.4,2.19-2.81.58-4.08,7.21,5,.19,6.25-1.72.53,1.76.62.4.13.31,3.21,1.54-1.53-1.35,4.47.97-.36,1.37,3.23-.49,3.63,8.6,4.6-1.05-3.51,5.92,4.11-3.19-6.13,6.36,4.69,2.8-.23,4.93,5.25,3.73,6.37.81,1.4,4.75,3.63,4.24,1.04,13.13,14.38.13-2.3,2.82,2.19,4.26,6.76.86.81,8.18,7.81-5.52-10.4,3.65.89,3.65,2.88Zm-50.94-44.83h0s-11.56-11.04-11.56-11.04l-2.49-5.81-2.3-2.13-2.54-2.35h0s-2.89-5.68-2.89-5.68l4.86,3.45-1.67-4.26h.01l5.42,4.07.57.43,4.71,6.23,7.9,6.8-.02,10.31Z"/>
            <polygon points="993.52 661.16 993.51 661.16 990.58 661.12 982.47 651.32 982.47 651.31 979.96 651.51 972.34 646.71 968.44 646.89 968.27 646.9 957.83 637.14 959.58 632.97 955.81 628.57 955.04 627.68 955.03 627.68 954.27 626.79 954.26 626.79 949.14 626.02 948.78 624.23 946.23 623.44 941.89 614.66 938.83 606.47 938.83 606.46 937.89 601.44 932.39 598.71 928.37 594.22 932.22 591.64 948.4 605.54 959.56 624.39 960.16 625.42 964.26 625.76 965.5 627.68 972.8 639 979.11 644.14 983.11 647.79 993.52 661.16"/>
            <polygon points="864.79 580.02 862.59 579.85 862.06 577.85 855.48 570.73 852.77 569.98 858.6 564.99 858.39 568.31 862.53 570.8 862.9 575.77 863.38 577.82 864.79 580.02"/>
            <polygon points="852.24 605.98 851.35 610.22 849.19 606.26 846.96 603.94 845.95 605.6 846.42 609.9 842.47 606.46 839.85 612.22 839.61 609.98 841.75 605.25 841.78 602.44 838.4 597.59 838.98 593.31 842.24 587.04 846.8 591.61 846.98 594.33 849.3 597.14 849.84 601.98 852.24 605.98"/>
            <polygon points="879.16 637.68 872.31 633.44 866.53 630.4 863.73 628.47 861.55 628.93 857.92 625.74 855.48 624.83 855.25 623.34 854.14 621.82 857.31 615.65 857.28 610.47 860.3 607.31 858.72 611.39 859.88 613.31 862.23 619.16 863.79 619.79 868.92 625.47 869.27 627.53 873.51 631.94 879.16 637.68"/>
            <polygon points="883.08 603.7 883.06 614.02 871.5 602.96 869 597.15 864.17 592.66 861.28 586.99 866.13 590.44 864.46 586.17 870.46 590.67 875.18 596.9 883.08 603.7"/>
            <polygon points="961.41 670.87 955.71 665.83 954.06 664.86 952.16 661.48 949.12 660.9 950.14 664.01 948.12 663.19 945.39 664.61 947.52 661.99 947.1 659.65 952.81 657.46 961.41 670.87"/>
            <polygon points="981.25 682.94 974.49 679.27 970.6 676.77 974.35 678.14 969.08 672.73 976.36 676.95 981.25 682.94"/>
            <polygon points="956.68 632.31 954.41 637.21 954.41 634.66 956.68 632.31"/>
            <polygon points="938.51 622.76 933.28 628.77 934.8 624.54 936.39 622.32 938.51 622.76"/>
          </g>
        </g>
        <g>
          <polygon class="cls-1" points="1019.13 339.56 1069.73 380.53 1045.07 412.65 1030.92 401.06 1020.19 411.26 1001.97 396.51 1009.8 383.77 995.43 371.99 1019.13 339.56"/>
          <polygon class="cls-1" points="1074.5 374.32 1023.76 333.23 1119.41 202.36 1170.5 238.62 1074.5 374.32"/>
        </g>
        <g>
          <path class="cls-1" d="m1120.57,694.56c-45.61,37.54-102.32,57.95-162.17,57.95-36.47,0-71.7-7.52-104.71-22.34-20.79-9.34-40.01-21.25-57.44-35.58-5.52-4.53-10.85-9.3-16-14.3l14.13-32.75c17.79,19.34,38.73,35.18,61.69,47.04h197.55l-.04-.03h66.99Z"/>
          <path class="cls-1" d="m1214.16,496.75c0,68.32-26.6,132.55-74.92,180.86-1.8,1.8-3.62,3.57-5.46,5.3-4.3,4.05-8.7,7.94-13.22,11.66h-59.71c13.86-7.21,26.87-15.82,38.84-25.68,49.73-40.89,81.5-102.86,81.5-172.13,0-76.32-38.42-146.49-102.75-187.73l17.79-27.76c73.84,47.33,117.93,127.88,117.93,215.48Z"/>
        </g>
      </g>
      <g>
        <path class="cls-1" d="m713.65,727.5l-6.86-8.79,5.11-26.99-7.75-9.94-16.27,12.69-5.87-7.52,47.11-36.76c5.71,7.32,11.3,14.62,17.01,21.94,8.48,10.88,5.48,22.41-2.46,28.59-6.72,5.24-16.03,6.89-24.6-1.32l-4.71,26.25-.72,1.85Zm14.42-64.39l-17.07,13.32,11.16,14.3c4.87,6.24,10.98,5.9,15.42,2.44,4.23-3.3,6.52-9.52,1.7-15.69l-11.21-14.37Z"/>
        <path class="cls-1" d="m775.39,779.42l-34.97-26.77c12.07-15.77,24.19-31.6,36.27-47.37l34.76,26.61-5.65,7.38-27.19-20.81-9.79,12.79,26.11,19.99-5.39,7.04-26.11-19.99-9.74,12.72,27.39,20.97-5.7,7.44Z"/>
        <path class="cls-1" d="m859.98,770.05c-.97-4.87-5.24-9.39-10.92-11.92-7.36-3.16-13.99-2.39-16.24,2.86-2.29,5.33,3.18,9.44,9.94,13.55,10.6,6.41,19.97,14.14,14.7,26.44-5.35,12.26-18.53,12.08-29.95,7.17-10.49-4.5-17.17-11.18-18.21-22.57l8.46-1.56c1.06,8.34,6.86,13.61,13.2,16.33,6.57,2.82,14.79,3.75,17.75-3.14,2.55-5.95-2.91-10.71-10.14-15.02-10.24-6.16-19.39-13.34-14.35-25.09,4.8-11.39,18.03-10.91,27.89-6.67,7.9,3.39,15,8.67,16.46,18.01l-8.57,1.61Z"/>
        <path class="cls-1" d="m930.19,833.25l-43.49-6.82c3.08-19.62,6.18-39.32,9.26-58.93l43.24,6.78-1.44,9.18-33.82-5.3-2.5,15.91,32.47,5.09-1.38,8.76-32.47-5.09-2.49,15.83,34.07,5.34-1.45,9.26Z"/>
        <path class="cls-1" d="m1009.17,817.67l-32.09,3.39-4.27,13.05-10.08,1.06,20.33-62.13,10.33-1.09,32.85,56.52-10.08,1.06-6.99-11.86Zm-19.9-35.17l-9.55,29.55,25.06-2.65-15.51-26.9Z"/>
        <path class="cls-1" d="m1108.51,799.74l-10.37,4.13-24.49-12.46-11.71,4.66,7.63,19.17-8.86,3.53-22.11-55.52c8.63-3.43,17.2-6.76,25.83-10.19,12.82-5.1,23.05,1.01,26.77,10.36,3.15,7.92,2.13,17.32-8.16,23.25l23.89,11.87,1.58,1.21Zm-57.79-31.87l8.01,20.12,16.86-6.71c7.36-2.93,8.74-8.89,6.66-14.12-1.99-4.99-7.31-8.93-14.59-6.03l-16.93,6.74Z"/>
        <path class="cls-1" d="m1176.02,744.82c-1.29,8.52-5.95,15.51-12.63,20.5-17.33,12.95-34.04,6.81-43.5-5.7-9.46-12.51-10.61-31.12,6.45-43.86,6.41-4.79,14.41-7.04,22.88-5.81l-1.44,8.74c-5.91-.8-11.59,1-16.02,4.31-12.15,9.07-10.98,22.14-4.33,30.9,6.6,8.69,18.27,13.48,30.62,4.26,4.43-3.31,7.97-8.83,8.81-14.67l9.18,1.33Z"/>
        <path class="cls-1" d="m1232.03,692.37l-19.58-15.23-19.35,24.87,19.58,15.23-5.86,7.53-47.1-36.64,5.86-7.53,20.52,15.96,19.35-24.87-20.52-15.96,5.81-7.46,47.1,36.64-5.81,7.46Z"/>
      </g>
      <g>
        <path class="cls-1" d="m667.77,730.94l4.87,6.31-1.47,1.13-5.98-7.75,12.67-9.75,1.11,1.44-11.21,8.62Z"/>
        <path class="cls-1" d="m680.67,747.06c-1.7.06-3.36-.9-4.39-2.14-2.05-2.46-1.7-5.65,1.06-7.94,2.62-2.17,5.93-2.02,7.92.38,2.02,2.43,1.92,5.63-1.8,8.2l-5.61-6.75c-1.48,1.47-1.48,3.51-.21,5.04.75.9,2.05,1.67,3.19,1.62l-.14,1.61v-.02Zm2.93-3.75c1.63-1.47,1.67-3.28.37-4.84-1.15-1.38-3.07-1.83-4.92-.67l4.57,5.49h-.02Z"/>
        <path class="cls-1" d="m695.27,749.36l1.11,1.19-1.53,1.54c1.66-.43,3.34.09,4.45,1.28,1.98,2.21,1.79,5.36-.75,7.73-2.61,2.44-5.77,2.44-7.88.18-1-1.07-1.61-2.73-1-4.41l-5.37,5.03-1.14-1.22,12.11-11.32Zm2.08,10.52c1.85-1.73,1.92-3.88.47-5.42-1.47-1.57-3.74-1.45-5.42.12-1.68,1.58-1.91,3.88-.5,5.42,1.41,1.51,3.61,1.61,5.46-.12Z"/>
        <path class="cls-1" d="m703.45,774l1.41-1.49c-1.67.53-3.3-.04-4.31-1.04-2.11-2.08-2.19-5.3.39-7.93,2.57-2.6,5.79-2.51,7.87-.43,1.1,1.08,1.64,2.71,1.15,4.28l1.46-1.45,1.19,1.17-7.92,8.04-1.17-1.16h-.06Zm4.15-9.57c-1.46-1.44-3.76-1.46-5.52.33-1.76,1.79-1.73,4.1-.27,5.54,3.54,3.49,9.34-2.4,5.82-5.88h-.03Z"/>
        <path class="cls-1" d="m717.12,771.29l-1.05,1.33c1.51-.59,2.73-.03,3.61.77.68.59,1.09,1.44,1.2,2.25l-1.65.65c-.12-.67-.39-1.19-.91-1.67-1.23-1.1-3.12-1.09-4.52.44l-4.26,4.62-1.26-1.16,7.64-8.3,1.17,1.07h.03Z"/>
        <path class="cls-1" d="m725.75,779.1l2.42,2.1-1.05,1.21-2.43-2.11-3.91,4.5c-.87,1-1.13,1.9-.19,2.71.35.3.84.52,1.36.64l-.64,1.5c-.75-.19-1.34-.47-1.88-.9-1.7-1.42-1.56-3.17.07-5.05l3.91-4.5-1.56-1.36,1.05-1.21,1.56,1.36,2.04-2.34,1.43.97-2.17,2.5Z"/>
        <path class="cls-1" d="m732.08,796.67c-1.66.39-3.47-.23-4.72-1.25-2.48-2.02-2.76-5.22-.49-8,2.15-2.64,5.42-3.12,7.84-1.16,2.45,1.99,2.97,5.16-.18,8.4l-6.81-5.54c-1.16,1.73-.77,3.73.77,4.98.91.74,2.33,1.25,3.44.97l.17,1.61h-.02Zm2.16-4.26c1.32-1.75,1-3.54-.57-4.82-1.4-1.13-3.36-1.2-4.96.3l5.54,4.51v.02Z"/>
        <path class="cls-1" d="m741.49,791.97l1.25.94-1.01,1.49c1.53-.54,2.9-.28,4,.55,2.09,1.57,2.47,4.26.48,6.9l-3.74,4.98-1.37-1.03,3.73-4.96c1.31-1.73,1.18-3.51-.39-4.69-1.52-1.11-3.52-.59-4.75,1.03l-3.64,4.83-1.35-1.02,6.78-9.01v-.02Z"/>
        <path class="cls-1" d="m753.23,814.46l1.14-1.72c-1.55.81-3.26.53-4.43-.28-2.44-1.69-3.08-4.85-.99-7.88,2.08-3.01,5.27-3.47,7.68-1.77,1.27.88,2.08,2.39,1.87,4.02l1.19-1.68,1.37.95-6.41,9.29-1.36-.94h-.06Zm2.44-10.14c-1.69-1.17-3.95-.79-5.38,1.28-1.43,2.07-.99,4.34.69,5.51,4.09,2.83,8.79-3.98,4.71-6.79h-.03Z"/>
        <path class="cls-1" d="m764.94,808.57l1.44.93-6.16,9.5-1.44-.93,6.16-9.5Zm1.64-2.99c-.89,1.38,1,2.61,1.88,1.25.89-1.38-1-2.61-1.88-1.25Z"/>
        <path class="cls-1" d="m771.47,812.76l-.78,1.5c1.37-.87,2.67-.55,3.69.08.78.45,1.34,1.21,1.6,1.98l-1.5.95c-.25-.64-.6-1.1-1.21-1.47-1.42-.85-3.26-.48-4.35,1.28l-3.29,5.34-1.46-.9,5.91-9.6,1.35.84h.03Z"/>
        <path class="cls-1" d="m781.86,829.91c-1.58.65-3.46.33-4.86-.47-2.77-1.59-3.57-4.7-1.79-7.81,1.69-2.95,4.84-3.96,7.54-2.42,2.74,1.57,3.77,4.6,1.19,8.31l-7.62-4.36c-.87,1.9-.15,3.81,1.57,4.79,1.01.58,2.5.85,3.55.4l.43,1.56h-.02Zm1.44-4.55c1.01-1.94.41-3.66-1.35-4.67-1.56-.89-3.51-.64-4.84,1.1l6.21,3.55v.02Z"/>
        <path class="cls-1" d="m807.49,827.16l-7.12,14.32-1.44-.72.84-1.88c-1.44,1.02-3.11,1-4.48.33-2.64-1.31-3.74-4.23-2.08-7.56,1.69-3.4,4.65-4.22,7.27-2.92,1.31.65,2.48,2.05,2.46,3.74l3.01-6.05,1.52.75h.03Zm-7.66,3.18c-1.8-.89-3.9-.33-5.08,2.04-1.16,2.33-.36,4.39,1.44,5.28,1.84.91,4.01.15,5.11-2.06,1.08-2.17.35-4.36-1.49-5.28h.02Z"/>
        <path class="cls-1" d="m813.88,845.68c-1.51.8-3.42.67-4.89.01-2.92-1.31-4.01-4.33-2.55-7.6,1.4-3.1,4.44-4.42,7.28-3.14,2.88,1.29,4.21,4.22,2,8.16l-8.01-3.6c-.68,1.97.22,3.8,2.03,4.62,1.07.48,2.57.6,3.58.05l.58,1.51h-.02Zm.99-4.67c.83-2.04.05-3.68-1.8-4.51-1.64-.74-3.56-.29-4.71,1.57l6.52,2.93v.02Z"/>
        <path class="cls-1" d="m825.54,852.4l-1.6-.63,5.85-14.88,1.6.63-5.85,14.88Z"/>
        <path class="cls-1" d="m838.11,857.11l.66-1.95c-1.29,1.19-3.01,1.35-4.35.87-2.8-1-4.23-3.89-2.98-7.35,1.23-3.44,4.2-4.71,6.97-3.69,1.45.52,2.63,1.77,2.84,3.4l.71-1.93,1.58.56-3.81,10.62-1.55-.56-.06.03Zm-.25-10.43c-1.93-.69-4.02.26-4.87,2.62s.16,4.45,2.08,5.14c4.68,1.68,7.48-6.11,2.82-7.78h-.03Z"/>
        <path class="cls-1" d="m858.51,857.51l-3.42-.98-1.6,5.52-1.75-.5,4.44-15.35,6.39,1.84c3.17.91,4.06,3.78,3.34,6.28-.65,2.33-2.45,4.16-5.41,3.59l2.99,7.02-2.21-.64-2.78-6.79Zm5.65-3.65c.46-1.53-.04-3.53-2.07-4.11l-4.64-1.34-1.85,6.4,4.56,1.31c2.11.61,3.51-.53,4.01-2.27Z"/>
        <path class="cls-1" d="m876.49,866.3c-1.34,1.06-3.24,1.27-4.8.89-3.11-.76-4.73-3.53-3.88-7.02.81-3.3,3.57-5.14,6.59-4.4,3.07.75,4.9,3.39,3.44,7.66l-8.53-2.09c-.31,2.06.9,3.7,2.83,4.17,1.14.28,2.64.13,3.52-.59l.85,1.38h-.02Zm.13-4.77c.44-2.15-.62-3.63-2.59-4.11-1.75-.43-3.55.35-4.36,2.39l6.95,1.7v.02Z"/>
        <path class="cls-1" d="m889.45,869.33c-1.33.96-2.73,1.21-4.12.92-2.89-.6-4.86-3.13-4.1-6.82s3.54-5.24,6.47-4.63c1.37.29,2.5,1.05,3.32,2.42l-1.32.99c-.56-.91-1.43-1.46-2.33-1.65-2.01-.42-3.94.75-4.45,3.23-.53,2.57.82,4.32,2.78,4.73.96.2,2,.04,2.88-.62l.87,1.46v-.03Z"/>
        <path class="cls-1" d="m897.32,856.08l-1.09,6.46c1.11-1.32,2.55-1.58,3.86-1.39,2.87.48,3.92,2.79,3.41,5.85l-1.03,6.13-1.67-.28,1.03-6.1c.37-2.19-.46-3.6-2.31-3.91-1.85-.31-3.49,1.06-3.83,3.08l-1,5.9-1.69-.29,2.65-15.76,1.67.28v.02Z"/>
        <path class="cls-1" d="m916.46,873.21c-1.21,1.2-3.08,1.63-4.67,1.43-3.17-.41-5.1-2.98-4.64-6.54.44-3.38,2.96-5.52,6.05-5.12,3.13.4,5.24,2.82,4.28,7.23l-8.71-1.12c-.08,2.09,1.31,3.58,3.28,3.83,1.16.15,2.64-.17,3.43-.99l1,1.28h-.02Zm-.4-4.75c.2-2.19-1.02-3.54-3.03-3.8-1.78-.23-3.49.75-4.06,2.86l7.09.91v.02Z"/>
        <path class="cls-1" d="m923.5,864.39l-.04,1.69c.84-1.39,2.15-1.67,3.34-1.56.89.06,1.74.49,2.31,1.07l-.92,1.52c-.5-.46-1.02-.72-1.73-.79-1.65-.13-3.14,1.01-3.34,3.07l-.6,6.25-1.71-.16,1.07-11.23,1.58.15.02-.02Z"/>
        <path class="cls-1" d="m939.59,875.44c-1.19,1.14-2.54,1.57-3.96,1.48-2.94-.19-5.25-2.43-5-6.19.25-3.76,2.78-5.68,5.77-5.48,1.4.09,2.62.7,3.62,1.93l-1.17,1.16c-.68-.82-1.61-1.25-2.53-1.31-2.04-.13-3.79,1.29-3.96,3.82-.18,2.62,1.4,4.17,3.4,4.3.98.06,1.98-.24,2.77-1.01l1.06,1.33-.02-.02Z"/>
        <path class="cls-1" d="m945.47,861.24l-.19,6.55c.92-1.46,2.32-1.92,3.63-1.9,2.91.09,4.27,2.23,4.18,5.34l-.18,6.21-1.69-.05.18-6.19c.06-2.22-.94-3.5-2.83-3.56-1.88-.06-3.3,1.52-3.37,3.58l-.18,5.98-1.72-.05.47-15.98,1.7.05v.02Z"/>
        <path class="cls-1" d="m966.92,875.55c-1.02,1.36-2.81,2.06-4.42,2.08-3.2.05-5.47-2.21-5.54-5.8-.06-3.4,2.14-5.88,5.25-5.94,3.16-.05,5.6,2.03,5.28,6.54l-8.78.15c.22,2.08,1.81,3.35,3.8,3.32,1.17-.02,2.58-.55,3.26-1.47l1.17,1.12h-.02Zm-1.08-4.64c-.12-2.19-1.52-3.36-3.55-3.32-1.8.03-3.35,1.24-3.6,3.42l7.15-.12v.02Z"/>
        <path class="cls-1" d="m985.75,871.47l-.37.03-5.89-7.72.95,13.11-1.8.13-1.15-15.94,2.17-.16,5.73,7.83,4.5-8.56,2.17-.16,1.15,15.94-1.8.13-.95-13.07-4.72,8.44Z"/>
        <path class="cls-1" d="m1007.23,869.41l-8.68,1.03c.43,2.07,2.1,3.18,4.07,2.95,1.16-.14,2.51-.8,3.09-1.79l1.28,1c-.88,1.46-2.59,2.33-4.19,2.52-3.17.38-5.67-1.65-6.08-5.22-.4-3.38,1.54-6.07,4.61-6.44,3.13-.37,5.77,1.46,5.9,6v-.04Zm-8.85-.5l7.06-.84c-.34-2.17-1.85-3.19-3.86-2.95-1.79.21-3.17,1.57-3.2,3.76v.02Zm1.68-7.05v.11s1.57-.18,1.57-.18l1.73-3.2v-.04s-2.1.25-2.1.25l-1.2,3.06Z"/>
        <path class="cls-1" d="m1019.34,856.35l2.48,15.79-1.59.25-.4-2.02c-.58,1.66-1.96,2.62-3.47,2.86-2.91.46-5.5-1.28-6.08-4.96-.59-3.74,1.35-6.13,4.24-6.59,1.45-.23,3.21.23,4.18,1.63l-1.05-6.68,1.67-.26.02-.03Zm-4.4,7.03c-1.98.31-3.37,1.99-2.96,4.61.4,2.57,2.25,3.78,4.23,3.47,2.03-.32,3.36-2.2,2.98-4.63-.38-2.39-2.24-3.76-4.27-3.44h.02Z"/>
        <path class="cls-1" d="m1025.79,856.46c.3,1.59-1.92,2.01-2.22.39-.3-1.59,1.92-2.01,2.22-.39Zm.74,14.83l1.68-.32-2.09-11.14-1.68.32,2.09,11.14Z"/>
        <path class="cls-1" d="m1041.12,866.75c-.83,1.41-2.01,2.2-3.4,2.5-2.88.62-5.72-.9-6.51-4.58-.79-3.68,1.12-6.22,4.05-6.84,1.37-.29,2.71-.04,4.01.87l-.8,1.43c-.88-.61-1.89-.76-2.8-.57-2,.43-3.3,2.27-2.76,4.75.55,2.56,2.49,3.62,4.45,3.2.96-.21,1.85-.77,2.39-1.73l1.39.99-.02-.02Z"/>
        <path class="cls-1" d="m1053.35,865.33l-.55-1.98c-.41,1.71-1.75,2.8-3.13,3.15-2.88.73-5.68-.86-6.59-4.43-.9-3.54.84-6.25,3.71-6.95,1.5-.38,3.17,0,4.27,1.23l-.49-2,1.62-.41,2.79,10.93-1.6.41-.03.06Zm-6.05-8.5c-1.99.51-3.2,2.46-2.57,4.9.62,2.43,2.62,3.6,4.61,3.09,4.82-1.23,2.78-9.24-2.03-8.02v.03Z"/>
        <path class="cls-1" d="m1061.49,863.02l-1.65.47-4.42-15.37,1.65-.47,4.42,15.37Z"/>
        <path class="cls-1" d="m1074.6,857.08c-.59,1.6-2.1,2.78-3.64,3.27-3.05.97-5.88-.55-6.96-3.96-1.03-3.24.36-6.25,3.33-7.19,3.01-.96,5.94.33,6.93,4.74l-8.37,2.67c.81,1.92,2.69,2.69,4.59,2.08,1.12-.36,2.32-1.27,2.7-2.34l1.44.74h-.02Zm-2.37-4.13c-.75-2.06-2.42-2.77-4.35-2.16-1.72.55-2.85,2.15-2.47,4.31l6.81-2.17v.02Z"/>
        <path class="cls-1" d="m1090.26,836.24l5.74,14.9-1.5.58-.82-1.89c-.22,1.75-1.36,2.97-2.79,3.52-2.75,1.06-5.64-.1-6.98-3.57-1.36-3.53.03-6.27,2.76-7.32,1.36-.53,3.19-.45,4.42.72l-2.43-6.3,1.58-.61v-.03Zm-2.81,7.79c-1.87.72-2.88,2.65-1.92,5.12.93,2.43,2.99,3.23,4.86,2.51,1.91-.74,2.82-2.85,1.94-5.15-.87-2.26-2.99-3.2-4.89-2.47h.02Z"/>
        <path class="cls-1" d="m1108.23,846.02l-.86-1.87c-.13,1.75-1.28,3.04-2.58,3.61-2.73,1.18-5.75.05-7.21-3.32-1.45-3.35-.16-6.3,2.56-7.45,1.42-.62,3.13-.51,4.4.53l-.8-1.89,1.54-.67,4.49,10.35-1.52.66-.02.06Zm-7.32-7.43c-1.88.81-2.76,2.94-1.76,5.24,1,2.3,3.16,3.13,5.04,2.32,4.57-1.98,1.28-9.56-3.27-7.59v.03Z"/>
        <path class="cls-1" d="m1109.15,833.14l1.41-.68.85,1.59c.23-1.61,1.09-2.71,2.33-3.31,2.35-1.14,4.92-.24,6.35,2.74l2.7,5.62-1.54.75-2.69-5.6c-.94-1.96-2.58-2.66-4.35-1.81-1.68.84-2.15,2.86-1.27,4.7l2.62,5.46-1.53.74-4.89-10.17v-.02Z"/>
        <path class="cls-1" d="m1128.78,826.12c-1.21-.37-2.14-.11-3.08.39-1.27.64-2.03,1.66-1.49,2.64.56,1.02,1.83.74,3.05.28,1.78-.66,4.19-1.46,5.46,1.02,1.02,2.02-.19,3.93-2.25,5.01-1.54.81-3.3,1.14-5.08.28l.26-1.61c1.39.66,2.94.41,4.06-.18,1-.53,2.09-1.54,1.49-2.77-.56-1.1-1.8-.86-3.3-.3-1.89.68-4.04,1.17-5.16-.95-1.14-2.11.39-3.97,2.15-4.88,1.37-.72,2.69-.95,4.18-.5l-.29,1.55v.03Z"/>
        <path class="cls-1" d="m1145.25,826.91l-1.48.87-8.08-13.8,1.48-.87,8.08,13.8Z"/>
        <path class="cls-1" d="m1156.39,817.99c-.18,1.69-1.35,3.21-2.72,4.06-2.72,1.69-5.84.92-7.73-2.12-1.8-2.89-1.19-6.14,1.45-7.79,2.68-1.67,5.84-1.14,7.88,2.89l-7.45,4.64c1.26,1.66,3.28,1.94,4.96.89,1-.62,1.94-1.8,2.04-2.94l1.58.36h-.02Zm-3.31-3.41c-1.23-1.82-3.03-2.09-4.75-1.02-1.53.95-2.23,2.79-1.33,4.78l6.07-3.78v.02Z"/>
        <path class="cls-1" d="m1163.14,798.01c-1.52,1.08-2.68,2.88-1.55,4.46,1.01,1.42,2.78.77,4.76-.16,2.68-1.28,5.4-2.43,7.49.51,2.06,2.94.18,5.7-2.11,7.32-2.11,1.5-4.72,2.09-7.19.56l.67-1.65c1.86,1,4,.61,5.46-.43,1.45-1.03,3.02-2.9,1.66-4.82-1.13-1.63-3.13-.91-5.14.06-2.58,1.24-5.22,2.25-7.1-.39-1.97-2.7-.09-5.43,1.98-6.89,1.77-1.26,3.74-2.07,6.2-.84l-.58,1.56c-1.45-.68-3.21-.22-4.55.71Z"/>
        <path class="cls-1" d="m1186.07,799.06l-1.17-1.38c.11,1.65-.5,2.87-1.63,3.77-2.08,1.61-4.75,1.21-6.76-1.39l-3.81-4.93,1.36-1.05,3.8,4.91c1.32,1.72,3.08,2.07,4.63.87,1.47-1.17,1.51-3.24.26-4.85l-3.7-4.79,1.36-1.05,6.9,8.93-1.26.97h.01Z"/>
        <path class="cls-1" d="m1188.65,776.23l10.26,12.25-1.23,1.03-1.38-1.52c.35,1.73-.33,3.26-1.5,4.24-2.26,1.89-5.37,1.73-7.76-1.12-2.43-2.91-2.01-5.95.24-7.83,1.12-.94,2.87-1.46,4.42-.75l-4.34-5.18,1.3-1.09v-.03Zm-.15,8.29c-1.54,1.29-1.86,3.44-.16,5.47,1.67,1.99,3.87,2.08,5.41.79,1.57-1.32,1.75-3.61.17-5.5-1.56-1.86-3.86-2.07-5.43-.75h.01Z"/>
        <path class="cls-1" d="m1203.04,774.87l1.19,1.32-5.56,5.01-1.19-1.32,5.56-5.01Z"/>
        <path class="cls-1" d="m1216.25,761.44c2.91,3,4.07,7.59.49,11.1-3.59,3.51-8.17,2.3-11.11-.7-3.25-3.31-3.79-7.93-.49-11.16,3.56-3.45,8.17-2.27,11.11.76Zm-9.83.55c-2.66,2.6-1.94,6.09.51,8.58,2.27,2.32,5.76,3.31,8.51.62,2.75-2.69,1.72-6.22-.49-8.47-2.26-2.33-5.77-3.37-8.54-.73Z"/>
        <path class="cls-1" d="m1230.27,758.1l-1.37-1.17c.37,1.61-.04,2.92-1.01,3.99-1.8,1.93-4.49,1.96-6.89-.28l-4.56-4.25,1.17-1.25,4.54,4.24c1.58,1.48,3.37,1.54,4.71.1,1.27-1.39.97-3.45-.52-4.83l-4.42-4.13,1.17-1.25,8.25,7.69-1.09,1.16v-.02Z"/>
        <path class="cls-1" d="m1239.25,745.16c.34,1.67-.34,3.46-1.39,4.68-2.09,2.42-5.3,2.61-8.02.27-2.58-2.22-2.96-5.51-.92-7.87,2.07-2.39,5.25-2.82,8.4.42l-5.75,6.65c1.7,1.21,3.71.88,5.01-.63.76-.89,1.32-2.29,1.07-3.41l1.62-.12v.02Zm-4.2-2.28c-1.72-1.37-3.52-1.1-4.84.44-1.18,1.36-1.3,3.32.15,4.96l4.68-5.41h.02Z"/>
        <path class="cls-1" d="m1240.96,731.98c-1.26.14-2.01.75-2.67,1.58-.91,1.09-1.2,2.33-.31,3.02.92.71,1.97-.05,2.91-.96,1.37-1.31,3.26-3.01,5.41-1.23,1.74,1.45,1.38,3.68-.07,5.49-1.08,1.35-2.57,2.36-4.55,2.27l-.4-1.58c1.54.06,2.86-.79,3.66-1.78.7-.88,1.31-2.25.26-3.14-.95-.79-1.99-.07-3.15,1.04-1.45,1.38-3.24,2.68-5.11,1.18-1.89-1.49-1.23-3.8.03-5.34.97-1.21,2.09-1.94,3.64-2.12l.35,1.54v.03Z"/>
        <path class="cls-1" d="m1243.99,723.99l1.93-2.55,1.28.96-1.94,2.57,4.76,3.59c1.06.8,1.97.99,2.71,0,.28-.37.47-.88.54-1.4l1.54.53c-.14.76-.37,1.37-.77,1.93-1.3,1.8-3.06,1.78-5.05.28l-4.76-3.59-1.25,1.65-1.28-.96,1.25-1.65-2.48-1.87.87-1.49,2.64,1.99Z"/>
      </g>
      <text/>
    </g>
    <text class="cls-2" transform="translate(1647.52 45.31)"><tspan class="cls-11" x="0" y="0">v</tspan><tspan class="cls-12" x="17.03" y="0">e</tspan><tspan class="cls-7" x="35.07" y="0">r</tspan><tspan class="cls-4" x="47.14" y="0">s</tspan><tspan class="cls-9" x="62.98" y="0">io</tspan><tspan x="86.86" y="0">n </tspan><tspan class="cls-8" x="111.64" y="0">w</tspan><tspan class="cls-10" x="139.13" y="0">h</tspan><tspan class="cls-9" x="157.39" y="0">i</tspan><tspan class="cls-6" x="162.9" y="0">te</tspan></text>
    <g>
      <g>
        <rect class="cls-1" x="1869.3" y="541.3" width="34.52" height="201.4"/>
        <g>
          <g>
            <g>
              <polygon class="cls-5" points="1882.11 722.59 1882.12 722.61 1882.09 722.61 1882.09 733.91 1884.72 733.91 1884.72 725.21 1893.44 733.93 1895.3 732.06 1883.97 720.73 1882.11 722.59"/>
              <rect class="cls-5" x="1889.22" y="723.35" width="6.06" height="2.63"/>
            </g>
            <g>
              <polygon points="1879.8 710.17 1877.93 712.03 1889.27 723.36 1891.13 721.5 1891.11 721.49 1891.14 721.49 1891.14 710.18 1888.51 710.18 1888.51 718.88 1879.8 710.17"/>
              <rect x="1877.95" y="718.11" width="6.06" height="2.63"/>
            </g>
          </g>
          <g>
            <path d="m1879.19,693v-.56h6.73v2.81h-2.24v8.98h2.24v2.81h-6.73v-.56h-.56v-1.12h-.56v-11.22h.56v-1.12h.56Zm3.37,2.24h-2.81v.56h-.56v7.86h.56v.56h2.81v-8.98Z"/>
            <path d="m1880.31,680.65v-.56h5.61v2.81h-5.05v.56h-.56v3.93h.56v.56h.56v.56h4.49v2.81h-6.73v-2.81h1.12v-.56h-.56v-1.12h-.56v-5.05h.56v-1.12h.56Z"/>
            <path d="m1881.43,667.75v6.17h2.81v-.56h.56v-2.81h-.56v-.56h-.56v-2.24h1.12v.56h.56v1.12h.56v5.61h-.56v1.12h-.56v.56h-3.37v2.24h-1.12v-2.24h-1.12v-.56h-.56v-1.12h-.56v-1.12h2.24v-6.17h1.12Z"/>
            <path d="m1880.31,655.96v-.56h1.12v2.81h-.56v.56h-.56v4.49h.56v.56h.56v-.56h.56v-6.17h.56v-1.12h.56v-.56h1.68v.56h.56v1.12h.56v7.86h-.56v1.12h-.56v.56h-1.12v-2.81h.56v-.56h.56v-4.49h-.56v-.56h-.56v.56h-.56v6.17h-.56v1.12h-.56v.56h-1.68v-.56h-.56v-1.12h-.56v-7.86h.56v-1.12h.56Z"/>
            <path d="m1885.92,643.06v2.24h-.56v.56h-.56v.56h.56v1.12h.56v5.05h-.56v1.12h-.56v.56h-4.49v-.56h-.56v-1.12h-.56v-5.05h.56v-1.12h.56v-.56h-1.12v-2.81h6.73Zm-1.68,3.93v-.56h-.56v-.56h-2.24v.56h-.56v.56h-.56v3.93h.56v.56h3.37v-.56h.56v-3.93h-.56Z"/>
            <path d="m1888.49,693v-.56h2.24v.56h.56v1.12h.56v1.12h.56v-.56h.56v-.56h.56v-.56h.56v-.56h.56v-.56h.56v2.81h-.56v.56h-.56v.56h-.56v.56h-.56v.56h-.56v.56h-.56v6.17h3.37v2.81h-7.86v-12.91h.56v-1.12h.56Zm1.68,2.81v-.56h-1.12v.56h-.56v8.42h2.24v-8.42h-.56Z"/>
            <path d="m1895.23,680.09v2.24h-.56v.56h-.56v.56h.56v1.12h.56v5.05h-.56v1.12h-.56v.56h-4.49v-.56h-.56v-1.12h-.56v-5.05h.56v-1.12h.56v-.56h-1.12v-2.81h6.73Zm-1.68,3.93v-.56h-.56v-.56h-2.24v.56h-.56v.56h-.56v3.93h.56v.56h3.37v-.56h.56v-3.93h-.56Z"/>
            <path d="m1890.18,666.63v.56h.56v.56h.56v.56h.56v.56h.56v.56h.56v.56h.56v.56h.56v.56h.56v.56h.56v2.24h-.56v.56h-.56v.56h-.56v.56h-.56v.56h-.56v.56h-.56v.56h-.56v.56h-.56v.56h-.56v.56h-1.68v-1.68h.56v-.56h.56v-.56h.56v-.56h.56v-.56h.56v-.56h.56v-.56h.56v-.56h.56v-1.12h-.56v-.56h-.56v-.56h-.56v-.56h-.56v-.56h-.56v-.56h-.56v-.56h-.56v-.56h-.56v-1.68h1.68Z"/>
            <path d="m1889.61,654.84v-.56h4.49v.56h.56v1.12h.56v7.86h-.56v1.12h-.56v.56h-4.49v-.56h-.56v-1.12h-.56v-7.86h.56v-1.12h.56Zm3.93,7.29h.56v-4.49h-.56v-.56h-3.37v.56h-.56v4.49h.56v.56h3.37v-.56Z"/>
            <path d="m1895.23,641.93v2.24h-.56v.56h-.56v.56h.56v1.12h.56v5.05h-.56v1.12h-.56v.56h-4.49v-.56h-.56v-1.12h-.56v-5.05h.56v-1.12h.56v-.56h-1.12v-2.81h6.73Zm-1.68,3.93v-.56h-.56v-.56h-2.24v.56h-.56v.56h-.56v3.93h.56v.56h3.37v-.56h.56v-3.93h-.56Z"/>
            <path d="m1895.23,636.32v.56h1.12v.56h.56v1.12h.56v2.24h-1.12v-1.12h-.56v-.56h-6.73v-2.81h6.17Zm-8.42.56v-.56h1.12v.56h.56v1.68h-.56v.56h-1.12v-.56h-.56v-1.68h.56Z"/>
            <path d="m1895.23,623.98v2.24h-.56v.56h-.56v.56h.56v1.12h.56v5.05h-.56v1.12h-.56v.56h-4.49v-.56h-.56v-1.12h-.56v-5.05h.56v-1.12h.56v-.56h-1.12v-2.81h6.73Zm-1.68,3.93v-.56h-.56v-.56h-2.24v.56h-.56v.56h-.56v3.93h.56v.56h3.37v-.56h.56v-3.93h-.56Z"/>
            <path d="m1889.61,612.19v-.56h5.61v2.81h-5.05v.56h-.56v3.93h.56v.56h.56v.56h4.49v2.81h-6.73v-2.81h1.12v-.56h-.56v-1.12h-.56v-5.05h.56v-1.12h.56Z"/>
            <path d="m1895.23,599.29v2.24h-.56v.56h-.56v.56h.56v1.12h.56v5.05h-.56v1.12h-.56v.56h-4.49v-.56h-.56v-1.12h-.56v-5.05h.56v-1.12h.56v-.56h-1.12v-2.81h6.73Zm-1.68,3.93v-.56h-.56v-.56h-2.24v.56h-.56v.56h-.56v3.93h.56v.56h3.37v-.56h.56v-3.93h-.56Z"/>
            <path d="m1889.61,587.5v-.56h5.61v2.81h-5.05v.56h-.56v3.93h.56v.56h.56v.56h4.49v2.81h-8.98v-2.81h3.37v-.56h-.56v-1.12h-.56v-5.05h.56v-1.12h.56Z"/>
            <path d="m1895.23,574.6v2.24h-.56v.56h-.56v.56h.56v1.12h.56v5.05h-.56v1.12h-.56v.56h-4.49v-.56h-.56v-1.12h-.56v-5.05h.56v-1.12h.56v-.56h-1.12v-2.81h6.73Zm-1.68,3.93v-.56h-.56v-.56h-2.24v.56h-.56v.56h-.56v3.93h.56v.56h3.37v-.56h.56v-3.93h-.56Z"/>
            <path d="m1889.61,562.81v-.56h2.24v2.81h-1.68v.56h-.56v3.37h.56v1.12h.56v.56h4.49v2.81h-6.73v-2.81h1.12v-.56h-.56v-1.12h-.56v-5.05h.56v-1.12h.56Z"/>
            <path d="m1895.23,549.91v.56h1.12v.56h.56v1.12h.56v7.29h-.56v1.12h-.56v.56h-1.12v-2.81h.56v-.56h.56v-4.49h-.56v-.56h-2.24v.56h.56v.56h.56v6.17h-.56v.56h-.56v.56h-5.05v-2.81h4.49v-.56h.56v-3.93h-.56v-.56h-.56v-.56h-3.93v-2.81h6.73Z"/>
          </g>
        </g>
      </g>
      <text class="cls-3" transform="translate(1890.12 502.56) rotate(-90)"><tspan x="0" y="0">X</tspan></text>
      <image width="3072" height="1536" transform="translate(1856.88 463.52) rotate(-90) scale(.04)" xlink:href="../../04-DOCUMENTS/CONTRAT-CORTEX/CORTEX LOGO COULEUR.png"/>
    </g>
  </g>
</svg>